<?xml version="1.0" encoding="utf-8"?>
<!-- Generator: Adobe Illustrator 16.0.0, SVG Export Plug-In . SVG Version: 6.00 Build 0)  -->
<!DOCTYPE svg PUBLIC "-//W3C//DTD SVG 1.1//EN" "http://www.w3.org/Graphics/SVG/1.1/DTD/svg11.dtd">
<svg version="1.1" id="Layer_1" xmlns="http://www.w3.org/2000/svg" xmlns:xlink="http://www.w3.org/1999/xlink" x="0px" y="0px"
	 width="566.93px" height="566.93px" viewBox="0 0 566.93 566.93" enable-background="new 0 0 566.93 566.93" xml:space="preserve">
<g>
	<path d="M43.698,398.366v-229.8c0-69.329,56.313-126.059,125.136-126.059h228.091c68.838,0,125.135,56.729,125.135,126.059v229.8
		c0,69.328-56.297,126.041-125.118,126.056H168.834C100.011,524.407,43.698,467.694,43.698,398.366z"/>
	<path fill="#FFFFFF" d="M296.201,326.749c0,7.341-1.455,13.776-4.379,19.313c-2.907,5.554-6.915,10.204-12.009,13.938
		c-5.094,3.764-11.006,6.611-17.715,8.56c-6.728,1.963-13.883,2.945-21.485,2.945h-83.265V197.873h92.24
		c5.991,0,11.406,1.303,16.264,3.911c4.856,2.606,8.979,5.987,12.378,10.155c3.403,4.153,6.021,8.883,7.891,14.178
		c1.87,5.295,2.795,10.638,2.795,16.013c0,8.48-2.107,16.43-6.309,23.85c-4.214,7.419-10.366,12.924-18.449,16.496
		c9.875,2.946,17.667,8.21,23.416,15.79C293.326,305.845,296.201,315.341,296.201,326.749z M190.848,226.728V270.5h44.666
		c5.657,0,10.48-1.963,14.442-5.872c3.961-3.912,5.942-9.288,5.942-16.143c0-6.679-1.82-11.974-5.463-15.884
		c-3.643-3.911-8.132-5.874-13.467-5.874H190.848z M262.449,320.395c0-3.107-0.529-6.084-1.566-8.934
		c-1.055-2.849-2.476-5.326-4.25-7.45c-1.789-2.125-3.879-3.798-6.31-5.021c-2.429-1.222-5.097-1.835-8.02-1.835h-51.456v45.738
		h49.765c3.067,0,5.94-0.581,8.609-1.724c2.686-1.129,4.984-2.72,6.933-4.764c1.934-2.028,3.467-4.442,4.602-7.212
		C261.891,326.428,262.449,323.484,262.449,320.395z"/>
	<path fill="#FFFFFF" d="M368.761,371.505c-9.874,0-18.819-1.705-26.822-5.1c-15.832-6.794-27.015-18.203-33.517-34.232
		c-3.052-7.741-4.584-15.883-4.584-24.41c0-8.853,1.483-17.175,4.472-25c6.391-16.237,17.559-27.808,33.518-34.712
		c8.082-3.477,17.124-5.214,27.172-5.214c10.034,0,19.013,1.737,26.937,5.214c26.021,11.427,38.292,36.838,37.156,64.442
		c-0.077,1.897-0.271,3.489-0.59,4.746h-95.259c0.462,4.891,1.644,9.238,3.528,13.034c1.886,3.783,4.313,7.032,7.286,9.708
		c2.986,2.686,6.356,4.746,10.128,6.161c3.753,1.432,7.668,2.14,11.758,2.14c6.262,0,12.188-1.543,17.749-4.619
		c5.573-3.089,9.378-7.146,11.407-12.213l27.045,7.595c-4.539,9.479-11.79,17.254-21.743,23.335
		C394.433,368.464,382.563,371.505,368.761,371.505z M400.759,296.624c-0.799-9.318-4.201-16.789-10.239-22.39
		c-6.04-5.617-13.372-8.416-21.998-8.416c-4.233,0-8.195,0.756-11.871,2.253c-3.688,1.495-6.948,3.588-9.76,6.276
		c-2.829,2.688-5.146,5.922-6.949,9.721c-1.806,3.784-2.859,7.968-3.164,12.556H400.759L400.759,296.624z"/>
	<path fill="#FFFFFF" d="M327.29,206.112h82.479v20.616H327.29V206.112z"/>
</g>
</svg>
