<?xml version="1.0" encoding="utf-8"?>
<!-- Generator: Adobe Illustrator 16.0.0, SVG Export Plug-In . SVG Version: 6.00 Build 0)  -->
<!DOCTYPE svg PUBLIC "-//W3C//DTD SVG 1.1//EN" "http://www.w3.org/Graphics/SVG/1.1/DTD/svg11.dtd">
<svg version="1.1" xmlns="http://www.w3.org/2000/svg" xmlns:xlink="http://www.w3.org/1999/xlink" x="0px" y="0px" width="750px"
	 height="500px" viewBox="0 0 750 500" enable-background="new 0 0 750 500" xml:space="preserve">
<g id="BACKGROUND" display="none">
	<rect x="0" y="0.002" display="inline" fill="#FFFFFF" width="750" height="500"/>
</g>
<g id="Layer_4">
	<g>
		<path fill="#A5B7C6" d="M357.366,74.322c-44-3.301-151-60.521-178,4.402c-11,28.61,19,55.019,9,82.529
			c-7,18.707-34,30.811-49,39.614c-23,14.305-50,25.309-70,45.116c-33,31.912-47,91.333-8,122.143c43,36.313,101,40.715,144,77.027
			c36,30.811,86,61.621,133,52.818c56.006-11.004,103.006-68.224,157.006-88.031c31-12.104,66-11.004,98-6.602
			c28,4.401,52,7.702,74-15.406c34-36.313,67-111.139,26-155.154c-25-27.51-96-25.309-96-73.726c0-45.116,58-88.031,13-132.046
			c-44-44.016-112-9.904-157,12.104c-30,14.305-74.004,36.313-108.006,35.212"/>
	</g>
	<rect x="728.36" y="0.214" fill="#FFFFFF" width="21.64" height="499.069"/>
	<text transform="matrix(1 0 0 1 288.8496 247.8506)" font-family="'MyriadPro-Regular'" font-size="12">Ilustración</text>
	<rect x="1.373" y="477.644" fill="#FFFFFF" width="748.328" height="21.64"/>
</g>
<g id="OBJECTS">
	<g>
		<ellipse fill="#FFE1E5" cx="375" cy="371.723" rx="261.092" ry="83.308"/>
		<g>
			<g>
				<path fill="#B4DFD5" d="M571.706,267.244c5.862-1.006,11.856-0.753,17.8-0.972c10.749-0.396,21.438-2.359,31.628-5.806
					c-2.181,7.763-4.36,15.526-6.54,23.289c-1.686,6.005-3.388,12.051-6.169,17.634c-2.655,5.33-6.279,10.177-10.642,14.23
					c-9.057,8.416-21.84,13.299-34.007,11.104c-10.636-1.92-20.621-9.372-23.72-19.974
					C534.148,286.539,553.558,270.356,571.706,267.244z"/>
				<path fill="#42B093" d="M614.18,266.944c-8.214,3.67-16.452,7.356-24.445,11.5c1.33-2.758,2.91-5.361,4.795-7.803
					c0.718-0.931-0.63-2.179-1.353-1.243c-2.436,3.154-4.443,6.545-6.003,10.215c-0.03,0.072-0.03,0.14-0.043,0.21
					c-3.563,1.908-7.077,3.907-10.503,6.063c-4.938,3.106-9.954,6.533-14.413,10.503c1.85-6.945,4.018-13.782,6.566-20.511
					c0.414-1.093-1.209-1.957-1.627-0.854c-2.945,7.777-5.438,15.682-7.472,23.745c-4.211,4.188-7.74,8.963-9.925,14.572
					c-0.425,1.091,1.198,1.954,1.627,0.854c0.959-2.463,2.189-4.755,3.617-6.911c0.02,0.001,0.032,0.011,0.053,0.011
					c10.228,0.13,20.895-0.566,31.012,1.07c1.162,0.188,1.561-1.604,0.391-1.794c-9.866-1.597-20.187-1.039-30.186-1.104
					c5.704-7.686,14.007-13.498,22.079-18.489c0.011,0,0.017,0.006,0.027,0.006c9.484,0.479,19.33,0.271,28.625,2.341
					c1.154,0.257,1.547-1.537,0.392-1.794c-8.514-1.896-17.468-1.917-26.203-2.256c10.746-6.365,22.166-11.494,33.557-16.583
					C615.816,268.214,615.261,266.461,614.18,266.944z"/>
			</g>
			<g>
				<path fill="#42B093" d="M526.959,236.315c5.949-8.818,15.222-15.336,25.534-17.946c6.89-1.744,14.341-1.861,20.555-5.31
					c6.423-3.565,10.514-10.125,15.84-15.185c4.914-4.667,11.251-8.17,18.023-8.394s13.873,3.373,16.555,9.596
					c3.47,8.054-1.479,17.809-8.95,22.402c-3.794,2.333-8.457,3.97-10.503,7.926c-1.066,2.062-1.231,4.457-1.374,6.774
					c-0.451,7.313-0.893,14.683-2.768,21.765c-2.522,9.524-7.736,18.43-15.299,24.746c-7.562,6.316-17.517,9.899-27.34,9.14
					c-5.09-0.393-10.027-1.902-14.818-3.665C519.245,279.641,513.165,256.765,526.959,236.315z"/>
				<path fill="#2E9376" d="M617.716,203.852c-4.232,0.895-8.494,1.565-12.789,2.023c2.755-2.304,5.545-4.57,8.408-6.759
					c0.876-0.67-0.29-1.926-1.159-1.26c-3.166,2.421-6.249,4.929-9.283,7.489c0.109-2.487,0.405-4.925,0.936-7.39
					c0.229-1.069-1.399-1.601-1.631-0.524c-0.669,3.11-1.028,6.215-1.066,9.395c-6.041,5.188-11.838,10.633-17.447,16.268
					c0.33-3.355,0.507-6.715,0.518-10.094c0.003-1.1-1.708-1.177-1.711-0.072c-0.013,4.063-0.261,8.099-0.735,12.132
					c-9.477,9.665-18.424,19.863-27.135,30.259c0.985-10.563,2.187-21.104,3.624-31.616c0.149-1.091-1.563-1.156-1.711-0.072
					c-1.545,11.295-2.828,22.621-3.85,33.975c-0.001,0.005,0.003,0.01,0.002,0.015c-4.012,4.821-7.97,9.683-11.914,14.549
					c-0.371-0.491-0.663-1.206-0.88-2.232c-0.569-2.688-1.069-5.391-1.503-8.104c-0.986-6.17-1.589-12.383-1.892-18.624
					c-0.053-1.092-1.765-1.174-1.711-0.071c0.509,10.492,1.94,20.862,4.313,31.095c-0.949,1.173-1.902,2.344-2.85,3.516
					c-0.693,0.858,0.756,1.774,1.441,0.926c1.005-1.243,2.017-2.485,3.023-3.729c12.038-0.868,23.488-5.571,35.626-5.504
					c1.1,0.006,1.177-1.705,0.071-1.711c-10.192-0.057-19.804,3.259-29.773,4.854c-1.843,0.295-3.294,0.675-4.398,0.479
					c3.99-4.922,7.995-9.838,12.056-14.711l36.19-7.92c1.075-0.235,0.693-1.905-0.386-1.669c-11.333,2.48-22.665,4.96-33.997,7.44
					c8.592-10.245,17.415-20.294,26.753-29.825c5.264-0.056,10.472-0.514,15.665-1.388c1.086-0.183,0.699-1.852-0.386-1.669
					c-4.496,0.757-9.01,1.176-13.558,1.301c5.79-5.831,11.776-11.461,18.029-16.813c5.213-0.457,10.371-1.205,15.495-2.289
					C619.179,205.293,618.796,203.624,617.716,203.852z"/>
			</g>
			<path fill="#FDD17A" d="M614.38,175.134c-13.657,0.593-27.881,3.65-37.722,12.915c4.202-8.32,8.336-16.673,12.326-25.097
				c1.355,0.621,2.94,0.779,4.436,0.59c6.878-0.87,9.157-7.008,9.642-13.138c0.258-3.25,0.089-6.513,0.005-9.766
				c-0.058-2.26,1.5-13.625-3.931-10.035c-2.593,1.713-4.675,4.115-6.924,6.229c-3.447,3.24-6.179,7.112-7.324,11.396
				c-0.856,3.203-0.826,6.637,0.454,10.21c0.48,1.34,1.143,2.658,2.209,3.599c0.047,0.042,0.1,0.073,0.147,0.113
				c-4.645,9.799-9.492,19.509-14.414,29.187c0.009-0.056,0.017-0.115,0.025-0.167c0.669-4.071,0.981-8.239,0.296-12.33
				c-1.165-6.959-5.201-12.973-10.964-16.974c-0.424-0.294-1.137-0.219-1.233,0.398c-0.031,0.203-4.324,17.271-1.352,25.034
				c1.129,2.947,2.841,5.716,5.148,7.885c1.136,1.068,2.971,2.831,4.738,2.71c-5.153,10.083-10.334,20.155-15.373,30.29
				c0.167-1.9,0.005-3.966-0.147-5.436c-0.611-5.864-3.34-11.55-7.781-15.471c-1.788-1.578-3.855-2.9-6.161-3.51
				c-2.497,4.276-2.855,9.477-2.468,14.414c0.213,2.715,0.657,5.488,2.022,7.845c1.251,2.16,3.228,3.853,5.459,4.97
				c1.653,0.827,4.93,2.18,6.927,1.529c-6.085,12.373-11.91,24.861-17.176,37.598c-0.744-3.2-2.814-5.981-5.353-8.068
				c-2.549-2.097-5.557-3.557-8.602-4.829c-2.028-0.848-4.205-1.712-5.474-3.507c0.947,2.365,0.858,4.996,1.205,7.521
				c0.464,3.384,1.744,6.652,3.701,9.45c1.3,1.857,2.937,3.54,4.983,4.512c2.356,1.119,5.187,1.484,7.195,0.705
				c-1.866,4.7-3.66,9.433-5.345,14.214c-4.697,13.327-8.538,26.937-11.258,40.807c-0.187,0.947,1.279,1.268,1.466,0.319
				c4.018-20.489,10.537-40.151,18.399-59.318c0.064,2.452,1.39,4.864,4.37,6.444c1.325,0.702,2.818,1.038,4.311,1.182
				c4.552,0.438,9.251-0.922,12.864-3.724s6.102-7.014,6.812-11.53c0.08-0.508,0.079-1.145-0.368-1.396
				c-0.3-0.168-0.671-0.081-1.005,0c-3.26,0.783-6.67,0.441-10.006,0.119s-6.759-0.615-9.994,0.261
				c-1.777,0.481-3.29,1.406-4.45,2.584c4.7-11.018,9.808-21.883,15.104-32.657c0.7,1.468,2.772,2.473,4.088,3.07
				c6.508,2.951,14.243,3.068,20.837,0.316c6.595-2.751,11.952-8.332,14.434-15.033c-6.788-2.739-14.451-3.258-21.547-1.461
				c-4.709,1.193-9.149,3.402-12.969,6.399c-0.62,0.488-1.57,1.167-2.482,1.937c5.252-10.56,10.651-21.042,15.99-31.506
				c4.647,9.428,19.079,8.049,27.51,4.485c10.246-4.332,17.672-14.349,15.47-25.771C615.071,175.325,614.677,175.121,614.38,175.134
				z"/>
		</g>
		<g>
			<g>
				<path fill="#61BDA6" d="M165.088,243.499c-5.884-0.866-11.87-0.471-17.818-0.55c-10.755-0.142-21.488-1.851-31.756-5.055
					c2.363,7.709,4.726,15.418,7.089,23.128c1.828,5.963,3.672,11.967,6.585,17.482c2.781,5.266,6.519,10.024,10.976,13.975
					c9.253,8.199,22.148,12.777,34.26,10.295c10.587-2.171,20.393-9.858,23.24-20.529
					C203.092,261.899,183.304,246.181,165.088,243.499z"/>
				<path fill="#40967D" d="M122.619,244.205c8.298,3.474,16.622,6.965,24.711,10.917c-1.396-2.725-3.037-5.291-4.979-7.687
					c-0.74-0.914,0.578-2.194,1.323-1.275c2.509,3.096,4.597,6.438,6.243,10.07c0.032,0.071,0.034,0.139,0.048,0.208
					c3.607,1.823,7.167,3.739,10.644,5.813c5.01,2.989,10.105,6.296,14.657,10.158c-2.013-6.898-4.343-13.683-7.05-20.349
					c-0.44-1.083,1.162-1.985,1.606-0.893c3.129,7.705,5.808,15.548,8.032,23.562c4.309,4.087,7.95,8.776,10.267,14.333
					c0.45,1.08-1.152,1.981-1.606,0.893c-1.018-2.439-2.302-4.702-3.78-6.823c-0.019,0.001-0.032,0.011-0.052,0.012
					c-10.223,0.372-20.903-0.072-30.979,1.805c-1.157,0.216-1.598-1.568-0.433-1.785c9.826-1.83,20.157-1.517,30.151-1.818
					c-5.884-7.549-14.323-13.163-22.511-17.962c-0.01,0.001-0.017,0.007-0.027,0.008c-9.471,0.703-19.318,0.729-28.562,3.018
					c-1.147,0.284-1.582-1.5-0.433-1.784c8.466-2.097,17.417-2.33,26.142-2.876c-10.894-6.108-22.432-10.966-33.939-15.784
					C121.013,245.514,121.526,243.748,122.619,244.205z"/>
			</g>
			<g>
				<path fill="#B4DFD5" d="M249.964,229.312c-7.193-10.722-18.427-18.662-30.936-21.862c-8.357-2.139-17.4-2.304-24.932-6.51
					c-7.785-4.347-12.729-12.323-19.179-18.48c-5.95-5.68-13.63-9.952-21.85-10.245c-8.22-0.292-16.849,4.05-20.124,11.596
					c-4.237,9.766,1.739,21.622,10.793,27.22c4.598,2.843,10.252,4.845,12.723,9.653c1.288,2.506,1.481,5.413,1.647,8.226
					c0.524,8.877,1.037,17.825,3.291,26.427c3.032,11.568,9.333,22.394,18.491,30.084c9.159,7.69,21.23,12.07,33.157,11.18
					c6.179-0.462,12.177-2.278,17.998-4.403C259.193,281.924,266.644,254.176,249.964,229.312z"/>
				<path fill="#61BDA6" d="M139.908,189.625c5.135,1.1,10.305,1.927,15.517,2.496c-3.336-2.805-6.716-5.564-10.184-8.23
					c-1.062-0.816,0.357-2.336,1.411-1.526c3.834,2.949,7.57,6.002,11.245,9.119c-0.125-3.02-0.478-5.979-1.113-8.973
					c-0.275-1.299,1.704-1.939,1.981-0.631c0.802,3.776,1.229,7.546,1.265,11.406c7.317,6.315,14.335,12.943,21.126,19.8
					c-0.39-4.074-0.595-8.152-0.597-12.253c0-1.334,2.077-1.423,2.077-0.082c0.002,4.932,0.292,9.831,0.854,14.729
					c11.472,11.76,22.3,24.166,32.84,36.812c-1.163-12.825-2.588-25.622-4.3-38.386c-0.178-1.325,1.9-1.398,2.077-0.082
					c1.839,13.714,3.362,27.465,4.567,41.249c0,0.007-0.004,0.013-0.003,0.019c4.855,5.864,9.644,11.777,14.416,17.696
					c0.451-0.595,0.809-1.461,1.075-2.706c0.698-3.262,1.315-6.54,1.85-9.832c1.216-7.487,1.967-15.026,2.354-22.6
					c0.067-1.325,2.145-1.419,2.077-0.082c-0.65,12.733-2.421,25.315-5.332,37.73c1.148,1.426,2.302,2.85,3.448,4.275
					c0.838,1.044-0.923,2.151-1.752,1.119c-1.215-1.513-2.44-3.022-3.658-4.535c-14.609-1.091-28.493-6.835-43.226-6.793
					c-1.334,0.004-1.422-2.072-0.082-2.076c12.372-0.036,24.028,4.019,36.125,5.985c2.235,0.363,3.995,0.829,5.337,0.596
					c-4.828-5.987-9.673-11.967-14.587-17.895l-43.902-9.727c-1.305-0.289-0.836-2.314,0.474-2.024
					c13.747,3.045,27.494,6.091,41.241,9.137c-10.396-12.462-21.075-24.688-32.378-36.285c-6.388-0.084-12.709-0.657-19.009-1.733
					c-1.318-0.226-0.843-2.25,0.474-2.025c5.455,0.933,10.932,1.456,16.451,1.622c-7.01-7.095-14.259-13.948-21.831-20.464
					c-6.326-0.57-12.585-1.496-18.8-2.827C138.127,191.369,138.597,189.344,139.908,189.625z"/>
			</g>
			<path fill="#EC7772" d="M166.088,182.1c11.874,1.577,24.052,5.348,31.923,14.197c-3.023-7.587-5.983-15.199-8.813-22.86
				c-1.231,0.437-2.626,0.452-3.917,0.171c-5.936-1.292-7.449-6.827-7.397-12.214c0.027-2.856,0.427-5.691,0.753-8.524
				c0.226-1.968-0.253-12.008,4.208-8.454c2.13,1.697,3.762,3.954,5.561,5.973c2.758,3.095,4.841,6.687,5.509,10.515
				c0.499,2.862,0.207,5.857-1.188,8.876c-0.523,1.132-1.203,2.23-2.208,2.97c-0.043,0.032-0.092,0.056-0.137,0.087
				c3.293,8.913,6.772,17.764,10.317,26.592c-0.003-0.049-0.005-0.102-0.009-0.148c-0.269-3.605-0.217-7.267,0.698-10.785
				c1.557-5.984,5.545-10.92,10.885-13.966c0.393-0.224,1.01-0.103,1.046,0.444c0.012,0.18,2.435,15.41-0.761,21.955
				c-1.213,2.484-2.923,4.769-5.104,6.483c-1.075,0.845-2.813,2.241-4.346,1.998c3.716,9.2,7.457,18.393,11.069,27.629
				c0.002-1.671,0.303-3.462,0.55-4.732c0.988-5.071,3.811-9.822,7.991-12.9c1.684-1.239,3.59-2.233,5.65-2.586
				c1.847,3.926,1.757,8.493,1.036,12.771c-0.396,2.354-1,4.739-2.374,6.69c-1.26,1.788-3.116,3.113-5.15,3.915
				c-1.507,0.594-4.472,1.521-6.165,0.798c4.352,11.271,8.468,22.623,12.077,34.147c0.897-2.735,2.92-5.002,5.297-6.627
				c2.387-1.632,5.125-2.673,7.882-3.548c1.836-0.583,3.803-1.169,5.049-2.637c-1.01,1.99-1.137,4.295-1.635,6.471
				c-0.667,2.917-2.039,5.671-3.964,7.962c-1.277,1.52-2.837,2.861-4.699,3.551c-2.144,0.794-4.642,0.894-6.334,0.058
				c1.264,4.247,2.463,8.518,3.563,12.82c3.066,11.996,5.364,24.173,6.662,36.49c0.089,0.842-1.215,1.007-1.304,0.165
				c-1.918-18.195-6.084-35.862-11.46-53.201c-0.247,2.136-1.591,4.139-4.314,5.286c-1.211,0.51-2.54,0.688-3.854,0.697
				c-4.006,0.029-8.002-1.522-10.939-4.247c-2.937-2.726-4.782-6.596-5.051-10.593c-0.03-0.449,0.02-1.005,0.43-1.189
				c0.274-0.124,0.592-0.019,0.877,0.077c2.784,0.937,5.787,0.902,8.724,0.88s5.947-0.013,8.703,1.003
				c1.514,0.558,2.763,1.482,3.684,2.601c-3.248-9.981-6.864-19.861-10.651-29.676c-0.725,1.228-2.611,1.944-3.806,2.363
				c-5.909,2.071-12.669,1.574-18.212-1.339c-5.542-2.913-9.786-8.199-11.432-14.24c6.137-1.865,12.866-1.724,18.92,0.395
				c4.017,1.406,7.722,3.679,10.823,6.591c0.504,0.474,1.28,1.14,2.017,1.882c-3.766-9.624-7.666-19.192-11.514-28.739
				c-4.788,7.869-17.277,5.545-24.359,1.781c-8.607-4.575-14.312-13.894-11.504-23.693C165.47,182.213,165.83,182.065,166.088,182.1
				z"/>
		</g>
		<g>
			<g>
				<path fill="#61BDA6" d="M405.849,90.292c5.907-0.696,11.879-0.128,17.826-0.035c10.755,0.169,21.533-1.228,31.889-4.134
					c-2.585,7.638-5.17,15.276-7.755,22.914c-2,5.908-4.017,11.856-7.088,17.285c-2.932,5.183-6.806,9.832-11.375,13.651
					c-9.487,7.929-22.509,12.132-34.544,9.3c-10.52-2.476-20.099-10.444-22.636-21.193
					C367.329,107.585,387.563,92.445,405.849,90.292z"/>
				<path fill="#40967D" d="M448.281,92.226c-8.396,3.233-16.816,6.481-25.017,10.198c1.474-2.684,3.188-5.201,5.198-7.54
					c0.767-0.892-0.514-2.209-1.285-1.313c-2.598,3.022-4.781,6.303-6.531,9.885c-0.034,0.07-0.037,0.138-0.054,0.207
					c-3.659,1.718-7.273,3.53-10.809,5.502c-5.094,2.842-10.283,6-14.944,9.729c2.212-6.838,4.737-13.551,7.636-20.137
					c0.471-1.07-1.104-2.018-1.579-0.938c-3.351,7.611-6.255,15.373-8.711,23.319c-4.425,3.961-8.2,8.543-10.677,14.03
					c-0.481,1.067,1.094,2.014,1.579,0.938c1.087-2.409,2.438-4.633,3.976-6.711c0.02,0.002,0.032,0.013,0.052,0.014
					c10.207,0.667,20.896,0.532,30.913,2.7c1.15,0.249,1.643-1.521,0.484-1.772c-9.769-2.113-20.104-2.099-30.086-2.69
					c6.101-7.375,14.698-12.743,23.021-17.303c0.01,0.001,0.017,0.007,0.026,0.008c9.447,0.977,19.289,1.288,28.463,3.843
					c1.139,0.317,1.625-1.454,0.484-1.771c-8.401-2.34-17.342-2.833-26.047-3.631c11.065-5.791,22.739-10.312,34.382-14.795
					C449.847,93.58,449.385,91.801,448.281,92.226z"/>
			</g>
			<path fill="#2A514A" d="M430.875,61.167c-0.001-0.222-0.238-0.407-0.438-0.436c-9.196-1.324-19.082-1.073-26.821,3.876
				c4.754-6.202,9.453-12.446,13.992-18.808c0.381-0.534-0.423-1.161-0.805-0.626c-5.122,7.179-10.462,14.21-15.855,21.205
				c0.013-0.036,0.026-0.075,0.038-0.109c0.96-2.635,1.692-5.379,1.75-8.198c0.099-4.795-1.84-9.32-5.185-12.718
				c-0.246-0.25-0.732-0.29-0.875,0.111c-0.047,0.131-5.063,10.991-4.055,16.551c0.383,2.11,1.178,4.176,2.445,5.915
				c0.624,0.857,1.628,2.265,2.824,2.407c-4.713,6.086-9.44,12.161-14.083,18.296c0.351-1.248,0.503-2.648,0.586-3.649
				c0.33-3.994-0.776-8.136-3.249-11.313c-0.996-1.28-2.21-2.423-3.674-3.121c-2.206,2.542-3.1,5.971-3.463,9.317
				c-0.2,1.84-0.252,3.748,0.363,5.495c0.563,1.6,1.67,2.98,3.021,4.007c1,0.76,3.019,2.077,4.434,1.894
				c-5.622,7.498-11.086,15.106-16.207,22.95c-0.094-2.231-1.126-4.35-2.559-6.063c-1.438-1.721-3.264-3.075-5.137-4.308
				c-1.248-0.822-2.593-1.673-3.214-3.032c0.335,1.699-0.056,3.445-0.143,5.175c-0.116,2.318,0.328,4.663,1.283,6.778
				c0.634,1.404,1.516,2.734,2.761,3.641c1.433,1.044,3.277,1.645,4.717,1.377c-1.838,2.905-3.632,5.84-5.36,8.821
				c-4.815,8.31-9.095,16.917-12.658,25.839c-0.244,0.609,0.695,1.008,0.939,0.398c5.264-13.18,12.094-25.492,19.759-37.304
				c-0.266,1.646,0.316,3.424,2.107,4.855c0.797,0.636,1.752,1.048,2.731,1.333c2.984,0.865,6.295,0.548,9.061-0.868
				c2.767-1.416,4.959-3.917,6.002-6.844c0.117-0.329,0.197-0.754-0.07-0.979c-0.179-0.15-0.438-0.139-0.671-0.127
				c-2.275,0.113-4.511-0.544-6.698-1.18c-2.188-0.636-4.437-1.262-6.708-1.084c-1.248,0.097-2.375,0.524-3.298,1.166
				c4.527-6.768,9.306-13.382,14.201-19.911c0.282,1.068,1.54,2.001,2.344,2.565c3.976,2.791,9.127,3.843,13.879,2.835
				c4.751-1.007,9.032-4.06,11.533-8.223c-4.189-2.684-9.242-3.997-14.208-3.689c-3.295,0.204-6.54,1.12-9.468,2.642
				c-0.477,0.248-1.196,0.582-1.902,0.98c4.838-6.392,9.765-12.713,14.647-19.03c1.918,6.883,11.73,7.778,17.811,6.459
				C424.686,74.83,430.908,69.074,430.875,61.167z"/>
		</g>
		<g>
			<g>
				<path fill="#76A9B7" d="M230.137,267.873v-126.94c0-14.351,11.634-25.985,25.985-25.985h248.477
					c12.14,0,21.981,9.842,21.981,21.982v130.942c0,14.351-11.634,25.984-25.984,25.984H256.122
					C241.771,293.857,230.137,282.223,230.137,267.873z"/>
				<path fill="#E4F3F7" d="M503.284,286.807h-249.85c-9.082,0-16.445-7.362-16.445-16.444V138.441
					c0-9.082,7.363-16.444,16.445-16.444h249.85c9.083,0,16.445,7.362,16.445,16.444v131.921
					C519.729,279.445,512.367,286.807,503.284,286.807z"/>
			</g>
			<path fill="#76A9B7" d="M440.688,325.377H316.03c-1.33,0-2.408-1.078-2.408-2.407l0,0c0-1.33,1.078-2.408,2.408-2.408h124.658
				c1.33,0,2.408,1.078,2.408,2.408l0,0C443.096,324.299,442.018,325.377,440.688,325.377z"/>
			<polygon fill="#527480" points="441.383,320.562 315.335,320.562 326.08,293.857 430.638,293.857 			"/>
			<g>
				<rect x="249.468" y="152.829" fill="#B4DFD5" width="257.783" height="123.549"/>
				<g>
					<rect x="249.468" y="134.692" fill="#E6E6CE" width="257.783" height="18.272"/>
					<g>
						<circle fill="#EC7772" cx="257.769" cy="143.828" r="3.537"/>
						<circle fill="#FDD17A" cx="270.819" cy="143.828" r="3.537"/>
						<circle fill="#61BDA6" cx="283.87" cy="143.828" r="3.537"/>
					</g>
				</g>
				<text transform="matrix(1 0 0 1 314.2017 225.5898)" fill="#FFFFFF" font-family="'Montserrat-Black'" font-size="37.4198">BRAND</text>
				<rect x="261.477" y="166.602" fill="#61BDA6" width="30.533" height="89.925"/>
				<g>
					<rect x="264.046" y="169.514" fill="#B4DFD5" width="11.482" height="11.482"/>
					<rect x="277.958" y="169.514" fill="#B4DFD5" width="11.482" height="11.482"/>
				</g>
				<g>
					<rect x="264.046" y="184.314" fill="#B4DFD5" width="11.482" height="11.482"/>
					<rect x="277.958" y="184.314" fill="#B4DFD5" width="11.482" height="11.482"/>
				</g>
				<g>
					<rect x="264.046" y="199.115" fill="#B4DFD5" width="11.482" height="11.482"/>
					<rect x="277.958" y="199.115" fill="#B4DFD5" width="11.482" height="11.482"/>
				</g>
				<g>
					<rect x="264.046" y="213.916" fill="#B4DFD5" width="11.482" height="11.482"/>
					<rect x="277.958" y="213.916" fill="#B4DFD5" width="11.482" height="11.482"/>
				</g>
				<g>
					<rect x="264.046" y="228.717" fill="#B4DFD5" width="11.482" height="11.482"/>
					<rect x="277.958" y="228.717" fill="#B4DFD5" width="11.482" height="11.482"/>
				</g>
				<g>
					<g>
						<g>
							<polyline fill="none" stroke="#1C1C38" stroke-linecap="round" stroke-linejoin="round" points="474.676,241.466 
								474.676,242.966 473.176,242.966 							"/>
							
								<line fill="none" stroke="#1C1C38" stroke-linecap="round" stroke-linejoin="round" stroke-dasharray="2.965,3.9533" x1="469.223" y1="242.966" x2="305.16" y2="242.966"/>
							<polyline fill="none" stroke="#1C1C38" stroke-linecap="round" stroke-linejoin="round" points="303.183,242.966 
								301.683,242.966 301.683,241.466 							"/>
							
								<line fill="none" stroke="#1C1C38" stroke-linecap="round" stroke-linejoin="round" stroke-dasharray="2.8748,3.833" x1="301.683" y1="237.633" x2="301.683" y2="185.887"/>
							<polyline fill="none" stroke="#1C1C38" stroke-linecap="round" stroke-linejoin="round" points="301.683,183.971 
								301.683,182.471 303.183,182.471 							"/>
							
								<line fill="none" stroke="#1C1C38" stroke-linecap="round" stroke-linejoin="round" stroke-dasharray="2.965,3.9533" x1="307.136" y1="182.471" x2="471.2" y2="182.471"/>
							<polyline fill="none" stroke="#1C1C38" stroke-linecap="round" stroke-linejoin="round" points="473.176,182.471 
								474.676,182.471 474.676,183.971 							"/>
							
								<line fill="none" stroke="#1C1C38" stroke-linecap="round" stroke-linejoin="round" stroke-dasharray="2.8748,3.833" x1="474.676" y1="187.804" x2="474.676" y2="239.55"/>
						</g>
					</g>
					<g>
						<rect x="296.93" y="177.717" fill="#1C1C38" width="9.507" height="9.507"/>
						<rect x="469.923" y="177.717" fill="#1C1C38" width="9.507" height="9.507"/>
					</g>
					<g>
						<rect x="296.93" y="238.213" fill="#1C1C38" width="9.507" height="9.507"/>
						<rect x="469.923" y="238.213" fill="#1C1C38" width="9.507" height="9.507"/>
					</g>
				</g>
				<rect x="302.679" y="166.602" fill="#61BDA6" width="171.997" height="4.197"/>
				<rect x="302.679" y="254.469" fill="#61BDA6" width="171.997" height="4.197"/>
			</g>
			<g opacity="0.4">
				<path fill="#FAF9DD" d="M519.299,131.979c-2.046-5.811-7.568-9.982-14.078-9.982H503.1L338.29,286.807h26.181L519.299,131.979z"
					/>
				<path fill="#FAF9DD" d="M399.063,121.997L240.341,280.718c2.72,3.688,7.082,6.089,12.016,6.089h71.747l164.811-164.81H399.063z"
					/>
				<polygon fill="#FAF9DD" points="237.419,216.858 237.419,262.125 377.546,121.997 332.28,121.997 				"/>
			</g>
		</g>
		<g>
			<path fill="#E27E5A" d="M268.528,229.207c2.38,0.894,4.868,1.461,7.347,2.026c4.359,0.994,8.718,1.987,13.077,2.98
				c1.152,0.263,2.356,0.525,3.502,0.235c1.667-0.422,3.537-1.173,4.903-2.218c1.509-1.155,2.096-6.948,3.104-8.558
				c0.606-0.969,1.95-1.367,1.816-0.775c-0.196,0.866,0.425,9.665,0.209,10.536c-0.467,1.886-2.013,3.364-3.771,4.191
				c-1.705,0.801-3.604,1.073-5.481,1.251c-5.224,0.494-10.481,0.61-15.718,0.294c-4.677-0.282-9.486-0.149-14.093-1.203
				c-4.468-1.022-8.692-1.94-12.775-4.023c-1.597-0.815-3.146-2.845-4.333-4.188c-3.396-3.839,1.189-10.69,5.97-9.731
				c2.664,0.534,5.384,3.186,7.64,4.625C262.664,226.396,265.477,228.061,268.528,229.207z"/>
			<g>
				<g>
					<path fill="#CE422C" d="M232.454,398.53c0,1.223-0.977,2.272-2.1,2.744c-1.123,0.479-2.378,0.498-3.594,0.512
						c-9.341,0.106-18.676,0.212-28.01,0.318c-3.163,0.033-6.411,0.061-9.394-1.003c-0.306-1.408-0.16-2.797,0.186-4.186
						c0.591-2.398,1.773-4.797,2.212-7.255c0.498-2.771,0.046-5.62,0.172-8.431c0.007-0.246,0.04-0.524,0.239-0.671
						c0.14-0.1,0.319-0.113,0.492-0.119c2.923-0.101,5.847-0.213,8.776-0.3c0.93-0.026,6.351-0.013,6.564,0.698
						c0.784,2.684,2.757,4.863,4.903,6.656c2.152,1.794,4.538,3.303,6.564,5.235c0.89,0.844,1.734,1.787,2.85,2.285
						c1.8,0.811,3.873,0.319,5.84,0.372c1.329,0.033,2.81,0.552,3.641,1.488C232.201,397.334,232.454,397.885,232.454,398.53z"/>
					<path fill="#7F1D13" d="M232.454,398.53c0,1.223-0.977,2.272-2.1,2.744c-1.123,0.479-2.378,0.498-3.594,0.512
						c-9.341,0.106-18.676,0.212-28.01,0.318c-3.163,0.033-6.411,0.061-9.394-1.003c-0.306-1.408-0.16-2.797,0.186-4.186
						c0.299-0.14,0.638-0.232,1.01-0.259c2.93-0.227,6.451,0.856,9.414,1.103c3.123,0.259,6.318,0.604,9.454,0.604
						c7.501,0.405,15.267,0.784,22.376-1.488C232.201,397.334,232.454,397.885,232.454,398.53z"/>
				</g>
				<path fill="#3B6472" d="M212.448,320.108c1.992,2.615,4.119,5.79,3.155,8.933c-0.425,1.387-1.405,2.521-2.313,3.652
					c-9.914,12.35-13.501,28.46-16.801,43.949c-0.149,0.696-0.271,1.508,0.192,2.049c0.313,0.366,0.812,0.501,1.279,0.616
					c2.825,0.7,5.649,1.399,8.473,2.1c0.511,0.127,1.044,0.254,1.559,0.141c1.505-0.332,1.833-2.271,2.126-3.782
					c0.418-2.153,1.385-4.154,2.342-6.128c3.811-7.855,7.622-15.711,11.433-23.566c2.571-5.299,5.242-10.734,9.592-14.705
					c1.042-0.951,2.213-1.864,2.746-3.172c0.577-1.417,0.291-3.024-0.054-4.515c-1.477-6.389-3.869-12.523-6.254-18.631
					c-5.126-13.132-10.253-26.263-15.379-39.394c-0.39-0.999-0.816-2.048-1.666-2.702c-1.674-1.289-4.092-0.479-5.969,0.491
					c-6.39,3.306-12.045,8.023-16.444,13.718c-2.173,2.813-3.751,6.029-1.516,9.116c2.353,3.249,4.973,6.36,7.302,9.68
					C201.506,305.445,206.906,312.831,212.448,320.108z"/>
			</g>
			<g>
				<g>
					<path fill="#CE422C" d="M153.198,370.039c0.513,1.657,0.03,3.444-0.241,5.157c-0.608,3.793-0.176,7.664,0.257,11.484
						c0.245,2.146,0.5,4.325,1.311,6.331c0.586,1.438,1.458,2.757,2.014,4.211c0.306,0.79,0.504,1.646,0.506,2.489
						c0.012,0.716-0.125,1.414-0.462,2.05c-0.776,1.477-2.514,2.264-4.185,2.264c-1.669-0.01-3.265-0.701-4.671-1.592
						c-4.597-2.898-7.525-7.803-9.731-12.767c-2.207-4.963-3.872-10.206-6.771-14.805c-0.658-1.046-1.4-2.102-1.583-3.325
						c-0.182-1.225,0.42-2.675,1.625-2.969c0.599-0.14,1.173-0.311,1.727-0.499c3.785-1.275,6.667-3.489,10.173-5.542
						c3.548-2.086,6.37,2.328,8.421,4.841C152.25,368.181,152.889,369.041,153.198,370.039z"/>
					<path fill="#7F1D13" d="M155.742,400.192c0.432-0.127,0.866-0.315,1.303-0.48c0.012,0.716-0.125,1.414-0.462,2.05
						c-0.776,1.477-2.514,2.264-4.185,2.264c-1.669-0.01-3.265-0.701-4.671-1.592c-4.597-2.898-7.525-7.803-9.731-12.767
						c-2.207-4.963-3.872-10.206-6.771-14.805c-0.658-1.046-1.4-2.102-1.583-3.325c-0.182-1.225,0.42-2.675,1.625-2.969
						c0.599-0.14,1.173-0.311,1.727-0.499c0.407,0.854,0.548,1.95,0.773,2.896c1.221,5.17,3.619,9.958,6.033,14.649
						c2.277,4.418,4.675,8.937,8.439,12.183C150.317,399.578,153.115,400.974,155.742,400.192z"/>
				</g>
				<path fill="#547989" d="M208.816,253.894c0.73,1.115,0.237,2.599-0.313,3.813c-4.391,9.588-12.019,18.36-11.965,28.906
					c0.012,2.58,0.497,5.129,1.065,7.645c0.109,0.506,0.224,0.998,0.338,1.499c3.129,13.665,6.172,27.685,4.355,41.585
					c-0.174,1.352-0.407,2.724-1.095,3.903c-0.725,1.251-1.897,2.169-3.09,2.983c-9.898,6.778-22.667,8.572-32.165,15.905
					c-4.372,3.372-7.89,7.813-12.531,10.797c-3.46-2.48-6.437-5.626-8.716-9.216c7.914-4.365,12.621-12.85,19.666-18.508
					c4.145-3.328,9.004-5.613,13.78-7.951c1.083-0.535,2.258-1.168,2.703-2.293c0.293-0.735,0.214-1.559,0.106-2.344
					c-1.276-9.961-5.229-19.345-8.942-28.68c-0.88-2.214-1.749-4.444-2.573-6.693c-2.641-7.222-4.775-14.638-5.069-22.288
					c-0.167-4.459,0.37-8.979,1.713-13.245c1.196-3.797,3.032-7.486,5.657-10.503c2.653-3.056,4.741-2.986,8.589-2.598
					c8.967,0.903,17.81,2.866,26.299,5.897C207.458,252.805,208.338,253.154,208.816,253.894z"/>
			</g>
			<path fill="#F29D7E" d="M244.208,246.412c2.063,1.334,4.247,2.529,6.612,3.195c5.167,1.454,10.661,0.273,15.915-0.826
				c7.489-1.565,15.014-2.954,22.568-4.165c2.306-0.369,4.67-0.721,6.961-0.271c1.702,0.334,3.794,0.983,4.918-0.337
				c0.489-0.575,1.01-0.967,1.094-1.718c0.49-4.389,0.581-15.015,0-19.393c-1.022,0.358-1.999,7.331-2.167,8.401
				c-0.167,1.07-0.231,2.243-0.945,3.058c-0.348,0.398-0.82,0.667-1.201,1.035c-0.581,0.561-0.928,1.327-1.5,1.898
				c-0.848,0.848-2.08,1.167-3.26,1.381c-5.388,0.977-10.923,0.478-16.368-0.108c-5.605-0.603-11.205-1.295-16.755-2.283
				c-3.121-0.555-6.355-1.262-8.826-3.247c-2.768-2.222-4.151-5.688-6.091-8.661c-0.392-0.6-0.832-1.205-1.464-1.542
				c-0.739-0.395-1.626-0.365-2.461-0.284c-2.947,0.287-5.9,1.124-8.303,2.855c-1.667,1.201-3.984,3.493-3.845,5.746
				c0.123,1.983,3.471,2.193,4.674,3.577C237.187,238.653,239.819,243.574,244.208,246.412z"/>
			<path fill="#E289A9" d="M211.787,207.985c-1.836,2.446-3.673,4.891-5.509,7.336c-2.104,2.801-4.208,5.604-6.461,8.286
				c-7.211,8.585-15.935,15.897-25.649,21.497c-0.985,0.568-2.064,1.219-2.395,2.307c-0.333,1.095,0.213,2.247,0.77,3.247
				c6.542,11.765,16.657,21.248,27.876,28.687c0.906,0.601,1.902,1.212,2.987,1.149c1.075-0.062,1.989-0.771,2.816-1.46
				c8.215-6.854,15.447-14.882,21.407-23.767c2.581-3.847,5.04-7.975,8.883-10.56c1.291-0.868,2.939-2.054,2.489-3.543
				c-0.122-0.402-0.391-0.74-0.656-1.066c-2.337-2.876-4.779-5.668-7.32-8.366c3.627-0.893,5.364-5.317,8.857-6.641
				c2.472-0.937,5.534,0.076,6.96,2.302c1.158-2.639,3.302-4.831,5.914-6.046c-1.462-2.639-3.05-5.208-4.754-7.697
				c-2.052-2.996-4.297-5.899-7.064-8.25c-4.829-4.102-11.199-6.439-17.456-7.159C217.537,197.559,214.915,203.819,211.787,207.985z
				"/>
			<path fill="#E27E5A" d="M236.543,194.868c-1.367,1.976-3.107,3.66-4.836,5.33c1.569,0.745,3.194,1.533,4.277,2.891
				c2.473,3.103,1.351,8.136,4.083,11.013c-0.189-1.085,0.607-2.069,1.349-2.883c1.392-1.526,2.783-3.052,4.175-4.578
				c0.896-0.982,1.847-2.002,3.105-2.431c1.147-0.391,2.4-0.238,3.602-0.08c-2.431-4.651-4.917-9.379-8.61-13.108
				c-0.954-0.963-3.175-3.218-4.579-1.797c-0.633,0.641-0.689,2.021-1.022,2.834C237.683,193.05,237.151,193.989,236.543,194.868z"
				/>
			<path fill="#F29D7E" d="M257.55,171.373c1.08,1.755,3.289,6.332,3.259,7.764c-0.033,1.565-0.388,1.797-0.384,3.363
				c0.007,2.673,2.542,3.445,3.276,6.268c0,0.724-1.297,0.845-2.064,0.911c-0.29,0.025-0.598,0.057-0.825,0.24
				c-0.719,0.58,0.103,1.787-0.225,2.65c-0.426,1.124-2.342,0.833-2.945,1.872c-0.392,0.675-0.006,1.528,0.438,2.169
				c0.445,0.642,0.979,1.337,0.871,2.11c-0.143,1.023-1.373,1.736-1.265,2.763c0.061,0.581,0.346,1.259,0.081,1.779
				c-0.429,0.839-0.956,1.07-1.938,1.406c-1.605,0.549-5.635-0.725-6.938-1.813c-5.167-4.313-8.101-8.089-7.859-9.049
				c0.175-0.698,0.988-1.234,0.834-1.938c-0.176-0.806-1.32-0.805-2.025-1.235c-0.645-0.394-0.913-1.179-1.133-1.902
				c-0.231-0.757-0.462-1.514-0.692-2.271c-0.284-0.932-0.572-1.893-0.486-2.863s0.637-1.966,1.559-2.282
				c0.745-0.255,1.588-0.019,2.237,0.428c0.649,0.446,1.142,1.08,1.623,1.703c1.048-1.159,2.042-2.366,2.978-3.618
				c0.169-0.226,0.34-0.463,0.397-0.739c0.067-0.328-0.035-0.663-0.129-0.983c-0.375-1.275-0.639-2.583-0.788-3.904
				c-0.109-0.966-0.152-1.97,0.182-2.883c0.734-2.009,3.143-2.991,5.271-2.781c2.129,0.211,4.043,1.334,5.88,2.431
				C257.177,171.119,257.55,171.373,257.55,171.373z"/>
			<path fill="#1B4E61" d="M240.833,183.847c1.169-0.751,2.324-0.088,2.971,0.802c0.21,0.289,0.49,0.61,0.844,0.57
				c0.29-0.033,0.489-0.297,0.653-0.538c0.938-1.382,0.153-2.138,1.091-3.521c0.277-0.408,1.935-1.777,2.403-1.932
				c8.966-2.948,9.972-5.524,9.962-5.717c-0.047-0.931-0.949-4.957-5.428-7.5c-2.721-1.545-6.625-3.31-12.989-2.875
				c-2.303,0.158-4.828,1.556-6.993,2.356c-1.154-1.254-2.481-2.595-4.182-2.709c-1.228-0.083-2.394,0.505-3.45,1.136
				c-2.393,1.431-4.699,3.315-5.662,5.932c-1.597,4.339,0.938,9.146,0.39,13.736c-0.178,1.488-0.671,3.053-0.091,4.435
				c0.491,1.172,1.658,1.936,2.243,3.064c0.751,1.451,0.415,3.211,0.737,4.813c0.361,1.8,1.618,3.396,3.282,4.17
				c1.77,0.824,4.074,0.861,5.209,2.45c0.899,1.259,0.658,2.973,0.987,4.485c0.328,1.502,1.276,2.859,2.574,3.684
				c0.459,0.291,0.963,0.521,1.364,0.889c0.917,0.837,1.109,2.177,1.394,3.386c0.284,1.208,0.875,2.544,2.072,2.872
				c1.13,0.31,2.348-0.507,2.797-1.59s-0.11-6.382-0.131-7.208c-0.061-2.417-3.616-9.67-3.806-11.809
				c-0.118-1.324-0.908-2.691-0.356-3.9c0.153-0.335,0.399-0.62,0.559-0.952c0.494-1.026,0.076-2.229-0.075-3.358
				C238.911,186.833,240.833,183.847,240.833,183.847z"/>
		</g>
		<g>
			<g>
				<g>
					<g>
						<path fill="#B94A5B" d="M506.122,272.383c-5.141,15.452-6.184,31.922-7.187,48.176c-0.209,3.386-0.418,6.771-0.626,10.157
							c-0.088,1.415-0.174,2.848,0.096,4.239c0.267,1.372,0.869,2.651,1.337,3.968c1.72,4.834,1.615,10.1,1.491,15.229
							c-0.244,10.024-0.49,20.078-1.929,30.003c-0.425,2.926-0.952,5.837-1.582,8.726c-0.174,0.8-0.344,1.686,0.063,2.395
							c0.411,0.718,1.275,1.017,2.066,1.259c2.537,0.778,5.075,1.557,7.613,2.334c2.303,0.706,5.29,1.204,6.698-0.749
							c2.22-3.077-2.621-7.498-0.925-10.892c0.362-0.726,0.991-1.289,1.364-2.01c0.367-0.709,0.464-1.522,0.555-2.316
							c0.767-6.692,1.532-13.386,2.298-20.078c0.581-5.075,1.163-10.188,0.761-15.281c-0.236-2.993-0.812-5.96-0.86-8.962
							c-0.141-8.609,4.004-16.634,7.987-24.268c1.864-3.572,3.737-7.213,4.51-11.167c0.843-4.316,0.327-8.769-0.19-13.136
							c-0.718-6.061-1.437-12.121-2.154-18.182c-0.24-2.023-0.501-4.112-1.521-5.877c-2.307-3.993-8.089-5.296-12.396-4.952
							C508.287,261.422,507.577,268.01,506.122,272.383z"/>
						<path fill="#E8605C" d="M516.234,278.425c1.642,5.34,4.354,10.277,6.481,15.442c3.975,9.647,5.872,19.996,8.059,30.199
							c0.893,4.168,1.843,8.342,3.381,12.317c1.443,3.729,3.396,7.263,4.594,11.078c1.517,4.836,1.771,9.972,1.771,15.04
							c-0.001,11.395-1.238,22.789-3.685,33.918c4.891,1.197,9.782,2.394,14.674,3.59c-1.477-5.311-0.314-10.943,0.525-16.391
							c1.699-11.026,2.037-22.211,2.372-33.363c0.067-2.229,0.133-4.478-0.249-6.676c-0.657-3.785-2.605-7.229-3.521-10.96
							c-0.98-4.003-0.742-8.19-0.498-12.304c0.402-6.764,0.806-13.527,1.207-20.292c0.137-2.296,0.276-4.612,0.893-6.829
							c0.592-2.126,1.607-4.108,2.319-6.198c1.752-5.14,1.606-10.723,1.108-16.13c-0.121-1.32-0.289-2.711-1.086-3.77
							c-0.969-1.288-2.635-1.796-4.188-2.229c-8.726-2.429-17.84-4.921-26.985-4.103c-3.985,0.356-6.694,0.416-8.019,4.304
							C513.992,269.17,515.003,274.425,516.234,278.425z"/>
						<path fill="#F8F8DC" d="M514.869,406.893c-0.107,1.037-0.975,1.864-1.948,2.237c-0.975,0.374-2.045,0.38-3.088,0.38
							c-1.489-0.006-2.979-0.006-4.469-0.006c-3.869-0.006-7.737-0.011-11.601,0.25c-6.86,0.464-13.991,1.732-20.438-0.675
							c-0.283-0.107-0.566-0.221-0.793-0.419c-0.414-0.368-0.561-0.98-0.476-1.529c0.085-0.55,0.362-1.042,0.747-1.444
							c0.204-0.221,0.437-0.414,0.68-0.572c0.708-0.465,1.535-0.714,2.351-0.94c2.097-0.583,4.221-1.054,6.361-1.404
							c0.38-0.063,0.765-0.125,1.11-0.295c0.481-0.238,0.839-0.663,1.241-1.02c0.838-0.753,1.874-1.235,2.849-1.796
							c2.787-1.614,5.098-3.914,7.482-6.072c0.816-0.73,2.629-2.084,3.139-0.526c0.209,0.646,0.028,1.104,0.521,1.683
							c0.516,0.611,1.388,0.979,2.107,1.279c2.799,1.161,5.653,2.34,8.673,2.589c1.552,0.125,3.109,0,4.655-0.124
							c-0.09,2.096-0.17,4.236,0.448,6.236c0.102,0.328,0.215,0.657,0.306,0.985C514.84,406.1,514.914,406.491,514.869,406.893z"/>
						<path fill="#65BDA5" d="M514.869,406.893c-0.107,1.037-0.975,1.864-1.948,2.237c-0.975,0.374-2.045,0.38-3.088,0.38
							c-1.489-0.006-2.979-0.006-4.469-0.006c-3.869-0.006-7.737-0.011-11.601,0.25c-6.86,0.464-13.991,1.732-20.438-0.675
							c-0.283-0.107-0.566-0.221-0.793-0.419c-0.414-0.368-0.561-0.98-0.476-1.529c0.085-0.55,0.362-1.042,0.747-1.444
							c0.131,0.634-0.249,1.28,0.703,1.823c0.702,0.402,1.552,0.402,2.355,0.397c10.599-0.114,21.191-0.228,31.783-0.34
							c1.411-0.018,2.838-0.034,4.203-0.408c1.009-0.277,1.96-0.748,2.793-1.382c0.028-0.023,0.057-0.04,0.085-0.068
							C514.84,406.1,514.914,406.491,514.869,406.893z"/>
						<path fill="#F8F8DC" d="M551.863,408.088c-0.028,0.471-0.136,0.957-0.447,1.309c-0.215,0.249-0.51,0.408-0.799,0.566
							c-1.416,0.765-2.832,1.529-4.242,2.294c-1.383,0.748-2.775,1.501-4.282,1.954c-1.043,0.312-2.125,0.471-3.201,0.629
							c-2.175,0.323-4.355,0.651-6.554,0.629c-2.311-0.022-4.616-0.431-6.797-1.206c-0.402-0.142-0.844-0.34-1.014-0.737
							c-0.131-0.294-0.068-0.64,0.011-0.951c0.103-0.385,0.227-0.759,0.38-1.121c0.487-1.173,1.252-2.238,2.215-3.07
							c0.923-0.799,2.039-1.41,2.725-2.419c0.362-0.532,0.589-1.145,0.969-1.659c0.328-0.437,0.753-0.782,1.155-1.156
							c1.523-1.427,2.486-3.115,3.048-5.104c0.498-1.768,1.817-3.127,3.767-3.273c0.815-0.063,1.631,0.118,2.424,0.334
							c1.434,0.396,2.878,0.957,3.92,2.021c0.368,0.374,0.68,0.811,1.099,1.122c0.811,0.606,1.881,0.68,2.884,0.793
							c0.261,0.028,0.532,0.068,0.725,0.238c0.188,0.17,0.261,0.43,0.323,0.674c0.419,1.699,0.844,3.398,1.269,5.098
							c0.125,0.516,0.255,1.037,0.34,1.563C551.857,407.103,551.897,407.596,551.863,408.088z"/>
						<path fill="#65BDA5" d="M551.863,408.088c-0.028,0.471-0.136,0.957-0.447,1.309c-0.215,0.249-0.51,0.408-0.799,0.566
							c-1.416,0.765-2.832,1.529-4.242,2.294c-1.383,0.748-2.775,1.501-4.282,1.954c-1.043,0.312-2.125,0.471-3.201,0.629
							c-2.175,0.323-4.355,0.651-6.554,0.629c-2.311-0.022-4.616-0.431-6.797-1.206c-0.402-0.142-0.844-0.34-1.014-0.737
							c-0.131-0.294-0.068-0.64,0.011-0.951c0.103-0.385,0.227-0.759,0.38-1.121c0.176,0.062,0.34,0.13,0.504,0.187
							c1.235,0.447,2.396,0.753,3.704,0.884c3.025,0.3,6.072,0.601,9.104,0.368c3.03-0.238,6.083-1.037,8.581-2.771
							c1.66-1.155,3.161-2.741,4.968-3.506C551.857,407.103,551.897,407.596,551.863,408.088z"/>
					</g>
					<g>
						<path fill="#F29D7E" d="M498.15,212.458c-2.159,1.14-4.372,2.183-6.482,3.411c-6.11,3.556-11.565,8.738-18.511,10.061
							c-2.037,0.388-4.231,0.401-6.089-0.52c-1.233-0.612-2.307-1.624-3.665-1.852c-3.48-0.584-1.712,2.641-2.155,3.998
							c-0.71,2.173-3.15,2.913-4.054,4.887c-1.117,2.441,0.722,5.236,2.622,6.754c1.512,1.207,3.558,1.808,5.438,1.352
							c3.785-0.918,6.967-4.045,10.883-5.158c4.186-1.188,8.521-1.706,12.748-2.714c7.14-1.703,14.29-3.409,21.263-5.702
							c2.806-0.923,5.624-1.963,7.998-3.72c1.516-1.123,2.813-2.509,4.1-3.888s2.574-2.758,3.861-4.137
							c0.231-0.248,0.478-0.531,0.479-0.871c0.001-0.383-0.309-0.687-0.597-0.94c-2.833-2.49-5.8-4.829-8.883-7.002
							c-3.282-2.314-5.178-3.045-8.352-0.652C505.417,208.281,501.844,210.508,498.15,212.458z"/>
						<path fill="#FFBDA9" d="M487.203,177.3c-1.974-3.539-4.813-6.928-8.722-7.995c-1.134-0.31-2.674-0.208-3.068,0.899
							c-0.307,0.86,0.32,1.778,1.043,2.337c0.722,0.559,1.595,0.968,2.108,1.724c0.084,0.124,0.158,0.262,0.166,0.411
							c0.015,0.298-0.231,0.537-0.458,0.731c-1.34,1.152-2.739,2.379-3.323,4.047c-1.077,3.076,0.962,6.291,2.896,8.913
							c0.883,1.196,1.836,2.449,3.214,3.006c1.129,0.458,2.422,0.391,3.539,0.876c1.092,0.474,1.899,1.422,2.6,2.386
							c2.075,2.857,3.552,6.103,5.496,9.051c2.709,4.107,6.287,7.574,10.079,10.709c6.35,5.25,13.826,9.813,22.06,10.122
							c7.584,0.284,14.778-3.055,21.63-6.319c0.609-0.29,1.241-0.598,1.655-1.131c0.292-0.376,0.452-0.836,0.595-1.291
							c1.084-3.452,1.438-7.227,0.358-10.681c-1.079-3.453-3.75-6.516-7.237-7.478c-4.804-1.325-9.658,1.388-14.39,2.952
							c-3.571,1.18-7.382,1.722-11.12,1.302c-5.124-0.575-9.82-2.925-13.966-5.897c-3.908-2.802-8.554-6.254-10.977-10.458
							C489.846,182.853,488.701,179.985,487.203,177.3z"/>
						<path fill="#E4F3F7" d="M511.447,200.566c3.159,1.104,6.182,2.596,8.979,4.434c0.493,0.324,1.006,0.669,1.592,0.735
							c0.702,0.08,1.377-0.252,2.006-0.574c3.991-2.045,7.983-4.091,11.975-6.137c0.693-0.354,1.427-0.719,2.204-0.681
							c0.624,0.03,1.206,0.319,1.747,0.632c5.358,3.097,8.721,9.354,8.347,15.53c-0.041,0.676-0.133,1.378-0.509,1.941
							c-0.573,0.857-1.651,1.189-2.646,1.463c-5.396,1.487-10.795,2.974-16.191,4.46c-1.694,0.467-3.457,0.937-5.188,0.635
							c-1.713-0.3-3.322-1.346-5.05-1.149c-1.33,3.563-2.478,7.195-3.436,10.875c-0.284,1.09-0.553,2.199-0.545,3.326
							c0.008,1.145,0.301,2.268,0.392,3.409c0.663,8.275-8.979,14.481-8.934,22.783c12.501,2.004,25.292,1.519,37.813,3.396
							c4.65,0.697,9.406,1.787,13.194,4.575c-1.262-3.727-0.755-7.792-0.218-11.689c1.495-10.851,3.13-21.742,6.49-32.167
							c1.854-5.752,4.229-11.345,5.682-17.212c1.452-5.867,1.942-12.158,0.015-17.887s-6.633-10.768-12.578-11.853
							c-7.253-1.324-13.374,3.132-19.986,5.146c-3.505,1.067-6.969,1.572-10.03,3.723c-2.583,1.814-4.698,4.194-6.926,6.407
							C518.409,195.916,513.467,201.272,511.447,200.566z"/>
					</g>
					<g>
						<path fill="#F29D7E" d="M539.152,185.915c-0.441,1.213-1.031,2.373-1.388,3.613c-0.16,0.555-0.154,1.338,0.4,1.499
							c0.363,0.105,0.723-0.153,1.019-0.39c6.186-4.976,13.842-7.683,21.336-10.302c-1.98-1.037-2.754-3.427-3.346-5.583
							c-0.519-1.885-1.039-3.787-1.145-5.739c-0.047-0.862-0.012-1.732-0.162-2.583c-0.144-0.817-0.454-1.595-0.763-2.365
							c-0.13-0.325-0.274-0.668-0.559-0.873c-0.248-0.179-0.566-0.225-0.872-0.231c-1.494-0.034-2.883,0.721-4.154,1.506
							c-2.229,1.377-4.357,2.917-6.362,4.605c-2.147,1.808-4.295,4.075-3.65,7.033C540.231,179.431,540.336,182.661,539.152,185.915
							z"/>
						<path fill="#FFBDA9" d="M525.416,163.448c-0.252,1.813-1.586,3.545-1.08,5.305c0.624,0.001,1.247,0.003,1.87,0.005
							c0.651,1.142,1.302,2.284,1.953,3.427c0.602,1.055,1.9,2.254,2.804,1.442c-0.852,1.529,0.244,3.553,1.815,4.324
							s3.416,0.64,5.159,0.491c0.58-0.049,1.197-0.113,1.651-0.476c0.438-0.351,0.639-0.911,0.841-1.434
							c2.153-5.562,6.904-10.054,12.577-11.893c0.356-0.116,0.767-0.268,0.883-0.625c0.084-0.259-0.021-0.538-0.126-0.79
							c-0.593-1.437-1.186-2.873-1.778-4.31c-0.713-1.727-1.782-3.725-3.646-3.852c0.478-1.599-0.807-3.238-2.292-4.001
							c-1.484-0.763-3.197-0.982-4.701-1.706c-1.861-0.896-3.271-2.493-4.821-3.858c-4.155-3.659-9.685-2.469-11.896,2.779
							c-0.721,1.711-0.58,3.786-0.595,5.602C524.008,157.066,525.843,160.372,525.416,163.448z"/>
						<path fill="#1B4E61" d="M518.056,145.917c0.142,2.204,1.847,4.317,4.04,4.574c3.099,0.362,5.581-2.693,8.662-3.188
							c0.47-0.076,0.979-0.083,1.393,0.153c0.372,0.212,0.616,0.592,0.798,0.979c1.006,2.143,0.521,4.84,1.839,6.807
							c0.588,0.879,1.493,1.532,1.97,2.475c0.472,0.935,0.472,2.054,0.954,2.983c0.482,0.929,1.882,1.539,2.545,0.729
							c-0.319-1.455-0.518-2.97-0.222-4.43c0.297-1.459,1.157-2.866,2.499-3.514c1.342-0.647,3.166-0.339,3.999,0.895
							c0.948,1.404,0.413,3.42,1.304,4.861c0.553,0.894,1.562,1.408,2.204,2.24c0.612,0.792,0.854,1.823,1.475,2.608
							c0.917,1.163,2.66,1.584,4.007,0.968c-0.149-1.908-0.3-3.824-0.148-5.731c0.221-2.793,1.08-5.493,1.611-8.244
							c0.532-2.751,0.718-5.69-0.36-8.277c-1.491-3.577-5.5-5.924-9.349-5.473c-0.005-1.086-0.743-2.068-1.671-2.631
							c-0.929-0.563-2.025-0.773-3.103-0.91c-5.133-0.65-10.43,0.224-15.12,2.393C523.641,137.916,517.744,141.04,518.056,145.917z"
							/>
					</g>
				</g>
			</g>
			<g>
				<rect x="450.91" y="242.265" fill="#EC7772" width="24.502" height="140.804"/>
				<path fill="#B94A5B" d="M475.412,242.265v-2.217c0-6.766-5.485-12.251-12.251-12.251l0,0c-6.767,0-12.251,5.485-12.251,12.251
					v2.217H475.412z"/>
				<rect x="450.91" y="242.265" fill="#DD5858" width="8.229" height="140.804"/>
				<rect x="459.139" y="242.265" fill="#F98A8A" width="8.042" height="140.804"/>
				<polygon fill="#CE422C" points="475.412,383.069 450.91,383.069 463.718,403.652 				"/>
				<rect x="450.91" y="242.265" fill="#FDD17A" width="24.502" height="3.413"/>
			</g>
		</g>
		<g>
			<g>
				<path fill="#0F0F23" d="M425.521,385.831c1.604,0.18,3.226,0.005,4.832-0.169c1.772-0.192,3.546-0.386,5.319-0.578
					c0.856-0.093,1.741-0.184,2.564,0.069s1.577,0.943,1.623,1.804c0.063,1.154-1.07,1.979-2.091,2.522
					c-4.224,2.247-9.056,3.714-13.783,2.989c-2.141-0.328-4.35-1.21-5.532-3.023c-0.906-1.391-1.124-4.616,0.773-5.438
					c1.012-0.438,1.843,0.366,2.724,0.788C423.075,385.333,424.281,385.691,425.521,385.831z"/>
				<path fill="#1C1C38" d="M429.784,389.159c3.116,0.07,6.281,0.135,9.292-0.669c1.26-0.336,2.49-0.823,3.787-0.946
					c1.298-0.122,2.729,0.193,3.56,1.197c0.891,1.076,0.86,2.695,0.271,3.962c-0.589,1.268-1.64,2.252-2.7,3.162
					c-5.773,4.962-12.856,8.803-20.461,9.162c-2.075,0.099-4.206-0.056-6.181,0.587c-2.261,0.735-4.406,2.504-6.722,1.968
					c-0.808-0.187-1.522-0.644-2.22-1.093c-0.445-0.287-0.927-0.623-1.05-1.138c-0.138-0.572,0.216-1.133,0.53-1.63
					c1.704-2.689,2.705-5.754,3.644-8.796c0.554-1.797,1.104-3.623,2.108-5.212c0.745-1.178,1.813-2.305,3.113-2.863
					c1.504-0.646,2.299,0.382,3.687,0.949C423.383,389,426.652,389.087,429.784,389.159z"/>
				<path fill="#165260" d="M394.924,370.869c2.091,1.171,4.2,2.317,6.39,3.295c6.383,2.851,13.493,4.3,19.13,8.435
					c-0.851,1.759-1.701,3.519-2.552,5.278c-0.566,1.173-1.266,2.462-2.514,2.835c-1.01,0.302-2.081-0.096-3.06-0.488
					c-6.888-2.76-13.775-5.521-20.663-8.281c-14.233-5.704-28.476-11.412-42.335-17.973c-1.958-0.927-3.95-1.9-5.467-3.447
					c-1.517-1.546-2.491-3.801-1.957-5.899c0.768-3.017,4.099-4.486,7.03-5.536c1.573-0.563,2.78-1.304,4.37-0.917
					c1.558,0.379,3.171,1.349,4.626,2.018c3.109,1.429,6.162,2.977,9.176,4.596c6.098,3.276,12.03,6.849,17.984,10.377
					C388.345,367.092,391.618,369.01,394.924,370.869z"/>
				<path fill="#1A5A6B" d="M408.712,405.377c-1.005,1.597-5.643-2.825-7.269-3.426c-4.841-1.789-9.708-4.206-14.861-6.323
					c-10.374-4.261-20.747-8.521-31.12-12.782c-2.89-1.188-5.894-2.396-9.016-2.262c-3.507,0.149-6.695,1.968-9.726,3.737
					c-9.283,5.421-18.565,10.842-27.848,16.262c-4.457,2.603-8.97,5.229-13.926,6.668c-3.509,1.019-7.164,1.418-10.801,1.752
					c-3.535,0.325-7.186,0.58-10.558-0.528c-3.912-1.286-7.003-4.253-9.95-7.13c-0.713-0.696-1.472-1.484-1.55-2.478
					c-0.055-0.701,0.244-1.377,0.544-2.014c1.915-4.058,4.141-7.968,6.653-11.685c0.981-1.452,2.021-2.891,3.357-4.024
					c1.666-1.413,3.712-2.285,5.725-3.137c6.997-2.961,13.075-7.481,20.289-9.865c11.313-3.738,24.176-4.542,34.479-10.526
					c3.686-2.142,7.454-4.821,11.712-4.626c2.884,0.132,5.519,1.589,8.032,3.01c9.306,5.258,18.611,10.517,27.917,15.775
					c5.685,3.213,11.517,6.479,17.954,7.574c4.312,0.733,11.083,3.753,16.459,5.574
					C420.207,386.617,411.199,401.427,408.712,405.377z"/>
			</g>
			<g>
				<path fill="#F39E81" d="M295.144,352.11c0.083,0.994,0.199,2.037,0.767,2.857c0.817,1.181,2.357,1.607,3.786,1.743
					c2.536,0.242,5.084-0.159,7.601-0.56c-0.576,1.665-2.002,2.879-3.444,3.891c-2.027,1.421-4.245,2.628-6.653,3.201
					c-1.9,0.452-4.11,0.425-5.557-0.888c-0.759-0.689-1.211-1.647-1.619-2.589c-2.782-6.427-4.427-13.55-3.284-20.459
					c0.342-2.069,0.988-4.195,2.484-5.664c1.453-1.426,5.979-2.627,6.105,0.489c0.074,1.812-0.327,3.735-0.413,5.555
					c-0.091,1.939-0.123,3.881-0.096,5.822C294.853,347.712,294.96,349.915,295.144,352.11z"/>
				<path fill="#F39E81" d="M317.335,352.998c1.097-0.752,2.317-1.396,3.642-1.526c1.742-0.173,3.533,0.552,5.224,0.101
					c0.577-0.154,1.119-0.441,1.709-0.527c0.959-0.14,1.904,0.265,2.788,0.66c0.193,0.087,0.404,0.19,0.483,0.386
					c0.146,0.357-0.229,0.698-0.558,0.901c-4.079,2.512-8.513,4.444-13.129,5.722c-1.428,0.396-3.277-0.266-3.414-1.995
					C313.956,355.136,316.22,353.76,317.335,352.998z"/>
				<path fill="#FDD17A" d="M273.876,380.425c-2.306,3.701-4.619,7.411-7.323,10.832c-1.251,1.582-2.603,3.132-3.387,4.991
					c-0.531,1.259-0.989,2.836-2.307,3.194c-0.732,0.198-1.506-0.073-2.192-0.398c-1.711-0.81-3.252-1.977-4.496-3.404
					c-0.875-1.004-1.6-2.13-2.461-3.146c-0.93-1.097-2.017-2.064-2.836-3.247c-0.857-1.237-1.39-2.667-1.846-4.102
					c-1.767-5.556-2.494-11.44-2.134-17.259c0.018-0.292,0.056-0.618,0.28-0.806c0.177-0.146,0.424-0.167,0.654-0.174
					c1.159-0.034,2.315,0.118,3.459,0.308c4.937,0.819,9.754,2.35,14.258,4.529c2.675,1.295,5.234,2.813,7.79,4.331
					c0.945,0.561,2.261,1.07,3.061,1.816C275.37,378.801,274.585,379.29,273.876,380.425z"/>
				<path fill="#F5B7A0" d="M243.864,369.521c0.48,3.845,1.263,8.087,4.348,10.431c2.544,1.933,5.985,2.041,9.18,2.068
					c3.386,0.029,6.792,0.058,10.135-0.477c3.213-0.514,6.324-1.541,9.35-2.739c9.491-3.761,18.216-9.21,27.516-13.423
					c6.048-2.74,12.41-4.998,17.929-8.635c0.742-0.488,0.446-1.645-0.437-1.734l-5.969-0.608c-1.044-0.106-2.097-0.214-3.143-0.127
					c-1.619,0.134-3.161,0.722-4.677,1.305c-2.089,0.802-4.182,1.606-6.169,2.635c-1.801,0.932-3.526,2.052-5.462,2.657
					c-1.452,0.455-2.978,0.606-4.493,0.744c-7.373,0.669-14.77,1.064-22.172,1.188c-1.129,0.019-2.294,0.024-3.337-0.41
					c-2.489-1.038-3.361-4.112-3.534-6.805c-0.204-3.166,0.122-6.356-0.206-9.514c-0.328-3.156-1.43-6.416-3.893-8.417
					c-2.093-1.701-4.938-2.274-7.624-2.026c-3.115,0.289-6.644,1.031-8.733,3.57c-2.006,2.437-0.826,3.256-0.859,6.728
					c-0.035,3.577,0.692,7.919,0.99,11.483C242.941,361.458,243.361,365.495,243.864,369.521z"/>
				<path fill="#FDD17A" d="M287.121,310.927c1.488,0.746,3.007,1.513,4.171,2.703c1.559,1.593,2.33,3.781,2.931,5.928
					c1.285,4.583,2.005,9.324,2.141,14.082c-1.484,0.26-2.969,0.521-4.453,0.78c-0.307,0.054-0.639,0.122-0.841,0.359
					c-0.181,0.214-0.211,0.514-0.23,0.793c-0.42,5.981,0.122,12.028,1.599,17.839c0.557,2.189,1.25,4.378,1.276,6.637
					c0.004,0.357-0.013,0.73-0.185,1.044c-0.425,0.771-1.497,0.798-2.377,0.797c-4.439-0.006-8.648,1.816-12.979,2.785
					c-4.562,1.021-9.333,1.093-13.923,0.209c-0.788-0.152-1.608-0.351-2.206-0.886c-0.826-0.739-1.032-1.933-1.183-3.031
					c-0.886-6.489-1.509-13.014-1.868-19.554c-0.021-0.399-0.057-0.834-0.33-1.127c-0.287-0.309-0.747-0.365-1.167-0.402
					c-2.876-0.255-5.805-0.506-8.627,0.105c-2.822,0.611-5.573,2.229-6.837,4.825c-0.248,0.51-0.708,1.164-1.213,0.906
					c-0.317-0.162-0.367-0.585-0.377-0.941c-0.073-2.647-0.146-5.295-0.218-7.942c-0.063-2.298-0.126-4.602,0.104-6.889
					c0.628-6.254,3.523-12.256,8.025-16.642c1.858-1.81,3.972-3.348,5.77-5.218c1.484-1.545,2.87-3.393,4.924-4.001
					c1.444-0.429,2.993-0.164,4.474,0.11c4.44,0.823,8.876,2.024,13.338,2.681C280.651,307.436,283.665,309.198,287.121,310.927z"/>
			</g>
			<g>
				<path fill="#F5B7A0" d="M280.918,269.717c0.252,0.488,0.409,1.021,0.651,1.515c0.521,1.062,1.43,1.907,2.477,2.458
					c0.71,0.374,1.494,0.627,2.124,1.124s1.083,1.351,0.802,2.102c-0.332,0.887-1.582,1.533-1.242,2.417
					c0.104,0.271,0.345,0.461,0.559,0.658c0.981,0.902,1.566,2.223,1.576,3.556c0.004,0.556-0.074,1.161,0.235,1.623
					c0.157,0.234,0.396,0.399,0.604,0.591c1.23,1.128,1.187,3.349-0.087,4.428c-0.771,0.653-1.814,0.866-2.812,1.025
					c-3.99,0.639-8.111,0.805-11.875,2.271c-1.015,0.395-2.083,0.893-3.146,0.659c-2.167-0.476-3.143-3.701-5.36-3.632
					c-0.761,0.024-1.445,0.465-2.191,0.619c-1.185,0.246-2.433-0.271-3.318-1.097c-0.885-0.826-1.46-1.927-1.939-3.039
					c-0.651-1.51-1.164-3.137-1.012-4.773c0.151-1.638,1.094-3.285,2.63-3.871c0.672-0.257,1.405-0.299,2.105-0.465
					c2.904-0.691,4.832-3.361,6.511-5.829c1.475-2.167,3.545-5.225,6.349-5.739C276.725,265.919,279.936,267.819,280.918,269.717z"
					/>
				<path fill="#F39E81" d="M282.064,294.391c-1.098,1.778-1.665,3.824-2.219,5.839c-0.815,2.965-1.635,5.953-1.855,9.021
					c-0.059,0.823-0.099,1.714-0.621,2.354c-0.664,0.811-1.907,0.913-2.894,0.561s-1.795-1.062-2.634-1.689
					c-3.92-2.929-8.782-4.215-13.375-5.903c-0.385-0.142-0.839-0.382-0.836-0.792c2.153-0.574,4.615-1.421,5.352-3.524
					c0.313-0.896,0.244-1.874,0.17-2.82c-0.182-2.34-0.363-4.681-0.545-7.021c-0.025-0.324-0.048-0.663,0.081-0.961
					c0.242-0.56,0.913-0.776,1.514-0.877c3.158-0.529,6.357,0.401,9.552,0.604c3.713,0.235,7.502-0.512,11.133,0.305
					c0.399,0.09,1.833,0.39,1.857,0.947c0.024,0.551-1.233,0.76-1.644,0.979C283.839,292.087,282.81,293.183,282.064,294.391z"/>
				<path fill="#E8605C" d="M274.297,258.27c2.245-0.491,4.746,0.898,5.514,3.064c0.232,0.653,0.318,1.349,0.392,2.039
					c0.117,1.093,0.206,2.214-0.067,3.279c-0.272,1.064-0.971,2.079-2.005,2.453c-0.679,0.245-1.481,0.218-2.033,0.684
					c-0.572,0.481-0.663,1.307-0.899,2.016c-0.525,1.576-2.003,2.791-3.651,3c-0.498,0.063-1.075,0.075-1.387,0.469
					c-0.209,0.265-0.23,0.624-0.291,0.955c-0.22,1.186-1.109,2.223-2.246,2.621c-0.583,0.204-1.213,0.249-1.792,0.463
					c-0.579,0.214-1.138,0.671-1.194,1.286c-0.072,0.799,0.683,1.388,1.262,1.943c0.579,0.555,1.021,1.57,0.405,2.085
					c-0.462,0.387-1.171,0.153-1.67-0.184c-0.5-0.337-0.992-0.781-1.595-0.785c-0.691-0.005-1.247,0.587-1.542,1.212
					c-0.604,1.282-0.45,2.89,0.389,4.033c0.274,0.374,0.618,0.706,0.799,1.134c0.427,1.007-0.123,2.349,0.607,3.164
					c0.308,0.344,0.803,0.523,1,0.94c0.232,0.491-0.052,1.091,0.105,1.611c0.121,0.399,0.476,0.674,0.752,0.987
					c1.143,1.298,0.78,3.607-0.707,4.491c-0.28,0.166-0.591,0.289-0.827,0.515c-0.229,0.22-0.365,0.518-0.564,0.765
					c-0.894,1.113-2.621,1.917-4.007,1.576c-1.691,2.006-5.231,0.952-6.906-1.067c-0.262-0.316-0.492-0.678-0.848-0.883
					c-0.237-0.137-0.512-0.19-0.775-0.266c-2.461-0.704-4.016-3.651-3.206-6.08c-2.484-0.853-4.159-3.296-4.781-5.848
					c-0.241-0.987-0.345-2.055,0.029-3c0.091-0.231,0.212-0.462,0.21-0.711c-0.003-0.33-0.222-0.614-0.418-0.88
					c-1.343-1.817-2.087-4.069-2.09-6.33c-0.001-0.974,0.143-1.979,0.648-2.812s1.433-1.459,2.405-1.392
					c0.121-1.725-0.572-3.471-0.204-5.16c0.511-2.351,3.338-3.889,5.589-3.04c-0.468-1.53-0.045-3.3,1.064-4.453
					c1.11-1.153,2.862-1.645,4.409-1.235c-0.054-0.991,0.752-1.868,1.683-2.213s1.958-0.272,2.946-0.172
					c0.092-1.426,1.004-2.769,2.295-3.38s2.908-0.467,4.069,0.364c-0.141-0.101,2.191-0.935,2.469-0.944
					c0.821-0.028,1.75,0.143,2.568,0.261C272.313,255.153,273.351,256.468,274.297,258.27z"/>
			</g>
			<polygon fill="#0B3A47" points="372.008,306.517 350.885,309.662 330.931,351.448 353.493,345.086 			"/>
			<polygon fill="#547989" points="353.493,345.086 353.715,348.493 298.968,372.917 296.641,369.171 330.777,352.727 
				330.931,351.448 			"/>
		</g>
	</g>
</g>
<g id="DESIGNED_BY_FREEPIK">
</g>
</svg>
