<?xml version="1.0" encoding="utf-8"?>
<!-- Generator: Adobe Illustrator 16.0.0, SVG Export Plug-In . SVG Version: 6.00 Build 0)  -->
<!DOCTYPE svg PUBLIC "-//W3C//DTD SVG 1.1//EN" "http://www.w3.org/Graphics/SVG/1.1/DTD/svg11.dtd">
<svg version="1.1" id="Layer_1" xmlns="http://www.w3.org/2000/svg" xmlns:xlink="http://www.w3.org/1999/xlink" x="0px" y="0px"
	 width="566.93px" height="566.93px" viewBox="0 0 566.93 566.93" enable-background="new 0 0 566.93 566.93" xml:space="preserve">
<g>
	<path d="M27.423,403.174V163.75c0-72.233,60.266-131.33,133.938-131.33h244.19c73.671,0,133.955,59.097,133.955,131.33v239.423
		c0,72.235-60.284,131.34-133.955,131.34h-244.19C87.689,534.514,27.423,475.409,27.423,403.174z"/>
	<g>
		<path fill="#FFFFFF" d="M362.936,185.842c-9.714,0-17.598,7.73-17.598,17.253c0,9.532,7.884,17.262,17.598,17.262
			c9.729,0,17.614-7.73,17.614-17.262C380.55,193.572,372.665,185.842,362.936,185.842z"/>
		<path fill="#FFFFFF" d="M284.696,207.976c-40.769,0-73.929,32.512-73.929,72.485c0,39.974,33.16,72.495,73.929,72.495
			c40.77,0,73.93-32.521,73.93-72.495C358.626,240.488,325.466,207.976,284.696,207.976z M284.696,326.898
			c-26.114,0-47.353-20.833-47.353-46.438c0-25.603,21.239-46.428,47.353-46.428c26.115,0,47.354,20.825,47.354,46.428
			C332.051,306.065,310.812,326.898,284.696,326.898z"/>
		<path fill="#FFFFFF" d="M343.389,427.637H223.525c-49.714,0-90.176-39.664-90.176-88.415V221.699
			c0-48.752,40.461-88.415,90.176-88.415h119.864c49.73,0,90.176,39.663,90.176,88.415v117.522
			C433.564,387.973,393.119,427.637,343.389,427.637z M223.525,160.976c-34.152,0-61.924,27.239-61.924,60.724v117.522
			c0,33.485,27.772,60.724,61.924,60.724h119.864c34.151,0,61.941-27.238,61.941-60.724V221.699
			c0-33.485-27.79-60.724-61.941-60.724H223.525z"/>
	</g>
</g>
</svg>
