<?xml version="1.0" encoding="utf-8"?>
<!-- Generator: Adobe Illustrator 16.0.0, SVG Export Plug-In . SVG Version: 6.00 Build 0)  -->
<!DOCTYPE svg PUBLIC "-//W3C//DTD SVG 1.1//EN" "http://www.w3.org/Graphics/SVG/1.1/DTD/svg11.dtd">
<svg version="1.1" id="Layer_1" xmlns="http://www.w3.org/2000/svg" xmlns:xlink="http://www.w3.org/1999/xlink" x="0px" y="0px"
	 width="566.929px" height="566.929px" viewBox="0 0 566.929 566.929" enable-background="new 0 0 566.929 566.929"
	 xml:space="preserve">
<g>
	<g>
		<path fill="#FFFFFF" d="M526.482,352.69c-30.091,0-60.182,0-90.271,0c-63.01,0-126.02,0-189.029,0c-55.036,0-110.071,0-165.107,0
			c-12.186,0-24.372,0-36.557,0c-7.672,0-7.672,11.897,0,11.897c30.091,0,60.181,0,90.272,0c63.01,0,126.019,0,189.029,0
			c55.036,0,110.071,0,165.106,0c12.187,0,24.372,0,36.558,0C534.154,364.588,534.154,352.69,526.482,352.69L526.482,352.69z"/>
	</g>
</g>
<circle fill="#FFCCCC" cx="280.118" cy="294.118" r="255.118"/>
<g>
	<g>
		<path fill="#FFFFFF" d="M528.314,370.704c-29.433,0-58.865,0-88.298,0c-62.55,0-125.101,0-187.65,0c-57.047,0-114.094,0-171.14,0
			c-15.984,0-31.969,0-47.954,0c-7.784,0-7.784,12.07,0,12.07c29.433,0,58.865,0,88.298,0c62.55,0,125.1,0,187.65,0
			c57.047,0,114.094,0,171.141,0c15.984,0,31.969,0,47.953,0C536.099,382.774,536.099,370.704,528.314,370.704L528.314,370.704z"/>
	</g>
</g>
<g>
	<g>
		<path fill="#FFFFFF" d="M408.001,239.265c-45.803,0-91.605,0-137.408,0c-37.486,0-74.973,0-112.459,0
			c-7.672,0-7.672,11.897,0,11.897c45.803,0,91.605,0,137.408,0c37.486,0,74.973,0,112.459,0
			C415.673,251.163,415.673,239.265,408.001,239.265L408.001,239.265z"/>
	</g>
</g>
<g>
	<g>
		<path fill="#FFFFFF" d="M505.078,326.192c-32.131,0-64.263,0-96.394,0c-64.04,0-128.08,0-192.12,0c-47.418,0-94.836,0-142.255,0
			c-3.738,0-7.476,0-11.214,0c-7.61,0-7.61,11.801,0,11.801c32.131,0,64.262,0,96.394,0c64.04,0,128.08,0,192.12,0
			c47.418,0,94.837,0,142.255,0c3.738,0,7.476,0,11.214,0C512.688,337.993,512.688,326.192,505.078,326.192L505.078,326.192z"/>
	</g>
</g>
<g>
	<g>
		<path fill="#FFFFFF" d="M511.761,327.894c-31.284-27.198-62.568-54.396-93.854-81.594
			c-41.658-36.217-83.316-72.433-124.975-108.65c-2.87-2.496-5.741-4.991-8.611-7.487c-5.761-5.009-14.213,3.37-8.413,8.413
			c31.285,27.198,62.569,54.396,93.854,81.594c41.658,36.217,83.316,72.433,124.976,108.65c2.87,2.496,5.74,4.991,8.611,7.487
			C509.109,341.316,517.562,332.937,511.761,327.894L511.761,327.894z"/>
	</g>
</g>
<g>
	<g>
		<path fill="#FFFFFF" d="M276.24,130.158c-31.184,28.292-62.368,56.585-93.551,84.877c-39.495,35.833-78.99,71.666-118.485,107.499
			c-1.762,1.599-3.524,3.197-5.286,4.796c-5.693,5.166,2.746,13.554,8.413,8.413c31.184-28.292,62.368-56.585,93.551-84.877
			c39.495-35.833,78.99-71.666,118.485-107.499c1.762-1.599,3.524-3.197,5.286-4.796
			C290.346,133.405,281.906,125.017,276.24,130.158L276.24,130.158z"/>
	</g>
</g>
<g>
	<g>
		<path fill="#FFFFFF" d="M221.275,188.686c18.18,20.638,36.359,41.277,54.538,61.916c2.072,2.353,6.584,2.432,8.643,0
			c18.183-21.487,36.366-42.975,54.549-64.462c5.058-5.977-3.544-14.667-8.643-8.643c-18.183,21.487-36.366,42.975-54.549,64.462
			c2.881,0,5.762,0,8.643,0c-18.18-20.638-36.359-41.277-54.538-61.916C224.698,174.118,216.088,182.796,221.275,188.686
			L221.275,188.686z"/>
	</g>
</g>
<g>
	<g>
		<path fill="#FFFFFF" d="M285.294,332.594c20.537-14.238,41.074-28.476,61.61-42.714c3.297-2.286,3.6-7.024,0-9.25
			c-21.846-13.506-43.691-27.012-65.537-40.518c-5.893-3.644-11.269,5.626-5.407,9.25c21.846,13.506,43.692,27.012,65.538,40.518
			c0-3.083,0-6.167,0-9.25c-20.537,14.238-41.074,28.476-61.611,42.714C274.253,327.25,279.601,336.542,285.294,332.594
			L285.294,332.594z"/>
	</g>
</g>
<g>
	<g>
		<path fill="#FFFFFF" d="M280.115,251.163c7.672,0,7.672-11.897,0-11.897S272.442,251.163,280.115,251.163L280.115,251.163z"/>
	</g>
</g>
<g>
	<g>
		<path fill="#FFFFFF" d="M273.599,245.214c0,28.959,0,57.919,0,86.879c0,7.672,11.898,7.672,11.898,0c0-28.959,0-57.919,0-86.879
			C285.497,237.542,273.599,237.542,273.599,245.214L273.599,245.214z"/>
	</g>
</g>
<g>
	<g>
		<path fill="#FFFFFF" d="M254.83,246.421c0,28.557,0,57.115,0,85.672c0,7.672,11.897,7.672,11.897,0c0-28.557,0-57.115,0-85.672
			C266.728,238.749,254.83,238.749,254.83,246.421L254.83,246.421z"/>
	</g>
</g>
<g>
	<g>
		<path fill="#FFFFFF" d="M236.061,246.421c0,28.557,0,57.115,0,85.672c0,7.672,11.897,7.672,11.897,0c0-28.557,0-57.115,0-85.672
			C247.958,238.749,236.061,238.749,236.061,246.421L236.061,246.421z"/>
	</g>
</g>
</svg>
