<?xml version="1.0" encoding="utf-8"?>
<!-- Generator: Adobe Illustrator 16.0.0, SVG Export Plug-In . SVG Version: 6.00 Build 0)  -->
<!DOCTYPE svg PUBLIC "-//W3C//DTD SVG 1.1//EN" "http://www.w3.org/Graphics/SVG/1.1/DTD/svg11.dtd">
<svg version="1.1" xmlns="http://www.w3.org/2000/svg" xmlns:xlink="http://www.w3.org/1999/xlink" x="0px" y="0px" width="793.7px"
	 height="595.28px" viewBox="0 0 793.7 595.28" enable-background="new 0 0 793.7 595.28" xml:space="preserve">
<g id="Layer_2">
</g>
<g id="Layer_1">
	<g>
		<defs>
			<rect id="SVGID_223_" x="0.7" y="-5" width="791" height="602"/>
		</defs>
		<clipPath id="SVGID_2_">
			<use xlink:href="#SVGID_223_"  overflow="visible"/>
		</clipPath>
		<g clip-path="url(#SVGID_2_)">
			<defs>
				<rect id="SVGID_225_" x="-43.337" y="-22.386" width="932.178" height="621.453"/>
			</defs>
			<clipPath id="SVGID_4_">
				<use xlink:href="#SVGID_225_"  overflow="visible"/>
			</clipPath>
			<g clip-path="url(#SVGID_4_)">
				<g>
					<g>
						
							<radialGradient id="SVGID_5_" cx="-281.7822" cy="843.749" r="973.5818" gradientTransform="matrix(1.5 0 0 1 200.4409 0)" gradientUnits="userSpaceOnUse">
							<stop  offset="0" style="stop-color:#FFAB67"/>
							<stop  offset="0.0219" style="stop-color:#FC946B"/>
							<stop  offset="0.1005" style="stop-color:#F1477A"/>
							<stop  offset="0.1367" style="stop-color:#ED2980"/>
							<stop  offset="0.2305" style="stop-color:#DF287E"/>
							<stop  offset="0.4076" style="stop-color:#BA257A"/>
							<stop  offset="0.6496" style="stop-color:#7F2174"/>
							<stop  offset="0.9442" style="stop-color:#2D1A6B"/>
							<stop  offset="1" style="stop-color:#1D1969"/>
						</radialGradient>
						<rect x="-43.333" y="-22.386" fill="url(#SVGID_5_)" width="932.174" height="621.453"/>
						<g>
							<g>
								<path opacity="0.16" fill="#FFFFFF" d="M577.552,434.428c-151.422-31.643-302.548-65.875-462.32-85.979
									c-59.645-7.505-121.94-12.999-176.394-10.155c-3.58,0.187-7.215,0.424-9.809,1.131c-3.803,1.038-4.77,2.904-5.52,4.681
									c-6.824,16.156-8.671,33-5.508,50.225c61.197-17.744,163.226-16.08,258.562-7.602
									c221.654,19.711,431.166,70.539,638.753,115.545c29.221,6.334,59.334,12.699,90.542,15.631
									c7.587,0.715,16.409,1.092,20.081-0.701c2.366-1.154,1.83-2.896,1.089-4.529c-4.245-9.338-14.258-26.346-36.829-34.725
									c-19.236-7.141-59.544-5.053-82.455-6.789C728.817,465.174,651.095,449.795,577.552,434.428z"/>
								<path opacity="0.16" fill="#FFFFFF" d="M-43.868,49.512c44.927,11.954,94.794,11.929,142.3,6.719
									c47.506-5.208,93.557-15.37,140.282-23.298C434.694-0.32,648.648,7.373,828.952,70.387
									c28.304,9.892,57.38,22.351,70.304,42.496c4.307-22.654,11.023-45.086,20.076-67.05
									c-16.605,0.545-32.745-3.418-48.485-7.144C771.183,15.096,667.11-1.139,561.86-1.973
									C407.713-3.195,256.339,28.48,102.212,30.567c-28.126,0.38-56.519-0.249-83.877-4.813
									C-8.847,21.22-34.367,12.915-60.003,5.157c-6.025-1.823-12.362-3.656-18.914-3.32
									c-16.978,0.872-25.534,16.352-19.611,27.474c5.923,11.123,20.802,18.498,34.872,25.175
									C-58.234,50.937-51.289,49.875-43.868,49.512z"/>
							</g>
							<g>
								<circle fill="#FFFFFF" cx="453.238" cy="479.748" r="1.243"/>
								<circle fill="#FFFFFF" cx="469.188" cy="474.568" r="0.621"/>
								<rect x="484.311" y="461.934" fill="#FFFFFF" width="0" height="0"/>
								<circle fill="#FFFFFF" cx="391.767" cy="501.654" r="1.398"/>
								<circle fill="#FFFFFF" cx="410.721" cy="501.654" r="1.398"/>
								<rect x="362.403" y="451.471" fill="#FFFFFF" width="0" height="0"/>
								<circle fill="#FFFFFF" cx="386.898" cy="462.502" r="0.569"/>
								<circle fill="#FFFFFF" cx="333.868" cy="473.273" r="1.916"/>
								<circle fill="#FFFFFF" cx="357.276" cy="451.316" r="2.02"/>
								<circle fill="#FFFFFF" cx="320.844" cy="430.42" r="1.01"/>
								<circle fill="#FFFFFF" cx="306.706" cy="455.744" r="0.854"/>
								<circle fill="#FFFFFF" cx="329.233" cy="500.955" r="0.699"/>
								<circle fill="#FFFFFF" cx="229.793" cy="434.24" r="0.691"/>
								<circle fill="#FFFFFF" cx="270.972" cy="487.438" r="0.854"/>
								<circle fill="#FFFFFF" cx="186.499" cy="413.973" r="1.521"/>
								<circle fill="#FFFFFF" cx="155.623" cy="432.836" r="1.406"/>
								<circle fill="#FFFFFF" cx="412.818" cy="384.277" r="2.098"/>
								<circle fill="#FFFFFF" cx="446.92" cy="379.693" r="0.622"/>
								<circle fill="#FFFFFF" cx="332.418" cy="364.623" r="0.466"/>
								<circle fill="#FFFFFF" cx="352.149" cy="351.418" r="1.243"/>
								<circle fill="#FFFFFF" cx="232.675" cy="315.528" r="0.777"/>
								<circle fill="#FFFFFF" cx="267.565" cy="306.619" r="0.172"/>
								<circle fill="#FFFFFF" cx="175.162" cy="294.738" r="1.369"/>
								<circle fill="#FFFFFF" cx="204.696" cy="275.392" r="0.763"/>
								<circle fill="#FFFFFF" cx="447.231" cy="302.322" r="0.311"/>
								<ellipse fill="#FFFFFF" cx="473.798" cy="288.34" rx="2.641" ry="0"/>
								<circle fill="#FFFFFF" cx="511.714" cy="301.836" r="2.026"/>
								<circle fill="#FFFFFF" cx="532.308" cy="319.226" r="1.367"/>
								<circle fill="#FFFFFF" cx="461.292" cy="234.351" r="0.699"/>
								<circle fill="#FFFFFF" cx="443.503" cy="214.387" r="1.243"/>
								<circle fill="#FFFFFF" cx="471.385" cy="187.911" r="1.161"/>
								<circle fill="#FFFFFF" cx="495.234" cy="231.477" r="0.772"/>
								<circle fill="#FFFFFF" cx="505.648" cy="162.245" r="1.243"/>
								<circle fill="#FFFFFF" cx="523.319" cy="146.798" r="1.024"/>
								<circle fill="#FFFFFF" cx="427.884" cy="153.878" r="2.568"/>
								<circle fill="#FFFFFF" cx="446.144" cy="127.049" r="1.398"/>
								<circle fill="#FFFFFF" cx="482.513" cy="130.147" r="0.791"/>
								<circle fill="#FFFFFF" cx="329.548" cy="156.656" r="0.704"/>
								<circle fill="#FFFFFF" cx="352.771" cy="155.331" r="0.622"/>
								<circle fill="#FFFFFF" cx="319.436" cy="121.001" r="0.224"/>
								<circle fill="#FFFFFF" cx="258.401" cy="175.637" r="1.646"/>
								<circle fill="#FFFFFF" cx="174.442" cy="82.244" r="1.271"/>
								<circle fill="#FFFFFF" cx="247.81" cy="43.227" r="0.671"/>
								<circle fill="#FFFFFF" cx="189.005" cy="44.767" r="1.541"/>
								<circle fill="#FFFFFF" cx="25.109" cy="183.573" r="0.881"/>
								<circle fill="#FFFFFF" cx="43.649" cy="207.292" r="1.398"/>
								<circle fill="#FFFFFF" cx="1.857" cy="220.602" r="1.243"/>
								<circle fill="#FFFFFF" cx="435.372" cy="20.442" r="1.398"/>
								<circle fill="#FFFFFF" cx="471.364" cy="16.455" r="1.761"/>
								<circle fill="#FFFFFF" cx="381.254" cy="58.921" r="1.347"/>
								<circle fill="#FFFFFF" cx="538.896" cy="5.89" r="1.554"/>
								<circle fill="#FFFFFF" cx="123.471" cy="138.91" r="1.053"/>
								<rect x="124.524" y="67.601" fill="#FFFFFF" width="0" height="0"/>
								<circle fill="#FFFFFF" cx="143.082" cy="11.328" r="1.191"/>
								<circle fill="#FFFFFF" cx="347.333" cy="30.8" r="0.57"/>
								<circle fill="#FFFFFF" cx="461.266" cy="81.138" r="0.57"/>
								<circle fill="#FFFFFF" cx="524.983" cy="54.33" r="1.107"/>
								<circle fill="#FFFFFF" cx="551.635" cy="87.818" r="0.828"/>
								<circle fill="#FFFFFF" cx="479.538" cy="272.174" r="0.612"/>
								<circle fill="#FFFFFF" cx="385.189" cy="297.144" r="1.346"/>
								<circle fill="#FFFFFF" cx="318.85" cy="264.361" r="0.88"/>
								<circle fill="#FFFFFF" cx="253.131" cy="212.315" r="1.864"/>
								<circle fill="#FFFFFF" cx="238.32" cy="492.695" r="1.139"/>
								<rect x="318.176" y="532.156" fill="#FFFFFF" width="0" height="0"/>
								<circle fill="#FFFFFF" cx="291.661" cy="462.76" r="0.829"/>
								<circle fill="#FFFFFF" cx="168.303" cy="462.244" r="1.346"/>
								<circle fill="#FFFFFF" cx="148.313" cy="372.857" r="1.864"/>
								<circle fill="#FFFFFF" cx="185.739" cy="368.232" r="0.761"/>
								<circle fill="#FFFFFF" cx="415.174" cy="282.591" r="1.295"/>
								<circle fill="#FFFFFF" cx="315.75" cy="307.679" r="0.888"/>
								<circle fill="#FFFFFF" cx="301.265" cy="62.988" r="1.168"/>
								<circle fill="#FFFFFF" cx="385.583" cy="110.729" r="0.652"/>
								<rect x="781.043" y="72.901" fill="#FFFFFF" width="0" height="0"/>
								<circle fill="#FFFFFF" cx="752.508" cy="51.099" r="1.917"/>
								<circle fill="#FFFFFF" cx="775.916" cy="73.056" r="2.02"/>
								<circle fill="#FFFFFF" cx="739.483" cy="93.953" r="1.01"/>
								<circle fill="#FFFFFF" cx="725.346" cy="68.628" r="0.854"/>
								<circle fill="#FFFFFF" cx="747.873" cy="23.418" r="0.699"/>
								<circle fill="#FFFFFF" cx="648.433" cy="90.132" r="0.691"/>
								<circle fill="#FFFFFF" cx="689.612" cy="36.935" r="0.854"/>
								<circle fill="#FFFFFF" cx="605.14" cy="110.399" r="1.521"/>
								<circle fill="#FFFFFF" cx="574.263" cy="91.537" r="1.406"/>
								<circle fill="#FFFFFF" cx="751.058" cy="159.749" r="0.466"/>
								<circle fill="#FFFFFF" cx="770.789" cy="172.955" r="1.243"/>
								<circle fill="#FFFFFF" cx="651.315" cy="208.844" r="0.777"/>
								<circle fill="#FFFFFF" cx="686.207" cy="217.754" r="0.172"/>
								<circle fill="#FFFFFF" cx="593.802" cy="229.634" r="1.37"/>
								<circle fill="#FFFFFF" cx="623.336" cy="248.982" r="0.763"/>
								<circle fill="#FFFFFF" cx="685.263" cy="119.671" r="1.243"/>
								<circle fill="#FFFFFF" cx="702.935" cy="135.118" r="1.024"/>
								<circle fill="#FFFFFF" cx="662.128" cy="151.769" r="0.792"/>
								<circle fill="#FFFFFF" cx="748.188" cy="367.717" r="0.704"/>
								<circle fill="#FFFFFF" cx="771.411" cy="369.041" r="0.622"/>
								<circle fill="#FFFFFF" cx="738.076" cy="403.371" r="0.223"/>
								<circle fill="#FFFFFF" cx="677.042" cy="348.734" r="1.645"/>
								<circle fill="#FFFFFF" cx="593.083" cy="442.131" r="1.271"/>
								<circle fill="#FFFFFF" cx="666.45" cy="481.146" r="0.671"/>
								<circle fill="#FFFFFF" cx="607.646" cy="479.605" r="1.542"/>
								<circle fill="#FFFFFF" cx="443.751" cy="340.799" r="0.881"/>
								<circle fill="#FFFFFF" cx="462.291" cy="317.081" r="1.398"/>
								<circle fill="#FFFFFF" cx="575.704" cy="539.037" r="1.085"/>
								<path fill="#FFFFFF" d="M614.599,528.842c0-0.631-0.511-1.141-1.14-1.141s-1.14,0.51-1.14,1.141
									c0,0.627,0.511,1.137,1.14,1.137S614.599,529.469,614.599,528.842z"/>
								<ellipse fill="#FFFFFF" cx="633.242" cy="526.381" rx="1.243" ry="0"/>
								<circle fill="#FFFFFF" cx="667.108" cy="535.744" r="0.657"/>
								<circle fill="#FFFFFF" cx="718.511" cy="276.026" r="1.554"/>
								<circle fill="#FFFFFF" cx="542.113" cy="385.463" r="1.053"/>
								<rect x="543.166" y="456.773" fill="#FFFFFF" width="0" height="0"/>
								<circle fill="#FFFFFF" cx="561.723" cy="513.045" r="1.191"/>
								<circle fill="#FFFFFF" cx="765.974" cy="493.574" r="0.57"/>
								<circle fill="#FFFFFF" cx="704.599" cy="227.585" r="1.106"/>
								<circle fill="#FFFFFF" cx="731.251" cy="194.099" r="0.829"/>
								<circle fill="#FFFFFF" cx="737.49" cy="260.01" r="0.88"/>
								<circle fill="#FFFFFF" cx="671.772" cy="312.057" r="1.864"/>
								<circle fill="#FFFFFF" cx="656.96" cy="31.679" r="1.14"/>
								<circle fill="#FFFFFF" cx="710.301" cy="61.612" r="0.829"/>
								<circle fill="#FFFFFF" cx="586.943" cy="62.13" r="1.347"/>
								<circle fill="#FFFFFF" cx="566.953" cy="151.515" r="1.864"/>
								<circle fill="#FFFFFF" cx="604.379" cy="156.14" r="0.76"/>
								<circle fill="#FFFFFF" cx="734.391" cy="216.693" r="0.889"/>
								<circle fill="#FFFFFF" cx="719.906" cy="461.385" r="1.167"/>
								<circle fill="#FFFFFF" cx="571.899" cy="270.442" r="0.699"/>
								<circle fill="#FFFFFF" cx="554.11" cy="290.406" r="1.243"/>
								<circle fill="#FFFFFF" cx="581.993" cy="316.882" r="1.16"/>
								<circle fill="#FFFFFF" cx="605.841" cy="273.315" r="0.772"/>
								<circle fill="#FFFFFF" cx="616.255" cy="342.548" r="1.243"/>
								<circle fill="#FFFFFF" cx="633.927" cy="357.996" r="1.024"/>
								<circle fill="#FFFFFF" cx="538.491" cy="350.914" r="2.568"/>
								<circle fill="#FFFFFF" cx="556.751" cy="377.744" r="1.398"/>
								<circle fill="#FFFFFF" cx="593.121" cy="374.645" r="0.792"/>
								<circle fill="#FFFFFF" cx="463.378" cy="349.462" r="0.622"/>
								<circle fill="#FFFFFF" cx="545.979" cy="484.352" r="1.398"/>
								<circle fill="#FFFFFF" cx="581.972" cy="488.34" r="1.761"/>
								<circle fill="#FFFFFF" cx="491.861" cy="445.873" r="1.347"/>
								<circle fill="#FFFFFF" cx="649.503" cy="498.904" r="1.554"/>
								<circle fill="#FFFFFF" cx="571.874" cy="423.656" r="0.57"/>
								<circle fill="#FFFFFF" cx="635.591" cy="450.463" r="1.106"/>
								<circle fill="#FFFFFF" cx="662.243" cy="416.977" r="0.829"/>
								<circle fill="#FFFFFF" cx="496.19" cy="394.064" r="0.652"/>
							</g>
						</g>
					</g>
					<g>
						<linearGradient id="SVGID_6_" gradientUnits="userSpaceOnUse" x1="588.5137" y1="458.1641" x2="622.6931" y2="443.2494">
							<stop  offset="0" style="stop-color:#FFE139"/>
							<stop  offset="1" style="stop-color:#BF2786"/>
						</linearGradient>
						<path fill="url(#SVGID_6_)" d="M626.25,440.615c-2.856,1.076-5.674,2.5-8.727,2.551c-0.775,0.012-1.605-0.041-2.271,0.355
							c-0.769,0.459-1.098,1.379-1.566,2.139c-1.427,2.322-4.282,3.287-6.947,3.854c-2.666,0.566-5.516,0.969-7.631,2.686
							c-2.117,1.717-2.966,5.336-0.89,7.104c1.386,1.182,3.521,1.057,5.147,0.236c1.626-0.818,2.881-2.203,4.175-3.484
							c3.646-3.615,7.878-6.633,12.482-8.9c5.429-2.674,78.479-42.658,93.248-51.295
							C681.059,413.801,640.872,435.113,626.25,440.615z"/>
						
							<linearGradient id="SVGID_7_" gradientUnits="userSpaceOnUse" x1="428.4824" y1="267.708" x2="476.1992" y2="267.708" gradientTransform="matrix(0.9994 0.0334 -0.0334 0.9994 8.9883 -1.9794)">
							<stop  offset="0" style="stop-color:#00EFA9"/>
							<stop  offset="1" style="stop-color:#3F56F0"/>
						</linearGradient>
						<path fill="url(#SVGID_7_)" d="M439.393,287.01c-0.494,0.242-0.996,0.485-1.412,0.845c-0.371,0.319-0.663,0.721-1.042,1.03
							c-0.49,0.4-1.099,0.624-1.693,0.841c-1.325,0.482-2.649,0.965-3.975,1.447c-1.089,0.396-2.235,0.834-2.952,1.743
							c-0.718,0.909-0.769,2.446,0.203,3.08c1.013,0.661,2.347-0.014,3.328-0.726c1.841-1.337,3.556-2.838,5.348-4.24
							c2.879-2.252,5.949-4.245,9.016-6.234c3.337-2.165,6.672-4.329,10.009-6.493c6.761-4.387,13.522-8.773,20.284-13.16
							c-5.405,3.507-11.239,6.447-16.677,9.946C453.197,279.359,446.483,283.533,439.393,287.01z"/>
						
							<linearGradient id="SVGID_8_" gradientUnits="userSpaceOnUse" x1="482.7373" y1="-12.1431" x2="498.1836" y2="-12.1431" gradientTransform="matrix(0.9867 0.1628 -0.1628 0.9867 30.4426 29.5128)">
							<stop  offset="0" style="stop-color:#00EFA9"/>
							<stop  offset="1" style="stop-color:#3F56F0"/>
						</linearGradient>
						<path fill="url(#SVGID_8_)" d="M512.008,98.877c-0.17,0.057-0.341,0.114-0.489,0.211c-0.132,0.087-0.243,0.204-0.377,0.286
							c-0.175,0.108-0.379,0.155-0.579,0.199c-0.445,0.1-0.891,0.199-1.338,0.297c-0.365,0.081-0.751,0.173-1.02,0.436
							c-0.27,0.262-0.35,0.753-0.065,0.998c0.299,0.255,0.755,0.093,1.1-0.094c0.647-0.352,1.26-0.761,1.894-1.136
							c1.02-0.602,2.089-1.113,3.157-1.623c1.161-0.555,2.323-1.108,3.484-1.663c2.354-1.124,4.708-2.248,7.063-3.372
							c-1.883,0.898-3.878,1.597-5.771,2.492C516.759,97,514.43,98.059,512.008,98.877z"/>
						
							<linearGradient id="SVGID_9_" gradientUnits="userSpaceOnUse" x1="436.9424" y1="359.4258" x2="452.3877" y2="359.4258" gradientTransform="matrix(0.9867 0.1628 -0.1628 0.9867 30.4426 29.5128)">
							<stop  offset="0" style="stop-color:#FFAB67"/>
							<stop  offset="0.0554" style="stop-color:#FF9F6C"/>
							<stop  offset="0.3301" style="stop-color:#FF6784"/>
							<stop  offset="0.4627" style="stop-color:#FF518D"/>
							<stop  offset="1" style="stop-color:#5E309D"/>
						</linearGradient>
						<path fill="url(#SVGID_9_)" d="M406.328,458.047c-0.168,0.059-0.34,0.115-0.489,0.213c-0.132,0.086-0.242,0.203-0.377,0.287
							c-0.174,0.107-0.379,0.154-0.579,0.199c-0.445,0.1-0.891,0.197-1.336,0.297c-0.365,0.082-0.753,0.174-1.021,0.436
							c-0.268,0.262-0.348,0.752-0.064,0.996c0.298,0.256,0.756,0.096,1.099-0.092c0.647-0.352,1.262-0.762,1.895-1.137
							c1.019-0.602,2.089-1.113,3.156-1.623c1.161-0.555,2.323-1.109,3.486-1.664c2.354-1.121,4.708-2.246,7.063-3.369
							c-1.883,0.898-3.878,1.596-5.771,2.49C411.08,456.172,408.751,457.23,406.328,458.047z"/>
						<linearGradient id="SVGID_10_" gradientUnits="userSpaceOnUse" x1="268.1426" y1="42.5557" x2="313.4473" y2="42.5557">
							<stop  offset="0" style="stop-color:#FFAB67"/>
							<stop  offset="0.0554" style="stop-color:#FF9F6C"/>
							<stop  offset="0.3301" style="stop-color:#FF6784"/>
							<stop  offset="0.4627" style="stop-color:#FF518D"/>
							<stop  offset="1" style="stop-color:#5E309D"/>
						</linearGradient>
						<path fill="url(#SVGID_10_)" d="M287.023,45.114c-1.474,0.871-3.017,1.766-4.725,1.891c-1.521,0.113-3.259-0.341-4.432,0.633
							c-0.84,0.697-1.604,2.111-2.57,1.607c-0.004,1.145-1.425,1.621-2.528,1.929c-1.681,0.47-3.265,1.288-4.622,2.385
							c-0.069,0.734,0.706,1.327,1.443,1.339c0.736,0.012,1.414-0.381,2.035-0.777c1.368-0.873,2.687-1.823,3.946-2.846
							c0.399-0.324,0.794-0.657,1.229-0.931c0.606-0.382,1.28-0.642,1.948-0.908c12.344-5.014,23.464-12.155,34.698-19.224
							c-3.522,2.638-7.633,3.789-11.425,6.031C297.022,39.201,292.022,42.157,287.023,45.114z"/>
						
							<linearGradient id="SVGID_11_" gradientUnits="userSpaceOnUse" x1="122.8594" y1="36.9268" x2="145.3135" y2="36.9268" gradientTransform="matrix(0.986 0.1667 -0.1667 0.986 20.4611 31.7696)">
							<stop  offset="0" style="stop-color:#ED6CCD"/>
							<stop  offset="1" style="stop-color:#005184"/>
						</linearGradient>
						<path fill="url(#SVGID_11_)" d="M143.983,91.513c-1.541,0.565-3.093,1.132-4.709,1.422c-0.844,0.15-1.702,0.225-2.559,0.221
							c-0.859-0.003-1.981,0.095-2.186,0.929c-0.15,0.613,0.42,1.232,1.048,1.31c0.626,0.078,1.239-0.252,1.703-0.681
							c0.191-0.177,0.371-0.376,0.605-0.491c0.438-0.212,0.968-0.083,1.438-0.208c0.578-0.155,0.982-0.667,1.494-0.983
							c0.625-0.383,1.382-0.458,2.095-0.633c0.749-0.185,1.464-0.486,2.175-0.786c4.533-1.912,9.067-3.823,13.601-5.735
							C153.752,87.658,148.921,89.705,143.983,91.513z"/>
						<path opacity="0.22" fill="#FFFFFF" d="M-7.278,186.402c-0.246,0.262-0.499,0.54-0.593,0.886
							c-0.186,0.68,0.287,1.366,0.293,2.069c0.013,1.412-1.648,2.097-2.853,2.832c-1.977,1.208-3.244,3.498-3.219,5.815
							c3.365-0.019,6.727-0.178,10.077-0.476c2.733-0.243,5.457-0.579,8.181-0.914c1.058-0.13,2.114-0.26,3.173-0.391
							c1.086-0.134,2.173-0.267,3.254-0.434c6.109-0.943,12.049-2.948,17.498-5.867c2.025-1.085,3.994-2.3,6.148-3.101
							c1.929-0.719,3.971-1.09,5.934-1.711c5.634-1.782,10.401-5.528,15.032-9.198c0.593-0.468,1.223-0.997,1.383-1.734
							c0.083-0.381,0.029-0.782,0.112-1.163c0.318-1.464,2.261-1.793,3.323-2.85c0.63-0.625,0.932-1.501,1.212-2.344
							c0.754-2.26,1.508-4.521,2.261-6.781c-12.249-2.89-25.731-0.012-35.731,7.627c-0.929,0.709-1.849,1.468-2.942,1.876
							c-0.862,0.322-1.79,0.409-2.681,0.64c-3.885,1.003-6.529,4.491-9.819,6.789c-1.585,1.107-3.343,1.948-4.917,3.068
							c-2.416,1.72-4.363,4.093-5.577,6.799c2.744,0.37,5.521,0.742,8.276,0.451c2.755-0.292,5.528-1.317,7.408-3.35
							c4.145-0.05,8.279-0.882,12.118-2.443c4.978-2.023,9.383-5.216,14.16-7.675c-5.787-3.129-13.635-1.783-18.048,3.095
							c2.438-1.924,5.527-3.009,8.634-3.035c0.276-0.002,0.576,0.012,0.792,0.186c0.654,0.529-0.192,1.502-0.945,1.879
							c-1.863,0.931-3.727,1.863-5.59,2.794c-1.398,0.7-2.819,1.407-4.351,1.722c-1.518,0.312-3.086,0.229-4.63,0.358
							c-2.155,0.18-4.273,0.782-6.202,1.76c-1.47,0.747-3.283,1.704-4.619,0.737c5.696-5.371,12.228-9.856,19.285-13.244
							c0.822-0.395,1.662-0.78,2.363-1.362c0.52-0.431,0.949-0.959,1.438-1.426c1.783-1.71,4.217-2.526,6.565-3.291
							c5.031-1.64,10.219-3.3,15.496-2.925c1.404,0.099,3.176,0.778,3.099,2.184c-0.029,0.512-0.323,0.967-0.613,1.39
							c-6.249,9.091-15.576,15.735-25.61,20.317c-10.035,4.582-20.826,7.245-31.591,9.653c-0.42,0.095-0.88,0.184-1.263-0.013
							c-0.66-0.34-0.729-1.333-1.363-1.719c-0.564-0.343-1.283-0.055-1.944-0.065c-1.585-0.024-2.615-1.896-2.36-3.46
							c0.256-1.564,1.375-2.83,2.469-3.975c13.074-13.696,29.637-24.035,47.684-29.764c-14.89,4-28.91,11.1-40.793,20.942
							C-1.183,180.309-4.33,183.262-7.278,186.402z"/>
						<path opacity="0.22" fill="#FFFFFF" d="M342.666,213.066c-5.151-1.394-10.513-1.773-15.836-2.138
							c-1.053-0.071-2.127-0.141-3.146,0.13c-1.424,0.377-2.604,1.388-3.535,2.527c-2.856,3.489-3.717,8.506-2.188,12.748
							c0.328,0.91,0.761,1.891,0.441,2.804c-0.244,0.698-0.876,1.176-1.319,1.77c-1.576,2.117-0.489,5.122,0.797,7.429
							c3.071,5.516,7.047,10.527,11.718,14.775c4.363,3.969,9.297,7.25,14.209,10.515c2.5,1.66,5.016,3.331,7.775,4.508
							c3.07,1.311,6.408,1.986,9.744,1.972c4.067-0.016,8.435-1.263,10.847-4.538c1.822-2.473,2.25-5.759,1.786-8.794
							c-0.462-3.036-1.731-5.882-3.055-8.652c-3.958-8.286-8.857-16.647-16.725-21.385c-2.51-1.512-5.252-2.606-8.045-3.492
							c-3.118-0.987-6.623-1.695-9.564-0.265c-3.981,1.936-5.337,7.25-4.119,11.507c1.216,4.257,4.361,7.658,7.516,10.764
							c1.985,1.956,4.024,3.873,6.307,5.472c1.67,1.17,3.518,2.182,5.538,2.458c2.021,0.275,4.246-0.3,5.558-1.861
							c1.411-1.675,1.504-4.189,0.657-6.208c-0.848-2.019-2.494-3.603-4.282-4.866c-0.97-0.686-2.323-1.289-3.271-0.573
							c1.233-1.671-0.582-4.34-2.654-4.206c-2.073,0.135-3.569,2.367-3.418,4.438c0.152,2.072,1.575,3.867,3.275,5.06
							c1.325,0.93,3.666,1.25,4.133-0.3c0.343-1.142-0.748-2.169-1.716-2.867c2.409-1.085,5.619,0.465,6.267,3.027
							c0.648,2.561-1.436,5.451-4.072,5.644c-2.546,0.186-4.711-1.722-6.544-3.5c-3.166-3.073-6.352-6.172-8.874-9.792
							c-1.005-1.442-1.929-3.06-1.933-4.819c-0.005-3.024,2.86-5.474,5.853-5.917c2.994-0.443,5.999,0.67,8.68,2.072
							c11.596,6.062,19.77,18.229,20.999,31.256c0.103,1.09,0.115,2.318-0.629,3.122c-1.215,1.311-3.462,0.585-5.083,1.337
							c-0.723,0.334-1.277,0.947-1.968,1.344c-1.774,1.018-4.006,0.43-5.939-0.24c-14.507-5.03-28.348-13.896-35.815-27.313
							c2.111-1.976,2.459-5.56,0.765-7.904c1.097-1.522-0.088-3.562-0.495-5.393c-0.812-3.647,1.926-7.376,5.384-8.789
							c3.458-1.414,7.386-1,11.023-0.153c-0.541,0.075-0.683-0.862-0.228-1.164c0.456-0.303,1.063-0.143,1.581,0.035
							c6.435,2.209,12.456,5.615,17.667,9.991c-0.123-1.069,1.119-1.885,2.188-1.756c1.068,0.13,1.946,0.874,2.755,1.585
							c2.648,2.333,5.298,4.665,7.946,6.998C361.438,224.263,353.591,216.022,342.666,213.066z"/>
					</g>
				</g>
				<g>
					<g>
						<linearGradient id="SVGID_12_" gradientUnits="userSpaceOnUse" x1="323.0762" y1="414.3604" x2="366.1601" y2="367.3596">
							<stop  offset="0" style="stop-color:#E86376"/>
							<stop  offset="1" style="stop-color:#363090"/>
						</linearGradient>
						<circle fill="url(#SVGID_12_)" cx="346.507" cy="388.801" r="21.707"/>
						<path opacity="0.7" fill="#E07061" d="M315.227,408.223c1.212,0.152,2.375-0.461,3.443-1.055
							c14.822-8.23,29.645-16.463,44.324-24.945c3.445-1.99,6.946-4.047,9.566-7.041c-2.721,0.301-5.368,1.234-7.678,2.701
							c6.932-5.184,15.235-8.516,23.828-9.561c-4.039,4.105-8.877,7.316-13.678,10.494c-20.876,13.824-42.031,27.787-65.677,36.023
							c-0.668,0.232-1.719,0.225-1.747-0.482c-0.011-0.27,0.164-0.504,0.332-0.717c5.031-6.287,11.073-11.818,17.898-16.111
							C322.373,401.164,318.472,404.367,315.227,408.223z"/>
						<g>
							<defs>
								<circle id="SVGID_237_" cx="346.507" cy="388.801" r="21.707"/>
							</defs>
							<clipPath id="SVGID_13_">
								<use xlink:href="#SVGID_237_"  overflow="visible"/>
							</clipPath>
							<path opacity="0.6" clip-path="url(#SVGID_13_)" d="M328.057,389.777c2.951-0.762,5.142-3.182,7.792-4.686
								c1.079-0.613,2.307-1.084,3.539-0.926c1.073,0.137,2.038,0.738,3.104,0.92c1.115,0.189,2.256-0.096,3.387-0.088
								c1.743,0.014,3.469,0.752,4.681,2.004c1.211,1.252,1.894,3.002,1.847,4.744c1.031,0.768,1.52,2.049,1.912,3.273
								c0.43,1.342,0.807,2.773,0.49,4.146c-0.318,1.375-1.559,2.635-2.96,2.49c-0.585-0.061-1.287-0.311-1.681,0.125
								c-0.326,0.361-0.162,0.943,0.105,1.348c0.27,0.406,0.639,0.779,0.703,1.262c0.049,0.367-0.092,0.732-0.229,1.076
								c-0.771,1.93-1.609,3.949-3.235,5.244c-1.369,1.09-3.166,1.533-4.916,1.549c-1.75,0.018-3.479-0.363-5.182-0.768
								c0.931-0.383,1.46-1.543,1.14-2.498c-0.345-1.025-1.478-1.691-1.643-2.762c-0.15-0.971,0.583-1.875,1.422-2.387
								s1.812-0.775,2.639-1.305c1.453-0.934,2.313-2.672,2.299-4.398c-0.015-1.727-0.854-3.402-2.145-4.551
								c-1.187-1.053-2.853-1.684-4.383-1.273c-0.287,0.078-0.581,0.189-0.872,0.135c-0.861-0.162-0.85-1.441-1.459-2.072
								c-0.526-0.545-1.444-0.486-2.111-0.127c-0.667,0.361-1.172,0.955-1.753,1.439c-0.726,0.609-1.696,1.33-1.457,2.246
								c0.2,0.771,1.127,1.047,1.902,1.229c0.808,0.189,1.636,0.432,2.253,0.982c0.616,0.555,0.951,1.504,0.565,2.236
								c-0.347,0.66-1.161,0.977-1.481,1.65c-0.27,0.563-0.124,1.227-0.172,1.85c-0.104,1.357-1.266,2.559-2.62,2.703
								c-1.414,0.152-2.727-0.719-3.802-1.65c-2.033-1.76-3.77-3.938-4.656-6.479c-0.411-1.18-0.624-2.436-0.602-3.688
								c0.016-0.957,0.105-3.016,0.856-3.734c0.677-0.645,2.093,0.512,2.922,0.725C325.496,390.084,326.816,390.098,328.057,389.777
								z"/>
							<path opacity="0.6" clip-path="url(#SVGID_13_)" d="M331.222,374.367c0.441,0.758,1.35,1.178,2.227,1.154
								c0.877-0.025,1.712-0.449,2.353-1.047c0.303-0.283,0.621-0.629,1.035-0.621c0.378,0.006,0.688,0.313,1.063,0.371
								c0.948,0.148,1.42-1.232,2.338-1.51c0.607-0.186,1.266,0.16,1.891,0.049c1.015-0.184,1.441-1.408,2.279-2.008
								c0.47-0.338,1.054-0.465,1.621-0.584c0.543-0.113,1.087-0.227,1.631-0.34c1.149-0.242,2.339-0.482,3.488-0.24
								c0.695,0.148,1.353,0.475,1.892,0.938c-0.562,0.326-1.246-0.049-1.843-0.305c-0.596-0.254-1.503-0.248-1.662,0.381
								c-0.165,0.652,0.664,1.074,1.318,1.229c1.334,0.32,2.668,0.637,4.002,0.955c1.862,0.445,3.76,0.895,5.67,0.754
								c0.126-1.725-0.58-3.494-1.861-4.66c-0.787-0.715-1.758-1.199-2.733-1.623c-4.243-1.852-8.879-2.795-13.508-2.752
								c-2.262,0.021-4.544,0.281-6.667,1.061s-4.086,2.109-5.367,3.973c-0.704,1.025-0.182,1.217,0.182,2.039
								C330.957,372.463,330.715,373.502,331.222,374.367z"/>
							<path opacity="0.6" clip-path="url(#SVGID_13_)" d="M340.341,375.523c-0.45-0.082-1.072-0.053-1.173,0.395
								c-0.02,0.086-0.015,0.178-0.057,0.254c-0.124,0.223-0.455,0.098-0.704,0.039c-0.555-0.133-1.094,0.23-1.549,0.574
								c-0.133,0.1-0.277,0.217-0.304,0.383c-0.023,0.145,0.051,0.287,0.14,0.404c0.347,0.463,0.958,0.713,1.53,0.625
								c0.351-0.053,0.675-0.221,1.022-0.291c0.312-0.064,0.632-0.051,0.95-0.045c0.805,0.016,1.675-0.041,2.291-0.559
								c0.458-0.385,0.724-0.986,1.251-1.27c0.551-0.297,1.384-0.266,1.6-0.852c0.126-0.344-0.068-0.74-0.364-0.953
								c-0.297-0.211-0.672-0.279-1.035-0.314c-0.131-0.012-0.268-0.021-0.393,0.018c-0.293,0.096-0.435,0.418-0.629,0.66
								C342.412,375.213,341.112,375.664,340.341,375.523z"/>
							<path opacity="0.6" clip-path="url(#SVGID_13_)" d="M364.359,376.957c-0.442,0.211-0.908,0.578-0.885,1.068
								c0.03,0.605,0.788,0.961,0.874,1.563c0.035,0.252-0.056,0.506-0.055,0.76c0.001,0.334,0.16,0.645,0.314,0.941
								c0.319,0.611,0.639,1.221,0.957,1.834c0.202,0.387,0.407,0.785,0.452,1.219c0.045,0.436-0.106,0.918-0.48,1.145
								c-0.215,0.129-0.473,0.158-0.715,0.219c-1.232,0.299-2.186,1.49-2.21,2.756c-0.003,0.154,0.006,0.314-0.053,0.459
								c-0.111,0.271-0.419,0.395-0.691,0.506c-0.718,0.293-1.491,0.863-1.417,1.635c0.027,0.273,0.16,0.523,0.283,0.771
								c0.691,1.404,1.047,2.947,1.396,4.473c0.718-0.238,1.507-0.475,2.211-0.201c0.726,0.283,1.166,1.059,1.265,1.832
								s-0.085,1.551-0.276,2.307c-0.062,0.234-0.122,0.484-0.049,0.715c0.066,0.209,0.236,0.373,0.431,0.475
								c0.608,0.318,1.394,0.045,1.858-0.459c0.465-0.506,0.678-1.188,0.849-1.854c0.786-3.061,0.971-6.242,1.151-9.398
								c0.192-3.334,0.381-6.699-0.143-9.996c-0.06-0.373-0.118-0.785,0.094-1.094c0.267-0.387,0.802-0.572,0.539-1.107
								c-0.154-0.316-1.185-0.596-1.495-0.709C367.202,376.324,365.681,376.33,364.359,376.957z"/>
						</g>
					</g>
					<g>
						<linearGradient id="SVGID_14_" gradientUnits="userSpaceOnUse" x1="-19.9766" y1="213.479" x2="-23.705" y2="-86.6658">
							<stop  offset="0" style="stop-color:#F35C5F"/>
							<stop  offset="1" style="stop-color:#8B3791"/>
						</linearGradient>
						<circle fill="url(#SVGID_14_)" cx="-22.566" cy="5.137" r="141.084"/>
						<g>
							<g>
								<path opacity="0.6" d="M7.666,111.952c-1.381,0.02-2.938-0.222-3.75-1.34c-1.117-1.538-0.177-3.68,0.832-5.292
									c5.798-9.255,13.588-17.254,22.688-23.293c2.218-1.471,4.625-2.866,7.279-3.048c0.544-0.038,1.126-0.033,1.582-0.335
									c1.213-0.807,0.414-2.688-0.475-3.844c-0.307,0.475-0.613,0.95-0.919,1.425c-0.931-1.592-1.86-3.186-2.79-4.778
									c-0.932,4.166-5.848,6.938-9.896,5.582c0.451,1.901-1.454,3.53-3.27,4.252c-1.816,0.722-3.941,1.194-5.013,2.828
									c-0.483,0.738-0.729,1.688-1.468,2.169c-0.655,0.426-1.504,0.352-2.279,0.263c-2.575-0.298-5.147-0.596-7.722-0.893
									c2.548,1.493,4.047,4.598,3.633,7.521c-3.85-2.652-9.035-1.642-13.575-0.528c2.364,0.886,4.809,1.823,6.575,3.627
									c1.766,1.805,2.645,4.741,1.347,6.907c-1.399-0.443-2.901-0.555-4.351-0.324c1.063,0.687,2.123,1.374,3.185,2.061
									c-4.912,0.471-9.626,2.794-12.99,6.407c2.769-1.19,5.942-1.409,8.849-0.611c4.076,1.119,7.607,4.149,11.829,4.355
									c5.155,0.254,10.168-3.306,13.492-6.771C16.488,110.917,11.553,111.898,7.666,111.952z"/>
								<path opacity="0.6" d="M38.331,89.25c0.628-0.999,1.228-2.056,1.397-3.224c0.229-1.568-0.404-3.233-1.614-4.257
									c-1.21-1.022-2.959-1.365-4.466-0.879c2.177,0.189,3.609,2.613,3.469,4.793c-0.14,2.181-1.416,4.11-2.74,5.849
									c-4.604,6.043-10.336,11.226-16.814,15.199c1.876-1.15,4.145-1.747,6.059-2.908c1.688-1.024,3.304-2.216,4.838-3.458
									C32.327,97.235,35.683,93.466,38.331,89.25z"/>
								<path opacity="0.46" fill="#FFFFFF" d="M41.927,82.027c-0.347-0.715-0.921-1.289-1.399-1.924
									c-1.119-1.486-1.719-3.356-1.669-5.215c0.293,1.119,0.745,2.197,1.34,3.188c-0.25-3.009,0.64-6.101,2.451-8.517
									c-0.171,3.514,0.285,7.024,0.739,10.511c0.721-1.832,2.024-3.429,3.675-4.502c-1.07,1.157-1.98,2.461-2.696,3.865
									c1.117-0.375,2.314-0.512,3.488-0.399c-1.106,0.749-2.224,1.51-3.1,2.519c-0.873,1.01-1.49,2.313-1.397,3.644
									c0.015,0.215,0.047,0.432,0.015,0.645c-0.043,0.266-0.185,0.503-0.327,0.731c-1.241,1.981-2.767,3.785-4.515,5.338
									C40.096,89.32,43.501,85.281,41.927,82.027z"/>
							</g>
							<g>
								<path opacity="0.6" d="M97.78,6.549c-1.039-1.415-0.898-3.354-0.609-5.084c1.165-7.011,4.007-13.737,8.221-19.46
									c-3.674,3.323-5.848,8.001-7.296,12.739c-0.453,1.482-1.288,3.319-2.833,3.214c0.212,0.358,0.425,0.717,0.639,1.076
									c-0.972,0.914-1.942,1.828-2.913,2.742c-0.169,0.159-0.345,0.33-0.408,0.553c-0.32,1.131,2.272,1.504,1.903,2.621
									c-2.475,0.688-4.722,2.175-6.322,4.184C90.805,8,93.863,7.873,96.593,8.779c-1.276,1.447-2.452,2.983-3.51,4.595
									c1.891-1.645,4.509-2.095,6.781-3.151c2.039-0.948,4.495-3.202,3.753-5.679C102.05,5.756,100.251,9.916,97.78,6.549z"/>
								<path opacity="0.6" d="M107.624-12.884c0.02-0.683-0.005-1.405-0.364-1.988c-0.358-0.583-1.159-0.946-1.752-0.604
									c1.097-0.635,2.692-0.117,3.207,1.042c0.238,0.538,0.26,1.143,0.254,1.732c-0.046,4.8-1.659,9.573-4.533,13.417
									c0.612-0.819,0.887-1.989,0.996-2.978c0.127-1.132,0.516-2.134,0.852-3.224C107.024-7.885,107.554-10.366,107.624-12.884z"
									/>
							</g>
							<g>
								<path opacity="0.6" d="M83.829,80.849c-0.825,0.209-1.8,0.007-2.313-0.672c-0.47-0.623-0.458-1.478-0.35-2.251
									c0.229-1.63,0.796-3.211,1.658-4.614c-1.019,1.376-2.045,2.768-2.728,4.338c-0.681,1.569-0.995,3.358-0.53,5.007
									c0.266,0.94,0.956,1.917,1.934,1.924c0.574,0.003,1.089-0.334,1.548-0.679c2.251-1.693,5.305-4.702,5.871-7.578
									C86.993,77.511,86.239,80.236,83.829,80.849z"/>
								<path opacity="0.6" d="M93.189,65.582c0.104-0.629,0.168-1.297-0.085-1.884c-0.251-0.586-0.917-1.039-1.524-0.845
									c0.474-0.203,0.964-0.409,1.479-0.413c0.516-0.002,1.068,0.251,1.258,0.73c0.11,0.279,0.086,0.592,0.051,0.89
									c-0.343,2.895-1.643,6.805-3.986,8.698c0.259-0.948,0.934-1.814,1.365-2.694C92.44,68.651,92.931,67.137,93.189,65.582z"/>
								<path opacity="0.46" fill="#FFFFFF" d="M90.591,62.585c-1.971,1.94-3.874,3.949-5.703,6.023
									c-0.862-0.429-1.652-1-2.329-1.682c0.581,0.064,1.164,0.128,1.745,0.193c0.12,0.013,0.259,0.021,0.343-0.065
									c0.118-0.12,0.048-0.319-0.028-0.469c-0.443-0.86-0.885-1.72-1.328-2.581c0.596,0.413,1.229,0.839,1.95,0.901
									c0.723,0.062,1.543-0.392,1.612-1.113c-0.375-0.506-0.612-1.114-0.678-1.74c0.463,0.159,0.717,0.914,1.178,0.75
									c0.603-0.212-0.07-1.372,0.468-1.714c-0.072,0.633,0.855,0.908,1.436,0.641c0.58-0.266,1.021-0.807,1.639-0.97
									c0.192-0.051,0.41-0.069,0.552-0.208c0.128-0.126,0.158-0.319,0.184-0.498c0.156-1.152,0.313-2.303,0.47-3.455
									c-0.259,1.007-0.2,2.095,0.165,3.07c0.486-1.726,1.289-3.362,2.354-4.804c-0.424,1.223-0.854,2.528-0.565,3.792
									c0.196,0.862,0.71,1.612,1.063,2.422c0.351,0.802,0.642,2.13-0.138,2.767c-0.272-0.693-0.019-1.655-0.545-2.284
									C93.299,60.203,91.464,61.726,90.591,62.585z"/>
								<path opacity="0.6" d="M78.292,81.313c0.034-1.201,0.382-2.367,0.729-3.518c-0.589-0.266-1.199-0.482-1.824-0.643
									c0.322,0.346,0.646,0.691,0.968,1.038c-0.787,0.149-1.574,0.298-2.361,0.447c-0.776,0.148-1.579,0.306-2.226,0.761
									c0.722-0.041,1.451,0.074,2.123,0.335c-1.821,0.838-3.479,2.035-4.845,3.502c2.438-0.578,5.043-0.435,7.402,0.408
									c-0.746,0.384-1.491,0.766-2.237,1.149c1.068-0.55,2.438-0.15,3.536-0.355c-0.208-0.358-0.631-0.575-0.856-0.941
									C78.326,82.888,78.272,82.008,78.292,81.313z"/>
							</g>
							<path opacity="0.6" d="M44.898,32.634c-0.803-0.296-1.313-1.13-1.443-1.976c-0.13-0.845,0.057-1.707,0.284-2.532
								c0.844-3.071,2.317-6.055,4.713-8.154c0.346-0.304,0.742-0.6,1.202-0.63c0.703-0.046,1.312,0.575,1.497,1.256
								c0.187,0.681,0.053,1.403-0.081,2.096c0.47-1.273,0.485-2.709,0.044-3.992c-0.171-0.496-0.42-0.984-0.834-1.306
								c-1.063-0.828-2.627-0.207-3.697,0.612c-2.897,2.219-4.661,5.708-5.251,9.31c-0.379,2.316-0.168,5.01,1.622,6.526
								c0.222,0.188,0.476,0.357,0.765,0.399c0.511,0.073,0.981-0.264,1.377-0.596c0.563-0.475,1.097-0.982,1.61-1.507
								C46.274,32.648,45.537,32.87,44.898,32.634z"/>
							<path opacity="0.6" d="M106.354,25.063c-0.289,0.057-0.52,0.269-0.722,0.483c-1.117,1.198-1.813,2.894-1.461,4.493
								c0.07,0.317,0.191,0.643,0.446,0.844c0.257,0.2,0.677,0.218,0.877-0.038c-0.177,0.42-0.363,0.854-0.699,1.161
								c-0.335,0.309-0.867,0.453-1.254,0.212c-0.181-0.111-0.309-0.29-0.418-0.472c-0.724-1.207-0.805-2.734-0.399-4.08
								c0.407-1.348,1.262-2.526,2.283-3.493c0.402-0.381,0.89-0.754,1.442-0.726c0.547,0.027,1.012,0.46,1.224,0.966
								c0.297,0.712,0.237,1.627,0.074,2.362C107.396,26.216,107.436,24.849,106.354,25.063z"/>
							<path opacity="0.6" d="M49.919,110.255c0.78-0.547,1.786-0.857,2.702-0.591c-0.417-0.704-1.206-1.171-2.024-1.198
								c-1.294-0.042-2.389,0.92-3.239,1.896c-0.415,0.477-2.365,3.426-0.883,3.806C47.046,114.314,49.251,110.725,49.919,110.255z"
								/>
							<path opacity="0.6" d="M5.517,128.344c-1.163-0.809-2.739-0.921-4.061-0.412c-1.169,0.451-2.21,1.385-2.795,2.493
								c-0.572,1.081-0.396,1.843,0.797,0.997c0.963-0.682,1.619-1.608,2.702-2.176C2.721,128.952,4.899,127.915,5.517,128.344z"/>
						</g>
						<path opacity="0.6" d="M0.955-5.042C-6.248-5.225-13.49-3.183-19.536,0.734c-0.33,0.213-0.664,0.436-1.044,0.538
							c-0.95,0.252-1.935-0.304-2.918-0.257c0.754-0.052,1.507-0.103,2.261-0.155c0.022-0.46-0.219-0.925-0.607-1.171
							c0.559-0.033,1.08-0.421,1.272-0.947c-2.529-2.848-4.39-6.286-5.385-9.963c3.184,3.029,7.445,4.899,11.83,5.194
							c-0.529-1.889-1.059-3.776-1.588-5.665c1.349,0.392,2.029,1.906,3.22,2.652c1.908,1.197,4.378,0.121,6.355-0.96
							c-0.095-1.818,0.024-3.648,0.354-5.439c0.665,1.015,1.33,2.03,1.994,3.044c0.595-3.165,1.994-6.173,4.029-8.667
							c-0.069,3.232,0.66,6.479,2.106,9.37c0.541,1.084,1.201,2.141,2.146,2.898c1.428,1.145,3.321,1.476,5.127,1.77
							c0.364-1.482,0.912-2.919,1.627-4.268c-0.679,2.9-0.685,5.954-0.02,8.856c0.174,0.758,1.047,1.568,1.068,2.345
							c0.022,0.852,0,7.458-4.661,13.439c1.165-2.787,3.979-8.21,2.587-13.106C9.095-3.711,4.433-4.953,0.955-5.042z"/>
						<path opacity="0.6" d="M-7.828,26.948c-2.316,1.976-4.901,3.804-7.885,4.412c-1.142,0.231-2.53,0.187-3.215-0.758
							c-0.141-0.194-0.256-0.428-0.475-0.525c-0.358-0.159-0.738,0.132-1.104,0.274c-0.951,0.37-1.966-0.301-2.744-0.961
							c-1.683-1.427-3.394-3.407-2.932-5.564c-0.461,2.697-0.845,5.746,0.809,7.926c0.84,1.108,2.096,1.815,3.35,2.417
							c1.778,0.854,3.7,1.573,5.669,1.458c1.396-0.081,2.733-0.579,4.005-1.158c0-0.229,4.674-2.647,5.185-3.015
							c1.676-1.205,3.233-2.572,4.659-4.064c2.878-3.009,5.221-6.519,6.983-10.287c0.971-2.079,1.881-4.3,2.385-6.542
							c-2.158,2.645-4.451,4.992-6.513,7.718C-2.053,21.453-4.799,24.366-7.828,26.948z"/>
					</g>
					<g>
						
							<linearGradient id="SVGID_15_" gradientUnits="userSpaceOnUse" x1="-50.4229" y1="696.3291" x2="119.2284" y2="517.3564" gradientTransform="matrix(-0.866 0.5 -0.5 -0.866 814.1251 1057.54)">
							<stop  offset="0" style="stop-color:#FFAB67"/>
							<stop  offset="0.0488" style="stop-color:#FC946B"/>
							<stop  offset="0.2236" style="stop-color:#F1477A"/>
							<stop  offset="0.3042" style="stop-color:#ED2980"/>
							<stop  offset="0.3798" style="stop-color:#DF287E"/>
							<stop  offset="0.5226" style="stop-color:#BA257A"/>
							<stop  offset="0.7176" style="stop-color:#7F2174"/>
							<stop  offset="0.955" style="stop-color:#2D1A6B"/>
							<stop  offset="1" style="stop-color:#1D1969"/>
						</linearGradient>
						<circle fill="url(#SVGID_15_)" cx="472.546" cy="584.149" r="126.88"/>
						<path opacity="0.6" d="M558.397,522.498c-3.616,0.514-7.291-0.371-10.728-1.609c-9.271-3.338-17.391-9.168-25.969-14.016
							c-11.749-6.637-24.51-11.48-37.703-14.313c-7.699-1.65-15.589-2.623-23.45-2.168c-3.973,0.23-8.136,0.912-11.236,3.406
							c-3.1,2.494-4.637,7.305-2.386,10.586c2.25,3.283,8.567,2.676,9.249-1.244c-1.026,2.771-5.784,2.223-6.815-0.545
							c-1.033-2.77,1.059-5.955,3.813-7.025c3.192-1.242,7.146-0.115,9.203,2.627c2.791,3.719,1.68,9.346-1.464,12.771
							c-3.146,3.426-7.798,5.043-12.361,5.938c-10.68,2.092-21.99,0.848-31.959-3.518c-6.525-2.857-12.548-7.029-19.482-8.654
							c-7.843-1.84-16.453-0.09-22.957,4.664c-6.503,4.754-10.784,12.428-11.414,20.457c8.027-8.164,20.333-10.834,31.745-9.906
							s22.294,4.99,33.17,8.572c10.874,3.584,22.2,6.756,33.61,5.814c11.411-0.939,23.042-6.768,28.025-17.076
							c0.863-1.787,1.564-3.744,3.04-5.072c1.426-1.283,3.394-1.797,5.306-1.963c11.209-0.971,20.575,8.254,26.993,17.494
							s12.351,19.863,22.677,24.332c6.171,2.67,13.438,2.689,19.623,0.053c2.403-1.025,4.743-2.537,5.967-4.846
							c1.224-2.311,0.974-5.543-1.11-7.119c1.311,4.271-4.557,8.303-8.484,6.172c-3.929-2.133-4.49-8.152-1.688-11.637
							c2.802-3.482,7.887-4.498,12.225-3.426c4.34,1.074,8.04,3.889,11.27,6.979c-2.485-2.379-3.77-9.529-5.294-12.76
							c-2.078-4.402-4.46-8.695-7.468-12.539c-4.104-5.248-4.011-2.949-5.002,1.922
							C566.465,519.158,562.616,521.896,558.397,522.498z"/>
						<path opacity="0.6" d="M405.459,547.492c27.529-1.963,54.9,5.121,82.491,5.752c4.888,0.113,10.459-0.291,13.523-4.098
							c2.122,2.227,5.153,3.311,8.113,4.145c14.143,3.98,30.217,4.344,41.277,14.014c-7.333,0.197-14.131,3.621-21.13,5.82
							c-7.889,2.475-16.185,3.414-24.447,3.723c-21.526,0.809-42.967-2.559-64.246-5.914c-10.957-1.729-21.948-3.465-32.601-6.557
							c-4.514-1.309-18.27-4.867-18.985-10.674C388.858,548.873,402.198,547.725,405.459,547.492z"/>
						<path opacity="0.6" d="M452.635,471.963c4.275-0.965,8.769-0.943,13.035,0.059c1.271,0.299,2.852,1.357,2.254,2.521
							c-0.246,0.48-0.798,0.719-1.32,0.854c-1.484,0.381-3.102,0.229-4.489-0.424c0.509,2.121,2.782,3.654,4.939,3.334
							c2.156-0.32,3.885-2.449,3.754-4.627c3.118,2.326,7.241,2.902,11.118,2.582s7.635-1.445,11.449-2.207
							c12.649-2.525,26.613-0.723,36.855,7.119c1.123,0.859,2.224,1.803,3.554,2.287c1.12,0.406,2.333,0.461,3.518,0.596
							c3.548,0.4,7.009,1.566,10.075,3.393c-6.994-7.51-15.827-13.293-25.505-16.705c0.669,0.494,0.848,1.537,0.382,2.227
							c-12.2-3.492-24.955-5.037-37.637-4.561c-6.704,0.254-13.64,1.033-19.945-1.258c-4.388-1.596-8.552-4.672-13.192-4.166
							c-2.033,0.223-3.917,1.127-5.842,1.82c-5.124,1.844-11.577,2.268-15.536,6.416c4.542-2.143,6.012-1.988,9.5,1.156
							C443.243,475.662,448.438,472.908,452.635,471.963z"/>
					</g>
					<g>
						<linearGradient id="SVGID_16_" gradientUnits="userSpaceOnUse" x1="620.7803" y1="228.4043" x2="704.6722" y2="142.6481">
							<stop  offset="0" style="stop-color:#20D6DE"/>
							<stop  offset="1" style="stop-color:#5E309D"/>
						</linearGradient>
						<circle fill="url(#SVGID_16_)" cx="642.196" cy="206.513" r="37.832"/>
						<g>
							<defs>
								<circle id="SVGID_242_" cx="642.196" cy="206.513" r="37.832"/>
							</defs>
							<clipPath id="SVGID_17_">
								<use xlink:href="#SVGID_242_"  overflow="visible"/>
							</clipPath>
							<g clip-path="url(#SVGID_17_)">
								<path opacity="0.6" d="M668.314,216.876c-7.62-0.389-15.266-0.305-22.876,0.25c-6.178,0.45-13.445,2.002-15.813,7.726
									c-4.875-0.279-9.829,1.942-12.862,5.769s-4.065,9.155-2.683,13.839c0.687,2.321,2.054,4.589,4.24,5.632
									c1.259,0.601,2.684,0.748,4.078,0.797c3.606,0.129,7.394-0.396,10.344-2.472c2.952-2.078,4.799-6.013,3.604-9.419
									s-5.992-5.247-8.736-2.902c0.473-2.403,2.81-4.082,5.212-4.554c2.402-0.471,4.877,0.017,7.276,0.505
									c0.902,0.185,1.843,0.385,2.557,0.965c1.47,1.192,1.2,3.892-0.475,4.77c1.902,0.466,2.384,3.082,1.663,4.902
									c-0.72,1.821-2.188,3.269-2.906,5.091c-0.431,1.089-0.577,2.272-1.006,3.361c-1.064,2.696-3.723,4.455-6.455,5.421
									c-8.78,3.106-19.537-1.163-23.797-9.444c-4.262-8.283-1.481-19.517,6.151-24.854c1.601-1.119,3.394-2.018,4.695-3.473
									c1.038-1.161,1.701-2.606,2.645-3.843c2.047-2.685,5.298-4.22,8.588-4.97c5.717-1.304,11.682-0.516,17.479,0.359
									c5.799,0.874,11.711,1.829,17.492,0.846c5.78-0.983,11.52-4.299,13.763-9.716c2.244-5.418-0.354-12.81-6.017-14.328
									c4.468,3.262,2.933,11.188-1.979,13.735c-4.908,2.549-11.239,0.5-15.072-3.488c3.27,2.171,7.701,2.464,11.228,0.74
									s6.019-5.399,6.313-9.313c0.174-2.289-0.332-4.713,0.6-6.812c1.28-2.881,5.008-4.06,8.06-3.261
									c3.052,0.797,5.477,3.117,7.372,5.637c4.434,5.89,9.544,18.134,4.752,25.14C690.01,217.906,677.011,217.319,668.314,216.876
									z"/>
								<path opacity="0.6" d="M662.109,187.446c-4.978,2.648-10.764,3.28-16.397,3.513c-5.633,0.232-11.341,0.122-16.817,1.46
									c-13.491,3.3-24.046,16.142-24.673,30.017c-2.934-4.312-5.062-9.168-6.242-14.246c-0.201-0.87-0.365-1.832,0.057-2.618
									c0.424-0.785,1.691-1.123,2.202-0.391c0.12-0.629,0.241-1.256,0.361-1.885c0.467,0.287,0.932,0.573,1.397,0.859
									c2.134-4.463,4.927-8.732,8.868-11.719c3.942-2.989,9.175-4.548,13.951-3.265c0.86-2.269,3.833-2.934,6.213-2.468
									c2.38,0.466,4.586,1.701,7.001,1.93c3.367,0.318,6.648-1.359,10.028-1.278c-1.485-1.067-2.832-2.326-3.994-3.737
									c4.681,3.018,11.399,2.375,15.426-1.475c0.916-0.877,1.715-1.928,2.049-3.151c0.665-2.442-0.744-5.124-2.881-6.48
									s-4.825-1.579-7.333-1.236c-2.248,0.307-4.678,1.248-5.599,3.321c-0.92,2.073,0.959,5.104,3.116,4.401
									c1.041-0.338,1.694-1.345,2.261-2.282c0.106-0.679-0.421-1.391-1.101-1.488c1.603-0.988,4.035,0.68,3.691,2.531
									c-0.354,1.897-2.617,2.651-4.507,3.043c-1.794,0.373-3.588,0.745-5.381,1.117c-2.495,0.518-5.059,1.038-7.572,0.619
									c-2.514-0.417-5.002-1.991-5.75-4.427c-0.746-2.436,0.964-5.536,3.512-5.589c-3.436,0.328-6.573,2.793-7.703,6.053
									c-0.438,1.262-0.176,3.174,1.159,3.241c-2.054,0.753-4.289-1.281-4.524-3.455c-0.237-2.174,0.904-4.25,2.156-6.041
									c1.571-2.247,3.415-4.351,5.716-5.84c3.788-2.452,8.505-3.035,13.013-2.852c8.42,0.342,16.537,3.217,23.449,7.995
									c3.283,2.27,4.421,3.604,2.717,7.6C668.467,182.763,665.474,185.656,662.109,187.446z"/>
								<path opacity="0.6" d="M661.573,236.617c0.878-0.674,1.758-1.346,2.637-2.02c0.638-0.489,1.284-0.986,1.767-1.63
									c0.724-0.967,1.014-2.182,1.286-3.36c0.245-1.053,0.49-2.157,0.223-3.206c-0.61-2.384-3.652-3.375-6.038-2.77
									c-0.667-1.464-2.337-2.309-3.945-2.287c-1.608,0.023-3.134,0.795-4.357,1.84c-0.699,0.597-1.338,1.321-1.593,2.204
									c-0.254,0.884-0.037,1.951,0.706,2.492c-1.102,0.715-1.752,2.07-1.621,3.378c0.131,1.307,1.039,2.505,2.261,2.987
									c0.968,0.381,2.049,0.325,3.076,0.163c0.545-0.086,1.093-0.204,1.58-0.458c1.419-0.743,2.022-2.722,1.26-4.129
									c-0.739-0.449-1.73-0.445-2.466,0.01c0.487-0.108,1.03,0.235,1.142,0.722c-0.091,0.667-0.886,1.077-1.536,0.909
									c-0.652-0.167-1.122-0.767-1.315-1.411c-0.264-0.867-0.069-1.891,0.595-2.506c0.808-0.749,2.036-0.744,3.136-0.695
									c0.578,0.025,1.155,0.051,1.734,0.076c1.379,0.062,2.993,0.259,3.682,1.456c0.485,0.846,0.306,1.947-0.199,2.783
									c-0.506,0.833-1.286,1.46-2.05,2.067c-0.735,0.585-1.47,1.169-2.205,1.754c-1.374,1.091-2.792,2.207-4.475,2.707
									c-1.666,0.497-3.542,0.233-4.817-1C651.398,242.813,658.543,238.938,661.573,236.617z"/>
							</g>
						</g>
					</g>
				</g>
			</g>
		</g>
		<g clip-path="url(#SVGID_2_)">
			<defs>
				<rect id="SVGID_244_" x="-43.336" y="-22.386" width="932.175" height="621.453"/>
			</defs>
			<clipPath id="SVGID_18_">
				<use xlink:href="#SVGID_244_"  overflow="visible"/>
			</clipPath>
			<g clip-path="url(#SVGID_18_)">
				<g>
					
						<linearGradient id="SVGID_19_" gradientUnits="userSpaceOnUse" x1="-73.0986" y1="477.4883" x2="1056.3701" y2="477.4883" gradientTransform="matrix(0.9968 -0.0799 0.0799 0.9968 -33.3622 -3.4911)">
						<stop  offset="0" style="stop-color:#FFE139"/>
						<stop  offset="1" style="stop-color:#BF2786"/>
					</linearGradient>
					<path fill="url(#SVGID_19_)" d="M234.387,214.424c-31.571,45.773-43.99,97.711-42.164,148.804
						c0.814,22.811,4.479,45.838,15.701,67.119c19.531,37.039,62.496,70.473,110.488,89.352
						c47.993,18.877,96.498,34.227,150.678,39.352c85.497,8.09,184.504-5.594,251.151-45.58
						c27.055-16.229,47.908-37.865,59.636-61.871c12.469-25.523,14.288-54.602-1.305-79.119
						c-15.594-24.516-50.531-43.148-87.743-42.196c-37.211,0.951-72.527,24.563-71.55,51.599
						c-15.4-18.621-2.09-46.401,25.946-54.149c10.661-2.946,22.607-3.312,32.61-7.303c8.03-3.203,14.117-8.479,21.747-12.164
						c27.298-13.187,70.657,2.59,72.353,26.325c0.256,3.602-0.218,7.421,2.103,10.603c8.077,11.075,31.384,0.65,48.468,2.493
						c17.646,1.902,25.525,17.014,28.029,29.848c5.188,26.58,2.157,54.014-8.805,79.701c23.251-11.008,36.45-30.785,40.864-50.666
						s1.143-40.168-2.136-60.145c21.787,20.916,31.045,48.504,24.976,74.43c30.243-68.652,17.319-143.085-2.907-213.508
						c-3.669-12.777-7.591-25.826-5.28-38.788c2.311-12.96,12.202-26.061,28.856-31.031c31.992-9.549,63.591,14.489,77.892,37.287
						c18.761,29.909,28.085,62.468,35.408,94.931c13.11,58.109,20.258,116.945,21.367,175.857
						c0.856,45.543-2.02,91.703-20.056,135.379c-18.035,43.676-52.572,85.053-104.579,110.639
						c-40.232,19.795-88.2,29.088-135.151,38.055c-84.886,16.209-170.171,32.471-257.407,39.145
						c-87.236,6.672-177.207,3.414-259.389-18.557c-35.195-9.408-78.357-21.309-106.717-3.344
						c-8.228,5.211-14.429,12.701-24.788,15.176c-11.136,2.66-22.945-1.436-33.27-5.42c-31.578-12.186-63.157-24.371-94.736-36.559
						c-15.691-6.055-32.146-12.623-41.24-23.713c-15.28-18.633-6.99-46.574-30.561-59.879c6.769-9.682-19.185-8.492-4.278-9.033
						c8.655-92.83-4.696-175.4,46.584-285.333c18.756-40.209,52.795-75.833,91.262-107.845
						c80.718-67.165,189.129-124.876,314.575-133.104C329.006,118.43,267.58,166.3,234.387,214.424z"/>
					
						<linearGradient id="SVGID_20_" gradientUnits="userSpaceOnUse" x1="248.292" y1="251.7261" x2="464.071" y2="870.1008" gradientTransform="matrix(0.9968 -0.0799 0.0799 0.9968 -33.3622 -3.4911)">
						<stop  offset="0" style="stop-color:#FFE139"/>
						<stop  offset="1" style="stop-color:#BF2786"/>
					</linearGradient>
					<path fill="url(#SVGID_20_)" d="M161.026,229.25c6.211-6.878,14.401-12.613,22.521-18.283
						c33.477-23.384,58.596-32.761,92.072-56.144c-35.858,29.623-58.005,48.828-81.129,84.804
						c-33.473,52.072-59.79,111.737-46.838,168.659c0.861,3.777,1.974,7.635,4.807,10.834c3.901,4.408,10.697,7.146,14.099,11.777
						c3.154,4.297,2.865,9.467,3.073,14.361c1.716,40.271,41.564,73.717,83.137,99.494c31.094,19.281,64.484,36.504,99.652,51.404
						c-46.571-24.053-94.211-48.893-126.213-83.73c40.029,28.676,91.143,48.67,145.561,56.938
						c20.747,3.152,44.791,5.982,55.686,19.506c3.471,4.309,5.167,9.322,8.805,13.555c11.04,12.846,35.506,14.344,55.682,11.729
						c20.174-2.615,40.926-7.922,60.594-3.674c10.492,2.266,19.591,7.074,29.111,11.063c23.714,9.934,51.069,14.984,78.268,14.451
						c-71.847,10.545-139.035,34.484-210.437,46.592c-50.189,8.508-101.806,11.061-153.167,13.586
						c-33.608,1.654-67.541,3.297-100.824-0.549c31.801-7.197,61.429-19.666,86.113-36.242
						c-32.459-20.402-62.811-42.662-90.699-66.52c-47.434-40.574-89.11-88.756-92.809-142.486c-3.388-5.594-2.827-12.42,1.45-17.664
						c2.254,18.656,8.903,37.016,19.554,53.984c9.724-10.629,2.199-24.771-1.422-37.346c-2.808-9.744-3.024-19.787-3.229-29.75
						c-0.62-30.063-1.239-60.125-1.859-90.187c-19.278,30.935-23.937,66.794-12.978,99.907c-12.574-20.254-25.4-42.988-16.017-64.18
						c3.749-8.465,10.918-16.144,12.507-24.979c1.359-7.561-1.528-15.211-1.017-22.828c1.082-16.056,14.427-38.827,27.104-51.97
						c4.489-4.652,10.495-8.228,15.886-12.259C143.714,248.881,161.718,235.679,161.026,229.25z"/>
					
						<linearGradient id="SVGID_21_" gradientUnits="userSpaceOnUse" x1="-65.6855" y1="530.4355" x2="132.7764" y2="530.4355" gradientTransform="matrix(0.9968 -0.0799 0.0799 0.9968 -33.3622 -3.4911)">
						<stop  offset="0" style="stop-color:#FFE139"/>
						<stop  offset="1" style="stop-color:#BF2786"/>
					</linearGradient>
					<path fill="url(#SVGID_21_)" d="M-19.998,440.037c0.357-13.182,4.287-26.148,8.196-39.006
						c3.369-11.082,6.751-22.191,11.768-32.924c6.281-13.432,15.271-26.366,28.419-36.683
						C7.305,389.385,11.67,450.566,16.197,510.52c1.712,22.676,3.657,46.045,17.039,66.451c2.182,3.326,4.684,6.615,5.563,10.26
						c1.353,5.609-1.3,11.279-3.909,16.637c-3.087,6.332-6.173,12.666-9.26,18.998c-1.683,3.453-3.388,7.146-2.263,10.723
						c1.521,4.834,7.615,7.92,12.372,11.398c10.963,8.016,16.134,19.791,27.814,27.223c19.143,12.178,48.004,8.613,72.193,3.418
						c-12.535-9.076-28.123-15.793-44.935-19.363c-8.631-1.834-18.022-3.021-24.668-7.514c6.046-3.943,12.093-7.885,18.14-11.828
						c2.063-1.344,4.249-2.844,4.758-4.852c0.808-3.174-2.812-5.902-5.898-8.176c-19.66-14.459-29.126-34.842-35.641-54.84
						c-10.548-32.379-15.025-65.85-13.265-99.143c-0.887,23.701,7.188,47.045,16.097,69.809
						c16.544,42.271,39.44,87.057,89.379,110.621c3.678,1.736,7.618,3.443,9.899,6.203c4.313,5.223,1.188,11.959,1.89,18.068
						c0.669,5.832,4.947,11.473,3.579,17.236c-1.438,6.061-8.771,10.391-16.31,12.91c-21.324,7.127-45.985,4.146-68.982,1.031
						c-18.31-2.479-36.931-5.035-53.46-11.404c-22.061-8.498-38.595-23.061-54.524-37.256c-3.88-3.455-7.903-7.137-8.927-11.578
						c-0.814-3.529,0.375-7.121,1.055-10.666c1.65-8.607,0.296-17.354-0.74-26.014c-3.676-30.695-10.372-72.318,5.448-101.629
						c4.825-8.939,16.054-14.213,20.909-22.857C-13.109,471.32-20.373,453.789-19.998,440.037z"/>
					<path fill="#FFFAD7" d="M27.059,365.24c-0.232-6.002,4.884-11.242,10.65-13.16c5.766-1.918,12.022-1.248,18.019-0.404
						c72.115,10.15,140.577,43.066,193.022,92.805c-7.012,6.105-14.851,12.545-24.137,12.803
						c16.322,4.102,34.879-1.898,45.756-14.797c1.555-2.238,3.109-4.477,4.664-6.715c-23.711-17.285-49.214-32.172-75.99-44.357
						c-22.48-10.229-45.812-18.539-68.526-28.256C91.018,346.262,49.842,324.57,7.268,332.085
						c9.084,2.411,18.167,4.821,27.251,7.233c-7.33,1.507-14.659,3.016-21.988,4.524c-1.885,0.389-4.001,0.938-4.944,2.606
						s0.797,4.371,2.48,3.435c-27.814-3.732-56.708,0.199-82.617,11.243c4.545-1.936,36.627,74.297,46.39,43.363
						c3.104-9.828-2.005-20.379,4.312-30.131C-11.299,358.076,11.063,361.941,27.059,365.24z"/>
					<path fill="#FFFAD7" d="M285.476,118.03c1.2-1.886,4.657-2.209,5.372-0.091c1.311-0.686,2.998-0.185,4.077,0.829
						c1.078,1.014,1.666,2.434,2.15,3.832c3.307,9.546,3.003,20.294-0.835,29.639c-1.191-0.635-2.854,0.69-2.501,1.996
						c0.394,1.454,2.648,1.684,3.658,0.565c1.01-1.119,0.886-2.913,0.153-4.23c2.585-0.405,3.693-3.476,4.091-6.061
						c1.368-8.891,0.368-18.135-2.873-26.525c-0.528-1.367-1.465-2.945-2.928-2.865c-0.024,0.495-0.048,0.991-0.071,1.487
						c-0.34-1.403-0.774-2.942-1.99-3.719c-1.217-0.777-3.333,0.031-3.112,1.458c-2.919-2.032-7.346-1.455-9.648,1.256
						c-1.523,1.794-2.994,8.612,0.36,9.653C285.416,126.51,284.463,119.623,285.476,118.03z"/>
					<g>
						<path fill="#FFFAD7" d="M110.788,205.019c1.385-1.037,3.162-1.599,4.926-1.994c4.063-0.914,8.316-1.071,12.35-0.454
							c1.924,0.295,3.813,0.764,5.784,0.807c2.519,0.057,5.028-0.58,7.553-0.811c4.872-0.446,9.653,0.636,14.127,2.042
							c10.047,3.158,19.227,8.024,26.854,14.235c-5.894-5.838-12.01-11.822-20.26-15.173c-5.187-2.106-10.973-3.065-16.693-4.006
							c-8.4-1.382-16.801-2.764-25.201-4.146c-3.982-0.654-8.144-1.305-12.161-0.365c-4.017,0.939-7.798,4-7.619,7.436
							c0.094,1.79,1.22,3.43,1.14,5.23c-0.056,1.229-0.668,2.413-1.15,3.597c-1.781,4.375-2.566,8.016-0.821,12.223
							c3.579-2.807,9.509-7.368,9.509-7.368S106.357,208.068,110.788,205.019z"/>
						<path fill="#FFFAD7" d="M222.149,259.024c0.42,1.188,0.78,2.493,0.247,3.688c-0.532,1.196-2.346,2.063-3.503,1.35
							c6.005,3.632,5.733,12.785-0.495,16.665c-4.354,2.713-11.125,2.068-16.277,1.454c-1.522,4.952-2.356,8.467-3.291,12.366
							c8.978-0.354,18.178-4.575,23.975-10.758c1.115-1.189,2.199-2.513,3.803-3.139c0.873-0.34,1.857-0.453,2.653-0.918
							c1.314-0.768,1.754-2.271,1.778-3.613c0.068-3.65-2.25-7.165-5.865-8.887c2.054-2.677,1.459-6.16,0.311-9.091
							c-4.323-11.042-14.861-19.085-25.395-26.178c4.754,3.201,8.168,9.338,12.615,13.037
							C217.356,248.869,220.193,253.507,222.149,259.024z"/>
						<path fill="#FFFAD7" d="M198.706,224.086c-0.965-0.256-1.929-0.511-2.894-0.767c1.183,2.01,2.67,3.882,4.417,5.559
							c0.315,0.304,0.654,0.609,1.099,0.77c0.323,0.118,0.685,0.152,1.018,0.25c0.361,0.108,0.68,0.289,0.995,0.47
							c0.85,0.487,5.233,3.754,6.271,3.298c0.998-0.437-0.163-1.884-0.523-2.444C206.843,227.715,203.236,225.285,198.706,224.086z"
							/>
					</g>
					<linearGradient id="SVGID_22_" gradientUnits="userSpaceOnUse" x1="510.8359" y1="605.8389" x2="833.3126" y2="428.8269">
						<stop  offset="0" style="stop-color:#FFE139"/>
						<stop  offset="1" style="stop-color:#BF2786"/>
					</linearGradient>
					<path fill="url(#SVGID_22_)" d="M796.112,425.646c4.204-17.617,4.841-36.791-7.135-52.303
						c10.264,3.061,20.056,6.996,29.123,11.707c4.66,2.42,9.328,5.236,11.412,9.174c3.089,5.832-0.33,12.459-4.941,17.705
						c-4.609,5.248-10.524,10.016-13.161,15.971c-1.569,3.547-1.812,7.617,0.657,10.867c2.264,2.979,6.537,4.959,8.406,8.088
						c3.246,5.43-2.099,11.623-8.329,15.338c-6.229,3.715-13.866,6.547-17.772,11.73c-0.863,1.145-1.471,2.672-0.361,3.691
						c0.937,0.859,2.638,0.93,4.122,0.887c5.911-0.168,11.788-0.996,17.374-2.449c-2.375,2.406-4.752,4.811-7.127,7.219
						c27.753-7.232,54.167-17.309,78.264-29.857c-24.503,22.441-49.616,44.518-75.315,66.205c-2.597,2.189-5.305,4.438-8.866,5.66
						c-4.679,1.605-10.076,1.213-15.224,1.346c-16.985,0.443-33.431,7.412-42.617,18.063c-3.321,3.852-5.875,8.252-10.707,11.08
						c-3.722,2.18-8.404,3.184-12.959,4.141c-38.451,8.08-76.902,16.16-115.352,24.24c40.495-8.824,79.388-21.723,115.29-38.232
						c-15.655,1.574-31.312,3.15-46.968,4.725c-7.492,0.754-15.05,1.52-22.155,3.441c-6.232,1.686-11.974,4.223-17.939,6.381
						c-28.526,10.314-61.194,11.652-92.866,12.807c24.053-0.877,52.013-10.064,74.773-15.654
						c23.921-5.877,47.097-13.121,70.733-19.52c38.165-10.332,67.871-35.635,86.431-61.854
						C784.104,460.42,791.91,443.252,796.112,425.646z"/>
				</g>
				<g>
					<g>
						<g>
							<g>
								<path fill="#EC4963" d="M361.402,87.779c-0.304-0.365-0.617-0.753-1.057-0.936c-0.475-0.198-1.014-0.119-1.52-0.024
									c-9.624,1.804-17.886,8.32-23.6,16.273c-0.211,0.295-0.426,0.604-0.489,0.962c-0.067,0.387,0.05,0.782,0.188,1.151
									c0.357,0.966,0.855,1.88,1.474,2.704c2.165-3.56,5.763-6.147,9.73-7.416c2.516-0.805,5.257-1.103,7.802-0.397
									c2.544,0.706,4.856,2.519,5.755,5.003c1.867-1.748,3.687-3.544,5.457-5.388c0.823-0.855,1.635-1.722,2.435-2.597
									c0.617-0.675,2.276-1.938,2.487-2.818c0.336-1.406-3.073-1.875-4.174-2.531C364.166,90.735,362.678,89.321,361.402,87.779z"
									/>
							</g>
							<g>
								<path fill="#EC4963" d="M377.127,125.715c0.044,0.473,0.098,0.97-0.083,1.409c-0.197,0.475-0.634,0.801-1.058,1.091
									c-8.077,5.535-18.527,6.775-28.191,5.196c-0.357-0.058-0.729-0.126-1.026-0.333c-0.321-0.226-0.519-0.587-0.683-0.946
									c-0.43-0.936-0.725-1.934-0.872-2.953c4.049,0.984,8.422,0.267,12.126-1.644c2.346-1.211,4.494-2.939,5.793-5.24
									c1.3-2.299,1.65-5.217,0.527-7.606c2.556-0.086,5.113-0.104,7.669-0.055c1.187,0.024,2.373,0.062,3.559,0.114
									c0.913,0.04,2.978-0.24,3.751,0.233c1.233,0.755-0.846,3.498-1.159,4.741C376.989,121.67,376.938,123.723,377.127,125.715z"
									/>
							</g>
						</g>
						<g>
							<path fill="#D4DFE1" d="M363.673,118.192c-1.945,0.05-3.834,0.091-5.647,0.138l-2.448-5.906c0,0-0.091,0.03-0.003-0.006
								l-2.448-5.906c1.314-1.25,2.679-2.558,4.089-3.899c9.661-9.19,21.467-19.921,33.597-23.837
								c9.892-3.196,21.819-2.554,30.332-1.18c6.404,1.024,10.874,2.465,11.097,3.003c0.006,0.014,0.011,0.025,0.01,0.042
								c0.36,0.333-1.788,4.599-5.695,10.009c-5.048,6.989-13.022,15.88-22.273,20.621
								C392.938,117.083,377.004,117.851,363.673,118.192z"/>
						</g>
						<g>
							<path fill="#88959D" d="M363.673,118.192c-1.945,0.05-3.834,0.091-5.647,0.138l-2.448-5.906c0,0-0.091,0.03-0.003-0.006
								l-2.448-5.906c1.314-1.25,2.679-2.558,4.089-3.899L363.673,118.192z"/>
						</g>
						<g>
							<path fill="#EC4963" d="M426.555,90.649l-5.411-13.053c6.404,1.024,10.874,2.465,11.097,3.003
								c0.006,0.014,0.011,0.025,0.01,0.042C432.61,80.973,430.462,85.239,426.555,90.649z"/>
						</g>
						<g>
							<g>
								<circle fill="#88959D" cx="405.749" cy="91.682" r="9.337"/>
							</g>
							<g>
								<circle fill="#62C7CD" cx="405.749" cy="91.683" r="6.728"/>
							</g>
						</g>
						<g>
							<g>
								<circle fill="#88959D" cx="383.463" cy="100.92" r="7.499"/>
							</g>
							<g>
								<circle fill="#62C7CD" cx="383.463" cy="100.92" r="5.405"/>
							</g>
						</g>
						<path d="M401.479,107.938c-1.224,0.064-2.486-0.073-3.646,0.318c-2.152,0.726-3.746,3.176-6.003,2.928
							c-1.239-0.136-2.317-1.109-3.563-1.046c-0.97,0.048-1.792,0.716-2.721,1.001c-1.315,0.405-2.731,0.016-4.108,0.055
							c-1.123,0.03-2.215,0.347-3.304,0.62c-7.063,1.778-14.555,1.86-21.646,0.205l1.883,4.542
							c5.216-0.296,10.423-0.448,15.637-0.744c6.704-0.381,13.45-0.77,19.974-2.354c6.524-1.585,12.883-4.456,17.642-9.193
							C408.254,105.627,405.246,107.739,401.479,107.938z"/>
						<path fill="#FFFFFF" d="M415.223,78.567c-0.319-0.027-0.645-0.051-0.957,0.022c-0.554,0.131-1.017,0.59-1.149,1.143
							c-0.135,0.552,0.065,1.173,0.497,1.543c0.604,0.516,1.503,0.495,2.273,0.301c0.771-0.193,1.519-0.529,2.313-0.55
							c0.81-0.021,1.589,0.288,2.389,0.414c0.773,0.123,1.561,0.074,2.343,0.025c1.462-0.092,2.926-0.183,4.39-0.274
							c0.271-0.017,1.571,0.074,1.694-0.187c0.222-0.467-0.79-0.588-0.987-0.628c-2.723-0.543-5.466-0.988-8.223-1.332
							C418.281,78.854,416.754,78.696,415.223,78.567z"/>
						<path d="M428.186,86.397c-1.175,0.959-2.35,1.918-3.598,2.777c-0.549,0.379-1.113,0.739-1.628,1.166
							c-0.498,0.413-0.944,0.882-1.353,1.384c-0.538,0.661-1.021,1.415-1.105,2.264c-0.029,0.289,0.05,0.659,0.334,0.72
							c0.219,0.047,0.42-0.125,0.578-0.285c1.43-1.44,2.872-2.871,4.292-4.32c0.444-0.454,0.769-0.934,1.127-1.452
							c0.247-0.356,0.516-0.693,0.742-1.063C427.688,87.404,428.03,86.462,428.186,86.397z"/>
						<path d="M381.628,113.965c-5.021-0.027-10.043-0.053-15.063-0.08c-2.85-0.015-5.596-0.33-8.41-0.573
							c-0.042,3.786,3.529,2.621,6.138,2.403c3.719-0.309,7.437-0.636,11.148-1.028
							C377.454,114.474,379.608,113.955,381.628,113.965z"/>
						<path fill="#FFFFFF" d="M410.955,90.619c-0.356,0.043-0.714-0.047-1.061-0.139c-2.49-0.65-4.996-1.307-7.34-2.373
							c-0.271-0.124-0.547-0.257-0.759-0.47c-0.211-0.211-0.348-0.519-0.281-0.812c-1.62,1.754-2.083,4.348-1.714,6.707
							c0.394-0.656,0.881-1.378,1.638-1.491c0.262-0.039,0.53,0.003,0.792,0.046c0.407,0.066,0.813,0.131,1.222,0.197
							c0.425,0.069,0.851,0.138,1.271,0.234c1.439,0.332,2.782,0.983,4.109,1.63c0.25,0.122,0.506,0.248,0.699,0.444
							c0.195,0.198,0.322,0.485,0.257,0.756c-0.071,0.283-0.338,0.483-0.619,0.556c-0.283,0.073-0.58,0.042-0.869,0.006
							c-2.261-0.282-4.49-0.806-6.639-1.562c-0.387-0.136-0.84-0.368-0.854-0.778c-0.276,0.207-0.574,0.381-0.887,0.524
							c0.252,0.744,0.702,1.42,1.291,1.941c0.068,0.061,0.141,0.12,0.229,0.147c0.1,0.031,0.206,0.016,0.31,0.006
							c0.455-0.039,0.91,0.057,1.355,0.152c1.577,0.336,3.153,0.671,4.73,1.007c0.274,0.058,0.556,0.117,0.834,0.08
							c0.421-0.056,0.784-0.323,1.097-0.609c1.659-1.517,2.857-4.486,2.008-6.706C411.572,90.385,411.304,90.577,410.955,90.619z"/>
						<path fill="#FFFFFF" d="M387.373,101.095c-0.348,0.066-0.704,0.016-1.054-0.035c-0.734-0.108-1.469-0.215-2.204-0.322
							c-0.948-0.14-1.922-0.285-2.759-0.751c-0.839-0.467-1.526-1.33-1.5-2.289c-0.888,0.817-1.329,2.057-1.286,3.261
							c0.043,1.206,0.541,2.368,1.279,3.32c-0.097-0.299,0.012-0.637,0.212-0.879c0.2-0.243,0.481-0.404,0.768-0.534
							c0.805-0.364,1.703-0.521,2.583-0.449c0.391,0.03,0.792,0.111,1.111,0.34c0.317,0.228,0.535,0.632,0.447,1.015
							c-0.042,0.187-0.152,0.353-0.286,0.492c-0.336,0.348-0.813,0.534-1.294,0.601c-0.479,0.067-0.966,0.027-1.448-0.017
							c0.247,0.401,0.663,0.692,1.124,0.789c0.33,0.068,0.674,0.04,1.006-0.022c1.824-0.335,3.427-1.721,3.984-3.491
							c0.138-0.439,0.32-1.139,0.123-1.572C387.988,100.841,387.717,101.029,387.373,101.095z"/>
						<path fill="#FFFFFF" d="M410.236,91.149c-0.625-0.167-1.25-0.336-1.875-0.504c-2.099-0.562-4.211-1.13-6.174-2.06
							c-0.329-0.157-0.673-0.341-0.842-0.664c-0.311,0.174-0.509,0.505-0.602,0.849c-0.093,0.343-0.093,0.704-0.093,1.06
							c0.789-0.372,1.727-0.238,2.548,0.055c0.822,0.292,1.589,0.732,2.427,0.973c0.499,0.145,1.015,0.216,1.522,0.319
							c0.624,0.126,1.238,0.301,1.852,0.475c0.73,0.208,1.511,0.448,1.979,1.045c-0.011-0.016,0.273-0.673,0.29-0.74
							c0.059-0.216,0.174-0.591,0.078-0.792C410.971,91.296,410.618,91.251,410.236,91.149z"/>
						<path fill="#FFFFFF" d="M382.782,101.015c-0.675-0.137-1.36-0.278-1.969-0.602c-0.606-0.324-1.136-0.866-1.279-1.539
							c-0.456,0.749-0.587,1.687-0.354,2.532c0.508-0.239,1.094-0.226,1.654-0.185c0.548,0.042,1.094,0.103,1.637,0.186
							c1.707,0.261,3.454,0.729,5.135,0.329c-0.212-0.261-0.601-0.291-0.933-0.234c-0.287,0.05-0.582,0.171-0.877,0.144
							c-0.275-0.027-0.565-0.132-0.837-0.188C384.232,101.31,383.507,101.163,382.782,101.015z"/>
						<path d="M370.84,120.793c1.921,0.488,3.777,1.376,5.159,2.795c0.118-1.816,0.522-3.614,1.196-5.306
							c-0.576-0.095-1.165-0.021-1.745,0.046c-1.777,0.203-3.562,0.333-5.348,0.39c-1.771,0.056-3.588-0.144-5.341-0.027
							c-0.253,1.501,0.826,1.458,1.985,1.526C368.125,120.296,369.5,120.457,370.84,120.793z"/>
						<path d="M376.082,118.669c-0.133,0.597-0.267,1.194-0.4,1.792c-2.431-0.359-4.862-0.717-7.293-1.077
							c-0.1-0.015,0.378-0.273,0.449-0.282c0.312-0.039,0.693,0.038,1.013,0.042c0.69,0.008,1.38-0.004,2.069-0.036
							C373.315,119.042,374.706,118.897,376.082,118.669z"/>
						<g>
							<path d="M360.453,95.732c1.011-1.703,1.694-3.645,1.666-5.625c1.369,1.199,2.928,2.184,4.599,2.903
								c-0.34,0.475-0.808,0.839-1.265,1.202c-1.399,1.114-2.751,2.284-4.055,3.508c-1.291,1.212-2.434,2.64-3.756,3.798
								c-1.241-0.882-0.447-1.615,0.324-2.483C358.885,98.004,359.742,96.919,360.453,95.732z"/>
							<path d="M365.66,93.524c-0.518-0.327-1.034-0.654-1.552-0.982c-1.464,1.974-2.929,3.947-4.393,5.92
								c-0.06,0.082,0.46-0.075,0.516-0.119c0.249-0.193,0.465-0.517,0.688-0.747c0.482-0.493,0.978-0.974,1.487-1.438
								C363.438,95.219,364.525,94.337,365.66,93.524z"/>
						</g>
					</g>
					<g>
						
							<rect x="356.303" y="94.223" transform="matrix(0.3828 0.9238 -0.9238 0.3828 323.8971 -260.7054)" fill="#EC4963" width="1.528" height="35.674"/>
					</g>
				</g>
			</g>
		</g>
		<path clip-path="url(#SVGID_2_)" fill="#FFFAD7" d="M163.286,564.977c-3.397-0.834-5.168-3.771-4.942-6.465
			c0.225-2.693,2.004-5.189,3.819-7.551c21.845-28.396,55.558-51.744,95.049-65.832c1.827,3.859,3.657,8.115,1.716,12.014
			c5.95-6.146,6.771-14.789,2.025-21.307c-0.897-0.992-1.797-1.984-2.694-2.979c-14.956,7.174-28.978,15.465-41.778,24.705
			c-10.747,7.756-20.615,16.164-31.129,24.098c-18.283,13.795-39.614,27.547-44.985,46.402c3.383-3.4,6.766-6.803,10.149-10.203
			c-0.806,3.279-1.61,6.561-2.415,9.84c-0.206,0.844-0.376,1.807,0.343,2.457c0.718,0.65,2.614,0.346,2.471-0.498
			c-8.324,10.98-12.619,23.596-12.281,36.076c-0.059-2.189,49.625-3.707,34.578-12.559c-4.779-2.814-11.807-2.326-15.822-6.461
			C150.684,579.807,157.857,571.113,163.286,564.977z"/>
		<path clip-path="url(#SVGID_2_)" fill="#FFFAD7" d="M366.281,586.49c-2.67-0.385-4.033-1.861-3.823-3.236
			c0.209-1.375,1.642-2.668,3.104-3.893c17.575-14.73,44.457-27.027,75.792-34.672c1.396,1.945,2.79,4.092,1.213,6.102
			c4.767-3.203,5.517-7.617,1.851-10.881c-0.698-0.496-1.396-0.992-2.092-1.486c-11.89,3.832-23.053,8.223-33.265,13.082
			c-8.574,4.08-16.461,8.482-24.854,12.648c-14.592,7.246-31.588,14.508-36.05,24.18c2.71-1.775,5.419-3.547,8.13-5.32
			c-0.674,1.682-1.348,3.363-2.021,5.043c-0.173,0.434-0.317,0.926,0.24,1.248c0.561,0.324,2.061,0.146,1.957-0.283
			c-6.699,5.695-10.238,12.176-10.118,18.531c-0.021-1.115,39.209-2.475,27.438-6.807c-3.738-1.377-9.29-1.047-12.411-3.107
			C356.161,594.197,361.925,589.682,366.281,586.49z"/>
		<g clip-path="url(#SVGID_2_)">
			<text transform="matrix(0.8613 0 0 1 248.0635 323.5547)" font-family="'BreezePersonalUse-Regular'" font-size="49.7155">Multidisciplinary Designer   </text>
		</g>
		<g clip-path="url(#SVGID_2_)">
			
				<text transform="matrix(0.8398 -0.5854 0.5719 0.8203 192.4414 215.7959)" font-family="'BreezePersonalUse-Regular'" font-size="38.7302">Design</text>
		</g>
		<g clip-path="url(#SVGID_2_)">
			
				<text transform="matrix(0.8398 -0.5854 0.5719 0.8203 190.5762 214.5527)" fill="#FFFFFF" font-family="'BreezePersonalUse-Regular'" font-size="38.7302">Design</text>
		</g>
		<g clip-path="url(#SVGID_2_)">
			<path fill="none" d="M418.636,346.202c12.115,85.677-51.58,165.522-142.27,178.351
				c-90.688,12.824-174.027-46.229-186.146-131.904c-12.117-85.675,51.58-165.524,142.27-178.352
				C323.18,201.475,406.519,260.527,418.636,346.202z"/>
			<text transform="matrix(0.175 -0.9846 0.9846 0.175 88.9238 357.5947)"><tspan x="0" y="0" font-family="'BreezePersonalUse-Regular'" font-size="36.6838">I</tspan><tspan x="23.456" y="0.367" font-family="'BreezePersonalUse-Regular'" font-size="36.6838" rotate="6.057">l</tspan><tspan x="32.005" y="1.266" font-family="'BreezePersonalUse-Regular'" font-size="36.6838" rotate="9.3">l</tspan><tspan x="40.374" y="2.414" font-family="'BreezePersonalUse-Regular'" font-size="36.6838" rotate="14.175">u</tspan><tspan x="57.479" y="6.796" font-family="'BreezePersonalUse-Regular'" font-size="36.6838" rotate="20.007">s</tspan><tspan x="70.955" y="11.764" font-family="'BreezePersonalUse-Regular'" font-size="36.6838" rotate="24.464">t</tspan><tspan x="80.529" y="16.051" font-family="'BreezePersonalUse-Regular'" font-size="36.6838" rotate="28.647">r</tspan><tspan x="92.011" y="22.186" font-family="'BreezePersonalUse-Regular'" font-size="36.6838" rotate="33.918">a</tspan><tspan x="106.236" y="31.899" font-family="'BreezePersonalUse-Regular'" font-size="36.6838" rotate="38.691">t</tspan><tspan x="114.476" y="38.521" font-family="'BreezePersonalUse-Regular'" font-size="36.6838" rotate="41.981">i</tspan><tspan x="120.96" y="44.184" font-family="'BreezePersonalUse-Regular'" font-size="36.6838" rotate="45.995">o</tspan><tspan x="131.354" y="54.809" font-family="'BreezePersonalUse-Regular'" font-size="36.6838" rotate="51.48">n</tspan></text>
		</g>
		<g clip-path="url(#SVGID_2_)">
			
				<ellipse transform="matrix(0.9869 -0.1614 0.1614 0.9869 -54.8887 45.1439)" fill="none" cx="250.442" cy="360.443" rx="160.111" ry="149.38"/>
			
				<text transform="matrix(0.1602 -0.9998 0.9874 0.1582 90.5029 352.9033)" fill="#FFFFFF" font-family="'BreezePersonalUse-Regular'" font-size="34.9765">I</text>
			
				<text transform="matrix(0.2669 -0.9768 0.9646 0.2636 94.4453 330.5947)" fill="#FFFFFF" font-family="'BreezePersonalUse-Regular'" font-size="34.9765">l</text>
			
				<text transform="matrix(0.3225 -0.9598 0.9479 0.3185 96.6162 322.6104)" fill="#FFFFFF" font-family="'BreezePersonalUse-Regular'" font-size="34.9765">l</text>
			
				<text transform="matrix(0.4041 -0.9284 0.9169 0.3991 99.0098 314.8174)" fill="#FFFFFF" font-family="'BreezePersonalUse-Regular'" font-size="34.9765">u</text>
			
				<text transform="matrix(0.4973 -0.882 0.8711 0.4912 105.8604 299.2188)" fill="#FFFFFF" font-family="'BreezePersonalUse-Regular'" font-size="34.9765">s</text>
			
				<text transform="matrix(0.5649 -0.8403 0.8299 0.5579 112.7217 287.166)" fill="#FFFFFF" font-family="'BreezePersonalUse-Regular'" font-size="34.9765">t</text>
			
				<text transform="matrix(0.625 -0.7967 0.7868 0.6172 118.3145 278.7344)" fill="#FFFFFF" font-family="'BreezePersonalUse-Regular'" font-size="34.9765">r</text>
			
				<text transform="matrix(0.6958 -0.7357 0.7266 0.6871 125.9932 268.7637)" fill="#FFFFFF" font-family="'BreezePersonalUse-Regular'" font-size="34.9765">a</text>
			
				<text transform="matrix(0.7544 -0.6754 0.667 0.7451 137.4902 256.7764)" fill="#FFFFFF" font-family="'BreezePersonalUse-Regular'" font-size="34.9765">t</text>
			
				<text transform="matrix(0.7919 -0.6311 0.6232 0.782 145.1074 249.979)" fill="#FFFFFF" font-family="'BreezePersonalUse-Regular'" font-size="34.9765">i</text>
			
				<text transform="matrix(0.8338 -0.5745 0.5674 0.8234 151.5117 244.7192)" fill="#FFFFFF" font-family="'BreezePersonalUse-Regular'" font-size="34.9765">o</text>
			
				<text transform="matrix(0.8846 -0.4928 0.4866 0.8736 163.2871 236.498)" fill="#FFFFFF" font-family="'BreezePersonalUse-Regular'" font-size="34.9765">n</text>
		</g>
		<g clip-path="url(#SVGID_2_)">
			<path fill="none" d="M83.3,313.787c52.217-42.061,131.026-30.868,176.021,24.995c44.999,55.866,39.143,135.249-13.073,177.31
				c-52.221,42.059-131.027,30.869-176.025-24.996C25.226,435.229,31.078,355.848,83.3,313.787z"/>
			<text transform="matrix(-0.7807 -0.625 0.625 -0.7807 119.793 535.0078)"><tspan x="0" y="0" font-family="'BreezePersonalUse-Regular'" font-size="59.6594">M</tspan><tspan x="68.801" y="3.337" font-family="'BreezePersonalUse-Regular'" font-size="59.6594" rotate="18.645">o</tspan><tspan x="91.166" y="11.047" font-family="'BreezePersonalUse-Regular'" font-size="59.6594" rotate="26.971">t</tspan><tspan x="106.01" y="18.627" font-family="'BreezePersonalUse-Regular'" font-size="59.6594" rotate="33.373">i</tspan><tspan x="117.377" y="25.563" font-family="'BreezePersonalUse-Regular'" font-size="59.6594" rotate="41.313">o</tspan><tspan x="135.128" y="40.604" font-family="'BreezePersonalUse-Regular'" font-size="59.6594" rotate="52.503">n</tspan><tspan x="151.882" y="62.901" font-family="'BreezePersonalUse-Regular'" font-size="59.6594" rotate="62.895"> </tspan></text>
		</g>
		<g clip-path="url(#SVGID_2_)">
			
				<ellipse transform="matrix(-0.4764 -0.8792 0.8792 -0.4764 89.7379 910.3494)" fill="none" cx="315.927" cy="428.455" rx="126.302" ry="122.616"/>
			<text transform="matrix(-0.9877 -0.1565 0.1565 -0.9877 318.0459 555.3086)"><tspan x="0" y="0" font-family="'BreezePersonalUse-Regular'" font-size="45.9282">C</tspan><tspan x="34.999" y="0.754" font-family="'BreezePersonalUse-Regular'" font-size="45.9282" rotate="12.098">o</tspan><tspan x="52.809" y="4.357" font-family="'BreezePersonalUse-Regular'" font-size="45.9282" rotate="21.007">d</tspan><tspan x="72.706" y="12.128" font-family="'BreezePersonalUse-Regular'" font-size="45.9282" rotate="29.36">e</tspan></text>
		</g>
		<g clip-path="url(#SVGID_2_)">
			
				<ellipse transform="matrix(-0.4764 -0.8792 0.8792 -0.4764 95.2401 904.2421)" fill="none" cx="316.859" cy="423.763" rx="126.303" ry="122.617"/>
			<text transform="matrix(-0.9877 -0.1565 0.1565 -0.9877 318.9775 550.6162)"><tspan x="0" y="0" fill="#FFFFFF" font-family="'BreezePersonalUse-Regular'" font-size="45.9282">C</tspan><tspan x="35" y="0.754" fill="#FFFFFF" font-family="'BreezePersonalUse-Regular'" font-size="45.9282" rotate="12.098">o</tspan><tspan x="52.81" y="4.357" fill="#FFFFFF" font-family="'BreezePersonalUse-Regular'" font-size="45.9282" rotate="21.006">d</tspan><tspan x="72.705" y="12.128" fill="#FFFFFF" font-family="'BreezePersonalUse-Regular'" font-size="45.9282" rotate="29.359">e</tspan></text>
		</g>
		<g clip-path="url(#SVGID_2_)">
			
				<ellipse transform="matrix(-0.5928 -0.8053 0.8053 -0.5928 38.8147 782.3947)" fill="none" cx="217.191" cy="381.385" rx="129.883" ry="121.405"/>
			<text transform="matrix(-0.8143 -0.5804 0.5804 -0.8143 167.6895 496.2725)"><tspan x="0" y="0" font-family="'BreezePersonalUse-Regular'" font-size="44.7445">G</tspan><tspan x="40.838" y="1.177" font-family="'BreezePersonalUse-Regular'" font-size="44.7445" rotate="11.701">r</tspan><tspan x="56.188" y="4.133" font-family="'BreezePersonalUse-Regular'" font-size="44.7445" rotate="19.092">a</tspan><tspan x="75.598" y="10.756" font-family="'BreezePersonalUse-Regular'" font-size="44.7445" rotate="27.512">p</tspan><tspan x="93.88" y="20.155" font-family="'BreezePersonalUse-Regular'" font-size="44.7445" rotate="36.246">h</tspan><tspan x="110.889" y="32.964" font-family="'BreezePersonalUse-Regular'" font-size="44.7445" rotate="42.948">i</tspan><tspan x="118.547" y="39.878" font-family="'BreezePersonalUse-Regular'" font-size="44.7445" rotate="48.485">c</tspan></text>
		</g>
		<g clip-path="url(#SVGID_2_)">
			<path fill="none" d="M80.818,310.065c52.217-42.061,131.027-30.868,176.021,24.996c45,55.866,39.144,135.249-13.073,177.308
				c-52.22,42.061-131.026,30.871-176.025-24.994C22.744,431.508,28.598,352.127,80.818,310.065z"/>
			<text transform="matrix(-0.7807 -0.6249 0.6249 -0.7807 117.3105 531.2813)"><tspan x="0" y="0" fill="#FFFFFF" font-family="'BreezePersonalUse-Regular'" font-size="59.6594">M</tspan><tspan x="68.802" y="3.337" fill="#FFFFFF" font-family="'BreezePersonalUse-Regular'" font-size="59.6594" rotate="18.646">o</tspan><tspan x="91.165" y="11.047" fill="#FFFFFF" font-family="'BreezePersonalUse-Regular'" font-size="59.6594" rotate="26.972">t</tspan><tspan x="106.011" y="18.629" fill="#FFFFFF" font-family="'BreezePersonalUse-Regular'" font-size="59.6594" rotate="33.375">i</tspan><tspan x="117.377" y="25.564" fill="#FFFFFF" font-family="'BreezePersonalUse-Regular'" font-size="59.6594" rotate="41.314">o</tspan><tspan x="135.126" y="40.606" fill="#FFFFFF" font-family="'BreezePersonalUse-Regular'" font-size="59.6594" rotate="52.504">n</tspan><tspan x="151.88" y="62.902" fill="#FFFFFF" font-family="'BreezePersonalUse-Regular'" font-size="59.6594" rotate="62.896"> </tspan></text>
		</g>
		<g clip-path="url(#SVGID_2_)">
			<path fill="none" d="M137.711,273.066c53.996-39.752,132.245-25.148,174.769,32.623c42.528,57.77,33.228,136.82-20.769,176.57
				c-53.999,39.752-132.244,25.145-174.771-32.623S83.713,312.816,137.711,273.066z"/>
			<text transform="matrix(-0.8143 -0.5804 0.5804 -0.8143 165.208 492.5537)"><tspan x="0" y="0" fill="#FFFFFF" font-family="'BreezePersonalUse-Regular'" font-size="44.7445">G</tspan><tspan x="40.836" y="1.176" fill="#FFFFFF" font-family="'BreezePersonalUse-Regular'" font-size="44.7445" rotate="11.701">r</tspan><tspan x="56.188" y="4.133" fill="#FFFFFF" font-family="'BreezePersonalUse-Regular'" font-size="44.7445" rotate="19.093">a</tspan><tspan x="75.597" y="10.755" fill="#FFFFFF" font-family="'BreezePersonalUse-Regular'" font-size="44.7445" rotate="27.512">p</tspan><tspan x="93.879" y="20.154" fill="#FFFFFF" font-family="'BreezePersonalUse-Regular'" font-size="44.7445" rotate="36.247">h</tspan><tspan x="110.888" y="32.964" fill="#FFFFFF" font-family="'BreezePersonalUse-Regular'" font-size="44.7445" rotate="42.95">i</tspan><tspan x="118.546" y="39.878" fill="#FFFFFF" font-family="'BreezePersonalUse-Regular'" font-size="44.7445" rotate="48.486">c</tspan></text>
		</g>
		<g clip-path="url(#SVGID_2_)">
			
				<text transform="matrix(0.793 0 0 1 254.4277 323.459)" fill="#FFFFFF" font-family="'BreezePersonalUse-Regular'" font-size="52.6514">Multidisciplinary Designer   </text>
		</g>
		<g clip-path="url(#SVGID_2_)">
			<g>
				<defs>
					<rect id="SVGID_250_" x="608.463" y="170.309" width="69.127" height="69.127"/>
				</defs>
				<clipPath id="SVGID_23_">
					<use xlink:href="#SVGID_250_"  overflow="visible"/>
				</clipPath>
				<g clip-path="url(#SVGID_23_)">
					<defs>
						<rect id="SVGID_252_" x="608.463" y="170.309" width="69.127" height="69.127"/>
					</defs>
					<clipPath id="SVGID_24_">
						<use xlink:href="#SVGID_252_"  overflow="visible"/>
					</clipPath>
					<path clip-path="url(#SVGID_24_)" fill="#FFFFFF" d="M672.658,213.313h-11.007h-23.049h-20.132h-4.458
						c-0.935,0-0.935,1.451,0,1.451h11.008h23.049h20.132h4.457C673.594,214.764,673.594,213.313,672.658,213.313"/>
					<path clip-path="url(#SVGID_24_)" fill="#FFCCCC" d="M673.726,206.171c0,17.18-13.927,31.107-31.107,31.107
						c-17.18,0-31.106-13.927-31.106-31.107c0-17.18,13.927-31.107,31.106-31.107C659.799,175.064,673.726,188.991,673.726,206.171"
						/>
					<path clip-path="url(#SVGID_24_)" fill="#FFFFFF" d="M672.882,215.51h-10.767h-22.88h-20.868h-5.847
						c-0.949,0-0.949,1.472,0,1.472h10.766h22.881h20.868h5.847C673.831,216.981,673.831,215.51,672.882,215.51"/>
					<path clip-path="url(#SVGID_24_)" fill="#FFFFFF" d="M658.212,199.483h-16.755h-13.712c-0.936,0-0.936,1.451,0,1.451h16.754
						h13.713C659.147,200.934,659.147,199.483,658.212,199.483"/>
					<path clip-path="url(#SVGID_24_)" fill="#FFFFFF" d="M670.049,210.082h-11.754h-23.426h-17.345h-1.368
						c-0.928,0-0.928,1.439,0,1.439h11.754h23.426h17.346h1.367C670.977,211.521,670.977,210.082,670.049,210.082"/>
					<path clip-path="url(#SVGID_24_)" fill="#FFFFFF" d="M670.863,210.29c-3.814-3.316-7.629-6.632-11.443-9.949
						c-5.08-4.416-10.159-8.832-15.239-13.248c-0.35-0.304-0.699-0.608-1.05-0.913c-0.702-0.61-1.732,0.411-1.025,1.026
						c3.814,3.316,7.629,6.633,11.443,9.949c5.08,4.416,10.159,8.832,15.239,13.248c0.35,0.305,0.699,0.609,1.05,0.913
						C670.54,211.926,671.571,210.904,670.863,210.29"/>
					<path clip-path="url(#SVGID_24_)" fill="#FFFFFF" d="M642.146,186.179c-3.802,3.45-7.604,6.899-11.406,10.349l-14.447,13.108
						c-0.215,0.195-0.43,0.39-0.645,0.584c-0.694,0.63,0.334,1.653,1.025,1.026c3.803-3.45,7.604-6.899,11.407-10.349l14.447-13.108
						c0.215-0.195,0.43-0.39,0.645-0.584C643.866,186.575,642.837,185.552,642.146,186.179"/>
					<path clip-path="url(#SVGID_24_)" fill="#FFFFFF" d="M635.444,193.315c2.216,2.517,4.433,5.033,6.649,7.55
						c0.253,0.287,0.803,0.296,1.054,0c2.217-2.62,4.435-5.24,6.651-7.86c0.616-0.729-0.432-1.789-1.054-1.054
						c-2.217,2.62-4.435,5.24-6.651,7.86h1.054c-2.217-2.517-4.434-5.033-6.649-7.55
						C635.861,191.539,634.812,192.597,635.444,193.315"/>
					<path clip-path="url(#SVGID_24_)" fill="#FFFFFF" d="M643.25,210.863c2.504-1.736,5.008-3.472,7.512-5.208
						c0.402-0.278,0.439-0.856,0-1.127c-2.663-1.647-5.327-3.294-7.991-4.941c-0.718-0.444-1.373,0.686-0.658,1.128
						c2.663,1.647,5.327,3.294,7.99,4.94v-1.127c-2.504,1.736-5.008,3.472-7.512,5.208
						C641.903,210.211,642.556,211.344,643.25,210.863"/>
					<path clip-path="url(#SVGID_24_)" fill="#FFFFFF" d="M642.618,200.934c0.936,0,0.936-1.451,0-1.451
						S641.683,200.934,642.618,200.934"/>
					<path clip-path="url(#SVGID_24_)" fill="#FFFFFF" d="M641.823,200.208v10.594c0,0.936,1.451,0.936,1.451,0v-10.594
						C643.274,199.273,641.823,199.273,641.823,200.208"/>
					<path clip-path="url(#SVGID_24_)" fill="#FFFFFF" d="M639.535,200.355v10.446c0,0.936,1.45,0.936,1.45,0v-10.446
						C640.985,199.42,639.535,199.42,639.535,200.355"/>
					<path clip-path="url(#SVGID_24_)" fill="#FFFFFF" d="M637.247,200.355v10.446c0,0.936,1.45,0.936,1.45,0v-10.446
						C638.697,199.42,637.247,199.42,637.247,200.355"/>
				</g>
			</g>
		</g>
	</g>
</g>
</svg>
