<?xml version="1.0" encoding="utf-8"?>
<!-- Generator: Adobe Illustrator 16.0.0, SVG Export Plug-In . SVG Version: 6.00 Build 0)  -->
<!DOCTYPE svg PUBLIC "-//W3C//DTD SVG 1.1//EN" "http://www.w3.org/Graphics/SVG/1.1/DTD/svg11.dtd">
<svg version="1.1" id="Layer_1" xmlns="http://www.w3.org/2000/svg" xmlns:xlink="http://www.w3.org/1999/xlink" x="0px" y="0px"
	 width="566.93px" height="566.93px" viewBox="0 0 566.93 566.93" enable-background="new 0 0 566.93 566.93" xml:space="preserve">
<g>
	<path d="M43.523,399.13V168.511C43.523,98.933,100.013,42,169.051,42H397.88c69.038,0,125.527,56.933,125.527,126.511V399.13
		c0,69.579-56.489,126.494-125.527,126.494l-228.829,0.016C100.013,525.64,43.523,468.709,43.523,399.13z"/>
	<path fill="#FFFFFF" d="M153.827,420.658l20.016-75.229c-11.33-20.594-17.292-43.675-17.292-67.093
		c0-76.588,61.826-138.898,137.818-138.898c75.994,0,137.819,62.31,137.819,138.898c0,76.587-61.825,138.897-137.819,138.897
		c-22.819,0-45.352-5.814-65.512-16.827L153.827,420.658z M232.593,372.206l4.711,2.843c17.355,10.418,37.083,15.925,57.066,15.925
		c61.619,0,111.763-50.536,111.763-112.637c0-62.116-50.144-112.653-111.763-112.653c-61.633,0-111.777,50.537-111.777,112.653
		c0,20.511,5.657,40.7,16.346,58.4l2.9,4.799l-11.17,41.992L232.593,372.206z"/>
	<path fill-rule="evenodd" clip-rule="evenodd" fill="#FFFFFF" d="M345.637,297.653c-5.674-3.424-13.062-7.236-19.744-4.49
		c-5.111,2.116-8.396,10.208-11.714,14.342c-1.699,2.116-3.734,2.438-6.362,1.39c-19.246-7.736-33.99-20.689-44.615-38.52
		c-1.794-2.778-1.474-4.959,0.705-7.527c3.205-3.811,7.227-8.14,8.094-13.259c0.863-5.137-1.523-11.129-3.622-15.7
		c-2.693-5.846-5.689-14.164-11.491-17.475c-5.336-3.037-12.372-1.324-17.115,2.568c-8.205,6.735-12.164,17.281-12.036,27.731
		c0.032,2.972,0.385,5.943,1.075,8.803c1.666,6.895,4.824,13.339,8.381,19.461c2.691,4.619,5.593,9.094,8.75,13.406
		c10.288,14.083,23.092,26.324,37.932,35.483c7.404,4.569,15.385,8.593,23.654,11.337c9.263,3.086,17.516,6.299,27.531,4.377
		c10.465-2.002,20.802-8.527,24.952-18.702c1.234-3.021,1.858-6.38,1.169-9.562C359.756,304.744,350.909,300.836,345.637,297.653z"
		/>
</g>
</svg>
